%TF.GenerationSoftware,KiCad,Pcbnew,(6.0.6)*%
%TF.CreationDate,2022-07-19T20:18:06+07:00*%
%TF.ProjectId,pocket,706f636b-6574-42e6-9b69-6361645f7063,rev?*%
%TF.SameCoordinates,Original*%
%TF.FileFunction,Legend,Bot*%
%TF.FilePolarity,Positive*%
%FSLAX46Y46*%
G04 Gerber Fmt 4.6, Leading zero omitted, Abs format (unit mm)*
G04 Created by KiCad (PCBNEW (6.0.6)) date 2022-07-19 20:18:06*
%MOMM*%
%LPD*%
G01*
G04 APERTURE LIST*
%ADD10C,0.150000*%
%ADD11C,0.120000*%
%ADD12C,0.381000*%
%ADD13R,1.752600X1.752600*%
%ADD14C,1.752600*%
G04 APERTURE END LIST*
D10*
%TO.C,D1*%
X263596130Y-73874404D02*
X262596130Y-73874404D01*
X262596130Y-74112500D01*
X262643750Y-74255357D01*
X262738988Y-74350595D01*
X262834226Y-74398214D01*
X263024702Y-74445833D01*
X263167559Y-74445833D01*
X263358035Y-74398214D01*
X263453273Y-74350595D01*
X263548511Y-74255357D01*
X263596130Y-74112500D01*
X263596130Y-73874404D01*
X263596130Y-75398214D02*
X263596130Y-74826785D01*
X263596130Y-75112500D02*
X262596130Y-75112500D01*
X262738988Y-75017261D01*
X262834226Y-74922023D01*
X262881845Y-74826785D01*
%TO.C,D5*%
X187396130Y-73874404D02*
X186396130Y-73874404D01*
X186396130Y-74112500D01*
X186443750Y-74255357D01*
X186538988Y-74350595D01*
X186634226Y-74398214D01*
X186824702Y-74445833D01*
X186967559Y-74445833D01*
X187158035Y-74398214D01*
X187253273Y-74350595D01*
X187348511Y-74255357D01*
X187396130Y-74112500D01*
X187396130Y-73874404D01*
X186396130Y-75350595D02*
X186396130Y-74874404D01*
X186872321Y-74826785D01*
X186824702Y-74874404D01*
X186777083Y-74969642D01*
X186777083Y-75207738D01*
X186824702Y-75302976D01*
X186872321Y-75350595D01*
X186967559Y-75398214D01*
X187205654Y-75398214D01*
X187300892Y-75350595D01*
X187348511Y-75302976D01*
X187396130Y-75207738D01*
X187396130Y-74969642D01*
X187348511Y-74874404D01*
X187300892Y-74826785D01*
%TO.C,D6*%
X168346130Y-73874404D02*
X167346130Y-73874404D01*
X167346130Y-74112500D01*
X167393750Y-74255357D01*
X167488988Y-74350595D01*
X167584226Y-74398214D01*
X167774702Y-74445833D01*
X167917559Y-74445833D01*
X168108035Y-74398214D01*
X168203273Y-74350595D01*
X168298511Y-74255357D01*
X168346130Y-74112500D01*
X168346130Y-73874404D01*
X167346130Y-75302976D02*
X167346130Y-75112500D01*
X167393750Y-75017261D01*
X167441369Y-74969642D01*
X167584226Y-74874404D01*
X167774702Y-74826785D01*
X168155654Y-74826785D01*
X168250892Y-74874404D01*
X168298511Y-74922023D01*
X168346130Y-75017261D01*
X168346130Y-75207738D01*
X168298511Y-75302976D01*
X168250892Y-75350595D01*
X168155654Y-75398214D01*
X167917559Y-75398214D01*
X167822321Y-75350595D01*
X167774702Y-75302976D01*
X167727083Y-75207738D01*
X167727083Y-75017261D01*
X167774702Y-74922023D01*
X167822321Y-74874404D01*
X167917559Y-74826785D01*
%TO.C,D21*%
X263596130Y-111498214D02*
X262596130Y-111498214D01*
X262596130Y-111736309D01*
X262643750Y-111879166D01*
X262738988Y-111974404D01*
X262834226Y-112022023D01*
X263024702Y-112069642D01*
X263167559Y-112069642D01*
X263358035Y-112022023D01*
X263453273Y-111974404D01*
X263548511Y-111879166D01*
X263596130Y-111736309D01*
X263596130Y-111498214D01*
X262691369Y-112450595D02*
X262643750Y-112498214D01*
X262596130Y-112593452D01*
X262596130Y-112831547D01*
X262643750Y-112926785D01*
X262691369Y-112974404D01*
X262786607Y-113022023D01*
X262881845Y-113022023D01*
X263024702Y-112974404D01*
X263596130Y-112402976D01*
X263596130Y-113022023D01*
X263596130Y-113974404D02*
X263596130Y-113402976D01*
X263596130Y-113688690D02*
X262596130Y-113688690D01*
X262738988Y-113593452D01*
X262834226Y-113498214D01*
X262881845Y-113402976D01*
%TO.C,D22*%
X244546130Y-111498214D02*
X243546130Y-111498214D01*
X243546130Y-111736309D01*
X243593750Y-111879166D01*
X243688988Y-111974404D01*
X243784226Y-112022023D01*
X243974702Y-112069642D01*
X244117559Y-112069642D01*
X244308035Y-112022023D01*
X244403273Y-111974404D01*
X244498511Y-111879166D01*
X244546130Y-111736309D01*
X244546130Y-111498214D01*
X243641369Y-112450595D02*
X243593750Y-112498214D01*
X243546130Y-112593452D01*
X243546130Y-112831547D01*
X243593750Y-112926785D01*
X243641369Y-112974404D01*
X243736607Y-113022023D01*
X243831845Y-113022023D01*
X243974702Y-112974404D01*
X244546130Y-112402976D01*
X244546130Y-113022023D01*
X243641369Y-113402976D02*
X243593750Y-113450595D01*
X243546130Y-113545833D01*
X243546130Y-113783928D01*
X243593750Y-113879166D01*
X243641369Y-113926785D01*
X243736607Y-113974404D01*
X243831845Y-113974404D01*
X243974702Y-113926785D01*
X244546130Y-113355357D01*
X244546130Y-113974404D01*
%TO.C,D4*%
X206446130Y-73874404D02*
X205446130Y-73874404D01*
X205446130Y-74112500D01*
X205493750Y-74255357D01*
X205588988Y-74350595D01*
X205684226Y-74398214D01*
X205874702Y-74445833D01*
X206017559Y-74445833D01*
X206208035Y-74398214D01*
X206303273Y-74350595D01*
X206398511Y-74255357D01*
X206446130Y-74112500D01*
X206446130Y-73874404D01*
X205779464Y-75302976D02*
X206446130Y-75302976D01*
X205398511Y-75064880D02*
X206112797Y-74826785D01*
X206112797Y-75445833D01*
%TO.C,D7*%
X149296130Y-73874404D02*
X148296130Y-73874404D01*
X148296130Y-74112500D01*
X148343750Y-74255357D01*
X148438988Y-74350595D01*
X148534226Y-74398214D01*
X148724702Y-74445833D01*
X148867559Y-74445833D01*
X149058035Y-74398214D01*
X149153273Y-74350595D01*
X149248511Y-74255357D01*
X149296130Y-74112500D01*
X149296130Y-73874404D01*
X148296130Y-74779166D02*
X148296130Y-75445833D01*
X149296130Y-75017261D01*
%TO.C,U1*%
X64522309Y-93687107D02*
X64408023Y-93725202D01*
X64369928Y-93763297D01*
X64331833Y-93839488D01*
X64331833Y-93953773D01*
X64369928Y-94029964D01*
X64408023Y-94068059D01*
X64484214Y-94106154D01*
X64788976Y-94106154D01*
X64788976Y-93306154D01*
X64522309Y-93306154D01*
X64446119Y-93344250D01*
X64408023Y-93382345D01*
X64369928Y-93458535D01*
X64369928Y-93534726D01*
X64408023Y-93610916D01*
X64446119Y-93649011D01*
X64522309Y-93687107D01*
X64788976Y-93687107D01*
X63646119Y-93306154D02*
X63798500Y-93306154D01*
X63874690Y-93344250D01*
X63912785Y-93382345D01*
X63988976Y-93496630D01*
X64027071Y-93649011D01*
X64027071Y-93953773D01*
X63988976Y-94029964D01*
X63950880Y-94068059D01*
X63874690Y-94106154D01*
X63722309Y-94106154D01*
X63646119Y-94068059D01*
X63608023Y-94029964D01*
X63569928Y-93953773D01*
X63569928Y-93763297D01*
X63608023Y-93687107D01*
X63646119Y-93649011D01*
X63722309Y-93610916D01*
X63874690Y-93610916D01*
X63950880Y-93649011D01*
X63988976Y-93687107D01*
X64027071Y-93763297D01*
X53866976Y-86486154D02*
X53866976Y-85686154D01*
X53676500Y-85686154D01*
X53562214Y-85724250D01*
X53486023Y-85800440D01*
X53447928Y-85876630D01*
X53409833Y-86029011D01*
X53409833Y-86143297D01*
X53447928Y-86295678D01*
X53486023Y-86371869D01*
X53562214Y-86448059D01*
X53676500Y-86486154D01*
X53866976Y-86486154D01*
X53143166Y-85686154D02*
X52609833Y-85686154D01*
X52952690Y-86486154D01*
X53886023Y-70484250D02*
X53962214Y-70446154D01*
X54076500Y-70446154D01*
X54190785Y-70484250D01*
X54266976Y-70560440D01*
X54305071Y-70636630D01*
X54343166Y-70789011D01*
X54343166Y-70903297D01*
X54305071Y-71055678D01*
X54266976Y-71131869D01*
X54190785Y-71208059D01*
X54076500Y-71246154D01*
X54000309Y-71246154D01*
X53886023Y-71208059D01*
X53847928Y-71169964D01*
X53847928Y-70903297D01*
X54000309Y-70903297D01*
X53505071Y-71246154D02*
X53505071Y-70446154D01*
X53047928Y-71246154D01*
X53047928Y-70446154D01*
X52666976Y-71246154D02*
X52666976Y-70446154D01*
X52476500Y-70446154D01*
X52362214Y-70484250D01*
X52286023Y-70560440D01*
X52247928Y-70636630D01*
X52209833Y-70789011D01*
X52209833Y-70903297D01*
X52247928Y-71055678D01*
X52286023Y-71131869D01*
X52362214Y-71208059D01*
X52476500Y-71246154D01*
X52666976Y-71246154D01*
X57356104Y-65366154D02*
X56898961Y-65366154D01*
X57127532Y-66166154D02*
X57127532Y-65366154D01*
X56708485Y-65366154D02*
X56175151Y-66166154D01*
X56175151Y-65366154D02*
X56708485Y-66166154D01*
X55718008Y-65366154D02*
X55641818Y-65366154D01*
X55565628Y-65404250D01*
X55527532Y-65442345D01*
X55489437Y-65518535D01*
X55451342Y-65670916D01*
X55451342Y-65861392D01*
X55489437Y-66013773D01*
X55527532Y-66089964D01*
X55565628Y-66128059D01*
X55641818Y-66166154D01*
X55718008Y-66166154D01*
X55794199Y-66128059D01*
X55832294Y-66089964D01*
X55870389Y-66013773D01*
X55908485Y-65861392D01*
X55908485Y-65670916D01*
X55870389Y-65518535D01*
X55832294Y-65442345D01*
X55794199Y-65404250D01*
X55718008Y-65366154D01*
X54537056Y-65328059D02*
X55222770Y-66356630D01*
X54270389Y-66166154D02*
X54270389Y-65366154D01*
X54079913Y-65366154D01*
X53965628Y-65404250D01*
X53889437Y-65480440D01*
X53851342Y-65556630D01*
X53813247Y-65709011D01*
X53813247Y-65823297D01*
X53851342Y-65975678D01*
X53889437Y-66051869D01*
X53965628Y-66128059D01*
X54079913Y-66166154D01*
X54270389Y-66166154D01*
X53546580Y-65366154D02*
X53051342Y-65366154D01*
X53318008Y-65670916D01*
X53203723Y-65670916D01*
X53127532Y-65709011D01*
X53089437Y-65747107D01*
X53051342Y-65823297D01*
X53051342Y-66013773D01*
X53089437Y-66089964D01*
X53127532Y-66128059D01*
X53203723Y-66166154D01*
X53432294Y-66166154D01*
X53508485Y-66128059D01*
X53546580Y-66089964D01*
X64522309Y-88607107D02*
X64408023Y-88645202D01*
X64369928Y-88683297D01*
X64331833Y-88759488D01*
X64331833Y-88873773D01*
X64369928Y-88949964D01*
X64408023Y-88988059D01*
X64484214Y-89026154D01*
X64788976Y-89026154D01*
X64788976Y-88226154D01*
X64522309Y-88226154D01*
X64446119Y-88264250D01*
X64408023Y-88302345D01*
X64369928Y-88378535D01*
X64369928Y-88454726D01*
X64408023Y-88530916D01*
X64446119Y-88569011D01*
X64522309Y-88607107D01*
X64788976Y-88607107D01*
X64065166Y-88226154D02*
X63569928Y-88226154D01*
X63836595Y-88530916D01*
X63722309Y-88530916D01*
X63646119Y-88569011D01*
X63608023Y-88607107D01*
X63569928Y-88683297D01*
X63569928Y-88873773D01*
X63608023Y-88949964D01*
X63646119Y-88988059D01*
X63722309Y-89026154D01*
X63950880Y-89026154D01*
X64027071Y-88988059D01*
X64065166Y-88949964D01*
X64522309Y-86067107D02*
X64408023Y-86105202D01*
X64369928Y-86143297D01*
X64331833Y-86219488D01*
X64331833Y-86333773D01*
X64369928Y-86409964D01*
X64408023Y-86448059D01*
X64484214Y-86486154D01*
X64788976Y-86486154D01*
X64788976Y-85686154D01*
X64522309Y-85686154D01*
X64446119Y-85724250D01*
X64408023Y-85762345D01*
X64369928Y-85838535D01*
X64369928Y-85914726D01*
X64408023Y-85990916D01*
X64446119Y-86029011D01*
X64522309Y-86067107D01*
X64788976Y-86067107D01*
X63569928Y-86486154D02*
X64027071Y-86486154D01*
X63798500Y-86486154D02*
X63798500Y-85686154D01*
X63874690Y-85800440D01*
X63950880Y-85876630D01*
X64027071Y-85914726D01*
X53600309Y-91147107D02*
X53486023Y-91185202D01*
X53447928Y-91223297D01*
X53409833Y-91299488D01*
X53409833Y-91413773D01*
X53447928Y-91489964D01*
X53486023Y-91528059D01*
X53562214Y-91566154D01*
X53866976Y-91566154D01*
X53866976Y-90766154D01*
X53600309Y-90766154D01*
X53524119Y-90804250D01*
X53486023Y-90842345D01*
X53447928Y-90918535D01*
X53447928Y-90994726D01*
X53486023Y-91070916D01*
X53524119Y-91109011D01*
X53600309Y-91147107D01*
X53866976Y-91147107D01*
X52724119Y-91032821D02*
X52724119Y-91566154D01*
X52914595Y-90728059D02*
X53105071Y-91299488D01*
X52609833Y-91299488D01*
X64310833Y-71188059D02*
X64196547Y-71226154D01*
X64006071Y-71226154D01*
X63929880Y-71188059D01*
X63891785Y-71149964D01*
X63853690Y-71073773D01*
X63853690Y-70997583D01*
X63891785Y-70921392D01*
X63929880Y-70883297D01*
X64006071Y-70845202D01*
X64158452Y-70807107D01*
X64234642Y-70769011D01*
X64272738Y-70730916D01*
X64310833Y-70654726D01*
X64310833Y-70578535D01*
X64272738Y-70502345D01*
X64234642Y-70464250D01*
X64158452Y-70426154D01*
X63967976Y-70426154D01*
X63853690Y-70464250D01*
X63625119Y-70426154D02*
X63167976Y-70426154D01*
X63396547Y-71226154D02*
X63396547Y-70426154D01*
X53866976Y-78866154D02*
X53866976Y-78066154D01*
X53676500Y-78066154D01*
X53562214Y-78104250D01*
X53486023Y-78180440D01*
X53447928Y-78256630D01*
X53409833Y-78409011D01*
X53409833Y-78523297D01*
X53447928Y-78675678D01*
X53486023Y-78751869D01*
X53562214Y-78828059D01*
X53676500Y-78866154D01*
X53866976Y-78866154D01*
X52914595Y-78066154D02*
X52838404Y-78066154D01*
X52762214Y-78104250D01*
X52724119Y-78142345D01*
X52686023Y-78218535D01*
X52647928Y-78370916D01*
X52647928Y-78561392D01*
X52686023Y-78713773D01*
X52724119Y-78789964D01*
X52762214Y-78828059D01*
X52838404Y-78866154D01*
X52914595Y-78866154D01*
X52990785Y-78828059D01*
X53028880Y-78789964D01*
X53066976Y-78713773D01*
X53105071Y-78561392D01*
X53105071Y-78370916D01*
X53066976Y-78218535D01*
X53028880Y-78142345D01*
X52990785Y-78104250D01*
X52914595Y-78066154D01*
X64465166Y-78447107D02*
X64731833Y-78447107D01*
X64731833Y-78866154D02*
X64731833Y-78066154D01*
X64350880Y-78066154D01*
X63665166Y-78066154D02*
X64046119Y-78066154D01*
X64084214Y-78447107D01*
X64046119Y-78409011D01*
X63969928Y-78370916D01*
X63779452Y-78370916D01*
X63703261Y-78409011D01*
X63665166Y-78447107D01*
X63627071Y-78523297D01*
X63627071Y-78713773D01*
X63665166Y-78789964D01*
X63703261Y-78828059D01*
X63779452Y-78866154D01*
X63969928Y-78866154D01*
X64046119Y-78828059D01*
X64084214Y-78789964D01*
X64465166Y-75907107D02*
X64731833Y-75907107D01*
X64731833Y-76326154D02*
X64731833Y-75526154D01*
X64350880Y-75526154D01*
X63703261Y-75792821D02*
X63703261Y-76326154D01*
X63893738Y-75488059D02*
X64084214Y-76059488D01*
X63588976Y-76059488D01*
X53866976Y-76326154D02*
X53866976Y-75526154D01*
X53676500Y-75526154D01*
X53562214Y-75564250D01*
X53486023Y-75640440D01*
X53447928Y-75716630D01*
X53409833Y-75869011D01*
X53409833Y-75983297D01*
X53447928Y-76135678D01*
X53486023Y-76211869D01*
X53562214Y-76288059D01*
X53676500Y-76326154D01*
X53866976Y-76326154D01*
X52647928Y-76326154D02*
X53105071Y-76326154D01*
X52876500Y-76326154D02*
X52876500Y-75526154D01*
X52952690Y-75640440D01*
X53028880Y-75716630D01*
X53105071Y-75754726D01*
X65265166Y-72986154D02*
X64998500Y-73786154D01*
X64731833Y-72986154D01*
X64008023Y-73709964D02*
X64046119Y-73748059D01*
X64160404Y-73786154D01*
X64236595Y-73786154D01*
X64350880Y-73748059D01*
X64427071Y-73671869D01*
X64465166Y-73595678D01*
X64503261Y-73443297D01*
X64503261Y-73329011D01*
X64465166Y-73176630D01*
X64427071Y-73100440D01*
X64350880Y-73024250D01*
X64236595Y-72986154D01*
X64160404Y-72986154D01*
X64046119Y-73024250D01*
X64008023Y-73062345D01*
X63208023Y-73709964D02*
X63246119Y-73748059D01*
X63360404Y-73786154D01*
X63436595Y-73786154D01*
X63550880Y-73748059D01*
X63627071Y-73671869D01*
X63665166Y-73595678D01*
X63703261Y-73443297D01*
X63703261Y-73329011D01*
X63665166Y-73176630D01*
X63627071Y-73100440D01*
X63550880Y-73024250D01*
X63436595Y-72986154D01*
X63360404Y-72986154D01*
X63246119Y-73024250D01*
X63208023Y-73062345D01*
X64808023Y-67944250D02*
X64884214Y-67906154D01*
X64998500Y-67906154D01*
X65112785Y-67944250D01*
X65188976Y-68020440D01*
X65227071Y-68096630D01*
X65265166Y-68249011D01*
X65265166Y-68363297D01*
X65227071Y-68515678D01*
X65188976Y-68591869D01*
X65112785Y-68668059D01*
X64998500Y-68706154D01*
X64922309Y-68706154D01*
X64808023Y-68668059D01*
X64769928Y-68629964D01*
X64769928Y-68363297D01*
X64922309Y-68363297D01*
X64427071Y-68706154D02*
X64427071Y-67906154D01*
X63969928Y-68706154D01*
X63969928Y-67906154D01*
X63588976Y-68706154D02*
X63588976Y-67906154D01*
X63398500Y-67906154D01*
X63284214Y-67944250D01*
X63208023Y-68020440D01*
X63169928Y-68096630D01*
X63131833Y-68249011D01*
X63131833Y-68363297D01*
X63169928Y-68515678D01*
X63208023Y-68591869D01*
X63284214Y-68668059D01*
X63398500Y-68706154D01*
X63588976Y-68706154D01*
X64522309Y-91147107D02*
X64408023Y-91185202D01*
X64369928Y-91223297D01*
X64331833Y-91299488D01*
X64331833Y-91413773D01*
X64369928Y-91489964D01*
X64408023Y-91528059D01*
X64484214Y-91566154D01*
X64788976Y-91566154D01*
X64788976Y-90766154D01*
X64522309Y-90766154D01*
X64446119Y-90804250D01*
X64408023Y-90842345D01*
X64369928Y-90918535D01*
X64369928Y-90994726D01*
X64408023Y-91070916D01*
X64446119Y-91109011D01*
X64522309Y-91147107D01*
X64788976Y-91147107D01*
X64027071Y-90842345D02*
X63988976Y-90804250D01*
X63912785Y-90766154D01*
X63722309Y-90766154D01*
X63646119Y-90804250D01*
X63608023Y-90842345D01*
X63569928Y-90918535D01*
X63569928Y-90994726D01*
X63608023Y-91109011D01*
X64065166Y-91566154D01*
X63569928Y-91566154D01*
X64750880Y-66166154D02*
X65017547Y-65785202D01*
X65208023Y-66166154D02*
X65208023Y-65366154D01*
X64903261Y-65366154D01*
X64827071Y-65404250D01*
X64788976Y-65442345D01*
X64750880Y-65518535D01*
X64750880Y-65632821D01*
X64788976Y-65709011D01*
X64827071Y-65747107D01*
X64903261Y-65785202D01*
X65208023Y-65785202D01*
X64446119Y-65937583D02*
X64065166Y-65937583D01*
X64522309Y-66166154D02*
X64255642Y-65366154D01*
X63988976Y-66166154D01*
X63798500Y-65366154D02*
X63608023Y-66166154D01*
X63455642Y-65594726D01*
X63303261Y-66166154D01*
X63112785Y-65366154D01*
X53886023Y-73024250D02*
X53962214Y-72986154D01*
X54076500Y-72986154D01*
X54190785Y-73024250D01*
X54266976Y-73100440D01*
X54305071Y-73176630D01*
X54343166Y-73329011D01*
X54343166Y-73443297D01*
X54305071Y-73595678D01*
X54266976Y-73671869D01*
X54190785Y-73748059D01*
X54076500Y-73786154D01*
X54000309Y-73786154D01*
X53886023Y-73748059D01*
X53847928Y-73709964D01*
X53847928Y-73443297D01*
X54000309Y-73443297D01*
X53505071Y-73786154D02*
X53505071Y-72986154D01*
X53047928Y-73786154D01*
X53047928Y-72986154D01*
X52666976Y-73786154D02*
X52666976Y-72986154D01*
X52476500Y-72986154D01*
X52362214Y-73024250D01*
X52286023Y-73100440D01*
X52247928Y-73176630D01*
X52209833Y-73329011D01*
X52209833Y-73443297D01*
X52247928Y-73595678D01*
X52286023Y-73671869D01*
X52362214Y-73748059D01*
X52476500Y-73786154D01*
X52666976Y-73786154D01*
X53828880Y-88607107D02*
X53562214Y-88607107D01*
X53447928Y-89026154D02*
X53828880Y-89026154D01*
X53828880Y-88226154D01*
X53447928Y-88226154D01*
X52762214Y-88226154D02*
X52914595Y-88226154D01*
X52990785Y-88264250D01*
X53028880Y-88302345D01*
X53105071Y-88416630D01*
X53143166Y-88569011D01*
X53143166Y-88873773D01*
X53105071Y-88949964D01*
X53066976Y-88988059D01*
X52990785Y-89026154D01*
X52838404Y-89026154D01*
X52762214Y-88988059D01*
X52724119Y-88949964D01*
X52686023Y-88873773D01*
X52686023Y-88683297D01*
X52724119Y-88607107D01*
X52762214Y-88569011D01*
X52838404Y-88530916D01*
X52990785Y-88530916D01*
X53066976Y-88569011D01*
X53105071Y-88607107D01*
X53143166Y-88683297D01*
X64465166Y-83527107D02*
X64731833Y-83527107D01*
X64731833Y-83946154D02*
X64731833Y-83146154D01*
X64350880Y-83146154D01*
X64122309Y-83146154D02*
X63588976Y-83146154D01*
X63931833Y-83946154D01*
X53409833Y-83869964D02*
X53447928Y-83908059D01*
X53562214Y-83946154D01*
X53638404Y-83946154D01*
X53752690Y-83908059D01*
X53828880Y-83831869D01*
X53866976Y-83755678D01*
X53905071Y-83603297D01*
X53905071Y-83489011D01*
X53866976Y-83336630D01*
X53828880Y-83260440D01*
X53752690Y-83184250D01*
X53638404Y-83146154D01*
X53562214Y-83146154D01*
X53447928Y-83184250D01*
X53409833Y-83222345D01*
X52724119Y-83146154D02*
X52876500Y-83146154D01*
X52952690Y-83184250D01*
X52990785Y-83222345D01*
X53066976Y-83336630D01*
X53105071Y-83489011D01*
X53105071Y-83793773D01*
X53066976Y-83869964D01*
X53028880Y-83908059D01*
X52952690Y-83946154D01*
X52800309Y-83946154D01*
X52724119Y-83908059D01*
X52686023Y-83869964D01*
X52647928Y-83793773D01*
X52647928Y-83603297D01*
X52686023Y-83527107D01*
X52724119Y-83489011D01*
X52800309Y-83450916D01*
X52952690Y-83450916D01*
X53028880Y-83489011D01*
X53066976Y-83527107D01*
X53105071Y-83603297D01*
X64465166Y-80987107D02*
X64731833Y-80987107D01*
X64731833Y-81406154D02*
X64731833Y-80606154D01*
X64350880Y-80606154D01*
X63703261Y-80606154D02*
X63855642Y-80606154D01*
X63931833Y-80644250D01*
X63969928Y-80682345D01*
X64046119Y-80796630D01*
X64084214Y-80949011D01*
X64084214Y-81253773D01*
X64046119Y-81329964D01*
X64008023Y-81368059D01*
X63931833Y-81406154D01*
X63779452Y-81406154D01*
X63703261Y-81368059D01*
X63665166Y-81329964D01*
X63627071Y-81253773D01*
X63627071Y-81063297D01*
X63665166Y-80987107D01*
X63703261Y-80949011D01*
X63779452Y-80910916D01*
X63931833Y-80910916D01*
X64008023Y-80949011D01*
X64046119Y-80987107D01*
X64084214Y-81063297D01*
X53866976Y-81406154D02*
X53866976Y-80606154D01*
X53676500Y-80606154D01*
X53562214Y-80644250D01*
X53486023Y-80720440D01*
X53447928Y-80796630D01*
X53409833Y-80949011D01*
X53409833Y-81063297D01*
X53447928Y-81215678D01*
X53486023Y-81291869D01*
X53562214Y-81368059D01*
X53676500Y-81406154D01*
X53866976Y-81406154D01*
X52724119Y-80872821D02*
X52724119Y-81406154D01*
X52914595Y-80568059D02*
X53105071Y-81139488D01*
X52609833Y-81139488D01*
X53866976Y-68706154D02*
X53866976Y-67906154D01*
X53676500Y-67906154D01*
X53562214Y-67944250D01*
X53486023Y-68020440D01*
X53447928Y-68096630D01*
X53409833Y-68249011D01*
X53409833Y-68363297D01*
X53447928Y-68515678D01*
X53486023Y-68591869D01*
X53562214Y-68668059D01*
X53676500Y-68706154D01*
X53866976Y-68706154D01*
X53105071Y-67982345D02*
X53066976Y-67944250D01*
X52990785Y-67906154D01*
X52800309Y-67906154D01*
X52724119Y-67944250D01*
X52686023Y-67982345D01*
X52647928Y-68058535D01*
X52647928Y-68134726D01*
X52686023Y-68249011D01*
X53143166Y-68706154D01*
X52647928Y-68706154D01*
X53600309Y-93687107D02*
X53486023Y-93725202D01*
X53447928Y-93763297D01*
X53409833Y-93839488D01*
X53409833Y-93953773D01*
X53447928Y-94029964D01*
X53486023Y-94068059D01*
X53562214Y-94106154D01*
X53866976Y-94106154D01*
X53866976Y-93306154D01*
X53600309Y-93306154D01*
X53524119Y-93344250D01*
X53486023Y-93382345D01*
X53447928Y-93458535D01*
X53447928Y-93534726D01*
X53486023Y-93610916D01*
X53524119Y-93649011D01*
X53600309Y-93687107D01*
X53866976Y-93687107D01*
X52686023Y-93306154D02*
X53066976Y-93306154D01*
X53105071Y-93687107D01*
X53066976Y-93649011D01*
X52990785Y-93610916D01*
X52800309Y-93610916D01*
X52724119Y-93649011D01*
X52686023Y-93687107D01*
X52647928Y-93763297D01*
X52647928Y-93953773D01*
X52686023Y-94029964D01*
X52724119Y-94068059D01*
X52800309Y-94106154D01*
X52990785Y-94106154D01*
X53066976Y-94068059D01*
X53105071Y-94029964D01*
%TO.C,D12*%
X244546130Y-92448214D02*
X243546130Y-92448214D01*
X243546130Y-92686309D01*
X243593750Y-92829166D01*
X243688988Y-92924404D01*
X243784226Y-92972023D01*
X243974702Y-93019642D01*
X244117559Y-93019642D01*
X244308035Y-92972023D01*
X244403273Y-92924404D01*
X244498511Y-92829166D01*
X244546130Y-92686309D01*
X244546130Y-92448214D01*
X244546130Y-93972023D02*
X244546130Y-93400595D01*
X244546130Y-93686309D02*
X243546130Y-93686309D01*
X243688988Y-93591071D01*
X243784226Y-93495833D01*
X243831845Y-93400595D01*
X243641369Y-94352976D02*
X243593750Y-94400595D01*
X243546130Y-94495833D01*
X243546130Y-94733928D01*
X243593750Y-94829166D01*
X243641369Y-94876785D01*
X243736607Y-94924404D01*
X243831845Y-94924404D01*
X243974702Y-94876785D01*
X244546130Y-94305357D01*
X244546130Y-94924404D01*
%TO.C,D24*%
X206446130Y-111498214D02*
X205446130Y-111498214D01*
X205446130Y-111736309D01*
X205493750Y-111879166D01*
X205588988Y-111974404D01*
X205684226Y-112022023D01*
X205874702Y-112069642D01*
X206017559Y-112069642D01*
X206208035Y-112022023D01*
X206303273Y-111974404D01*
X206398511Y-111879166D01*
X206446130Y-111736309D01*
X206446130Y-111498214D01*
X205541369Y-112450595D02*
X205493750Y-112498214D01*
X205446130Y-112593452D01*
X205446130Y-112831547D01*
X205493750Y-112926785D01*
X205541369Y-112974404D01*
X205636607Y-113022023D01*
X205731845Y-113022023D01*
X205874702Y-112974404D01*
X206446130Y-112402976D01*
X206446130Y-113022023D01*
X205779464Y-113879166D02*
X206446130Y-113879166D01*
X205398511Y-113641071D02*
X206112797Y-113402976D01*
X206112797Y-114022023D01*
%TO.C,D23*%
X225496130Y-111498214D02*
X224496130Y-111498214D01*
X224496130Y-111736309D01*
X224543750Y-111879166D01*
X224638988Y-111974404D01*
X224734226Y-112022023D01*
X224924702Y-112069642D01*
X225067559Y-112069642D01*
X225258035Y-112022023D01*
X225353273Y-111974404D01*
X225448511Y-111879166D01*
X225496130Y-111736309D01*
X225496130Y-111498214D01*
X224591369Y-112450595D02*
X224543750Y-112498214D01*
X224496130Y-112593452D01*
X224496130Y-112831547D01*
X224543750Y-112926785D01*
X224591369Y-112974404D01*
X224686607Y-113022023D01*
X224781845Y-113022023D01*
X224924702Y-112974404D01*
X225496130Y-112402976D01*
X225496130Y-113022023D01*
X224496130Y-113355357D02*
X224496130Y-113974404D01*
X224877083Y-113641071D01*
X224877083Y-113783928D01*
X224924702Y-113879166D01*
X224972321Y-113926785D01*
X225067559Y-113974404D01*
X225305654Y-113974404D01*
X225400892Y-113926785D01*
X225448511Y-113879166D01*
X225496130Y-113783928D01*
X225496130Y-113498214D01*
X225448511Y-113402976D01*
X225400892Y-113355357D01*
%TO.C,D14*%
X206446130Y-92448214D02*
X205446130Y-92448214D01*
X205446130Y-92686309D01*
X205493750Y-92829166D01*
X205588988Y-92924404D01*
X205684226Y-92972023D01*
X205874702Y-93019642D01*
X206017559Y-93019642D01*
X206208035Y-92972023D01*
X206303273Y-92924404D01*
X206398511Y-92829166D01*
X206446130Y-92686309D01*
X206446130Y-92448214D01*
X206446130Y-93972023D02*
X206446130Y-93400595D01*
X206446130Y-93686309D02*
X205446130Y-93686309D01*
X205588988Y-93591071D01*
X205684226Y-93495833D01*
X205731845Y-93400595D01*
X205779464Y-94829166D02*
X206446130Y-94829166D01*
X205398511Y-94591071D02*
X206112797Y-94352976D01*
X206112797Y-94972023D01*
%TO.C,D10*%
X92146130Y-73398214D02*
X91146130Y-73398214D01*
X91146130Y-73636309D01*
X91193750Y-73779166D01*
X91288988Y-73874404D01*
X91384226Y-73922023D01*
X91574702Y-73969642D01*
X91717559Y-73969642D01*
X91908035Y-73922023D01*
X92003273Y-73874404D01*
X92098511Y-73779166D01*
X92146130Y-73636309D01*
X92146130Y-73398214D01*
X92146130Y-74922023D02*
X92146130Y-74350595D01*
X92146130Y-74636309D02*
X91146130Y-74636309D01*
X91288988Y-74541071D01*
X91384226Y-74445833D01*
X91431845Y-74350595D01*
X91146130Y-75541071D02*
X91146130Y-75636309D01*
X91193750Y-75731547D01*
X91241369Y-75779166D01*
X91336607Y-75826785D01*
X91527083Y-75874404D01*
X91765178Y-75874404D01*
X91955654Y-75826785D01*
X92050892Y-75779166D01*
X92098511Y-75731547D01*
X92146130Y-75636309D01*
X92146130Y-75541071D01*
X92098511Y-75445833D01*
X92050892Y-75398214D01*
X91955654Y-75350595D01*
X91765178Y-75302976D01*
X91527083Y-75302976D01*
X91336607Y-75350595D01*
X91241369Y-75398214D01*
X91193750Y-75445833D01*
X91146130Y-75541071D01*
%TO.C,D27*%
X130246130Y-111498214D02*
X129246130Y-111498214D01*
X129246130Y-111736309D01*
X129293750Y-111879166D01*
X129388988Y-111974404D01*
X129484226Y-112022023D01*
X129674702Y-112069642D01*
X129817559Y-112069642D01*
X130008035Y-112022023D01*
X130103273Y-111974404D01*
X130198511Y-111879166D01*
X130246130Y-111736309D01*
X130246130Y-111498214D01*
X129341369Y-112450595D02*
X129293750Y-112498214D01*
X129246130Y-112593452D01*
X129246130Y-112831547D01*
X129293750Y-112926785D01*
X129341369Y-112974404D01*
X129436607Y-113022023D01*
X129531845Y-113022023D01*
X129674702Y-112974404D01*
X130246130Y-112402976D01*
X130246130Y-113022023D01*
X129246130Y-113355357D02*
X129246130Y-114022023D01*
X130246130Y-113593452D01*
%TO.C,D19*%
X111196130Y-92448214D02*
X110196130Y-92448214D01*
X110196130Y-92686309D01*
X110243750Y-92829166D01*
X110338988Y-92924404D01*
X110434226Y-92972023D01*
X110624702Y-93019642D01*
X110767559Y-93019642D01*
X110958035Y-92972023D01*
X111053273Y-92924404D01*
X111148511Y-92829166D01*
X111196130Y-92686309D01*
X111196130Y-92448214D01*
X111196130Y-93972023D02*
X111196130Y-93400595D01*
X111196130Y-93686309D02*
X110196130Y-93686309D01*
X110338988Y-93591071D01*
X110434226Y-93495833D01*
X110481845Y-93400595D01*
X111196130Y-94448214D02*
X111196130Y-94638690D01*
X111148511Y-94733928D01*
X111100892Y-94781547D01*
X110958035Y-94876785D01*
X110767559Y-94924404D01*
X110386607Y-94924404D01*
X110291369Y-94876785D01*
X110243750Y-94829166D01*
X110196130Y-94733928D01*
X110196130Y-94543452D01*
X110243750Y-94448214D01*
X110291369Y-94400595D01*
X110386607Y-94352976D01*
X110624702Y-94352976D01*
X110719940Y-94400595D01*
X110767559Y-94448214D01*
X110815178Y-94543452D01*
X110815178Y-94733928D01*
X110767559Y-94829166D01*
X110719940Y-94876785D01*
X110624702Y-94924404D01*
%TO.C,D28*%
X111196130Y-111498214D02*
X110196130Y-111498214D01*
X110196130Y-111736309D01*
X110243750Y-111879166D01*
X110338988Y-111974404D01*
X110434226Y-112022023D01*
X110624702Y-112069642D01*
X110767559Y-112069642D01*
X110958035Y-112022023D01*
X111053273Y-111974404D01*
X111148511Y-111879166D01*
X111196130Y-111736309D01*
X111196130Y-111498214D01*
X110291369Y-112450595D02*
X110243750Y-112498214D01*
X110196130Y-112593452D01*
X110196130Y-112831547D01*
X110243750Y-112926785D01*
X110291369Y-112974404D01*
X110386607Y-113022023D01*
X110481845Y-113022023D01*
X110624702Y-112974404D01*
X111196130Y-112402976D01*
X111196130Y-113022023D01*
X110624702Y-113593452D02*
X110577083Y-113498214D01*
X110529464Y-113450595D01*
X110434226Y-113402976D01*
X110386607Y-113402976D01*
X110291369Y-113450595D01*
X110243750Y-113498214D01*
X110196130Y-113593452D01*
X110196130Y-113783928D01*
X110243750Y-113879166D01*
X110291369Y-113926785D01*
X110386607Y-113974404D01*
X110434226Y-113974404D01*
X110529464Y-113926785D01*
X110577083Y-113879166D01*
X110624702Y-113783928D01*
X110624702Y-113593452D01*
X110672321Y-113498214D01*
X110719940Y-113450595D01*
X110815178Y-113402976D01*
X111005654Y-113402976D01*
X111100892Y-113450595D01*
X111148511Y-113498214D01*
X111196130Y-113593452D01*
X111196130Y-113783928D01*
X111148511Y-113879166D01*
X111100892Y-113926785D01*
X111005654Y-113974404D01*
X110815178Y-113974404D01*
X110719940Y-113926785D01*
X110672321Y-113879166D01*
X110624702Y-113783928D01*
%TO.C,D9*%
X111196130Y-73874404D02*
X110196130Y-73874404D01*
X110196130Y-74112500D01*
X110243750Y-74255357D01*
X110338988Y-74350595D01*
X110434226Y-74398214D01*
X110624702Y-74445833D01*
X110767559Y-74445833D01*
X110958035Y-74398214D01*
X111053273Y-74350595D01*
X111148511Y-74255357D01*
X111196130Y-74112500D01*
X111196130Y-73874404D01*
X111196130Y-74922023D02*
X111196130Y-75112500D01*
X111148511Y-75207738D01*
X111100892Y-75255357D01*
X110958035Y-75350595D01*
X110767559Y-75398214D01*
X110386607Y-75398214D01*
X110291369Y-75350595D01*
X110243750Y-75302976D01*
X110196130Y-75207738D01*
X110196130Y-75017261D01*
X110243750Y-74922023D01*
X110291369Y-74874404D01*
X110386607Y-74826785D01*
X110624702Y-74826785D01*
X110719940Y-74874404D01*
X110767559Y-74922023D01*
X110815178Y-75017261D01*
X110815178Y-75207738D01*
X110767559Y-75302976D01*
X110719940Y-75350595D01*
X110624702Y-75398214D01*
%TO.C,D20*%
X92146130Y-92448214D02*
X91146130Y-92448214D01*
X91146130Y-92686309D01*
X91193750Y-92829166D01*
X91288988Y-92924404D01*
X91384226Y-92972023D01*
X91574702Y-93019642D01*
X91717559Y-93019642D01*
X91908035Y-92972023D01*
X92003273Y-92924404D01*
X92098511Y-92829166D01*
X92146130Y-92686309D01*
X92146130Y-92448214D01*
X91241369Y-93400595D02*
X91193750Y-93448214D01*
X91146130Y-93543452D01*
X91146130Y-93781547D01*
X91193750Y-93876785D01*
X91241369Y-93924404D01*
X91336607Y-93972023D01*
X91431845Y-93972023D01*
X91574702Y-93924404D01*
X92146130Y-93352976D01*
X92146130Y-93972023D01*
X91146130Y-94591071D02*
X91146130Y-94686309D01*
X91193750Y-94781547D01*
X91241369Y-94829166D01*
X91336607Y-94876785D01*
X91527083Y-94924404D01*
X91765178Y-94924404D01*
X91955654Y-94876785D01*
X92050892Y-94829166D01*
X92098511Y-94781547D01*
X92146130Y-94686309D01*
X92146130Y-94591071D01*
X92098511Y-94495833D01*
X92050892Y-94448214D01*
X91955654Y-94400595D01*
X91765178Y-94352976D01*
X91527083Y-94352976D01*
X91336607Y-94400595D01*
X91241369Y-94448214D01*
X91193750Y-94495833D01*
X91146130Y-94591071D01*
%TO.C,D29*%
X92146130Y-111498214D02*
X91146130Y-111498214D01*
X91146130Y-111736309D01*
X91193750Y-111879166D01*
X91288988Y-111974404D01*
X91384226Y-112022023D01*
X91574702Y-112069642D01*
X91717559Y-112069642D01*
X91908035Y-112022023D01*
X92003273Y-111974404D01*
X92098511Y-111879166D01*
X92146130Y-111736309D01*
X92146130Y-111498214D01*
X91241369Y-112450595D02*
X91193750Y-112498214D01*
X91146130Y-112593452D01*
X91146130Y-112831547D01*
X91193750Y-112926785D01*
X91241369Y-112974404D01*
X91336607Y-113022023D01*
X91431845Y-113022023D01*
X91574702Y-112974404D01*
X92146130Y-112402976D01*
X92146130Y-113022023D01*
X92146130Y-113498214D02*
X92146130Y-113688690D01*
X92098511Y-113783928D01*
X92050892Y-113831547D01*
X91908035Y-113926785D01*
X91717559Y-113974404D01*
X91336607Y-113974404D01*
X91241369Y-113926785D01*
X91193750Y-113879166D01*
X91146130Y-113783928D01*
X91146130Y-113593452D01*
X91193750Y-113498214D01*
X91241369Y-113450595D01*
X91336607Y-113402976D01*
X91574702Y-113402976D01*
X91669940Y-113450595D01*
X91717559Y-113498214D01*
X91765178Y-113593452D01*
X91765178Y-113783928D01*
X91717559Y-113879166D01*
X91669940Y-113926785D01*
X91574702Y-113974404D01*
%TO.C,D3*%
X225496130Y-73874404D02*
X224496130Y-73874404D01*
X224496130Y-74112500D01*
X224543750Y-74255357D01*
X224638988Y-74350595D01*
X224734226Y-74398214D01*
X224924702Y-74445833D01*
X225067559Y-74445833D01*
X225258035Y-74398214D01*
X225353273Y-74350595D01*
X225448511Y-74255357D01*
X225496130Y-74112500D01*
X225496130Y-73874404D01*
X224496130Y-74779166D02*
X224496130Y-75398214D01*
X224877083Y-75064880D01*
X224877083Y-75207738D01*
X224924702Y-75302976D01*
X224972321Y-75350595D01*
X225067559Y-75398214D01*
X225305654Y-75398214D01*
X225400892Y-75350595D01*
X225448511Y-75302976D01*
X225496130Y-75207738D01*
X225496130Y-74922023D01*
X225448511Y-74826785D01*
X225400892Y-74779166D01*
%TO.C,D15*%
X187396130Y-92448214D02*
X186396130Y-92448214D01*
X186396130Y-92686309D01*
X186443750Y-92829166D01*
X186538988Y-92924404D01*
X186634226Y-92972023D01*
X186824702Y-93019642D01*
X186967559Y-93019642D01*
X187158035Y-92972023D01*
X187253273Y-92924404D01*
X187348511Y-92829166D01*
X187396130Y-92686309D01*
X187396130Y-92448214D01*
X187396130Y-93972023D02*
X187396130Y-93400595D01*
X187396130Y-93686309D02*
X186396130Y-93686309D01*
X186538988Y-93591071D01*
X186634226Y-93495833D01*
X186681845Y-93400595D01*
X186396130Y-94876785D02*
X186396130Y-94400595D01*
X186872321Y-94352976D01*
X186824702Y-94400595D01*
X186777083Y-94495833D01*
X186777083Y-94733928D01*
X186824702Y-94829166D01*
X186872321Y-94876785D01*
X186967559Y-94924404D01*
X187205654Y-94924404D01*
X187300892Y-94876785D01*
X187348511Y-94829166D01*
X187396130Y-94733928D01*
X187396130Y-94495833D01*
X187348511Y-94400595D01*
X187300892Y-94352976D01*
%TO.C,D25*%
X186602380Y-111498214D02*
X185602380Y-111498214D01*
X185602380Y-111736309D01*
X185650000Y-111879166D01*
X185745238Y-111974404D01*
X185840476Y-112022023D01*
X186030952Y-112069642D01*
X186173809Y-112069642D01*
X186364285Y-112022023D01*
X186459523Y-111974404D01*
X186554761Y-111879166D01*
X186602380Y-111736309D01*
X186602380Y-111498214D01*
X185697619Y-112450595D02*
X185650000Y-112498214D01*
X185602380Y-112593452D01*
X185602380Y-112831547D01*
X185650000Y-112926785D01*
X185697619Y-112974404D01*
X185792857Y-113022023D01*
X185888095Y-113022023D01*
X186030952Y-112974404D01*
X186602380Y-112402976D01*
X186602380Y-113022023D01*
X185602380Y-113926785D02*
X185602380Y-113450595D01*
X186078571Y-113402976D01*
X186030952Y-113450595D01*
X185983333Y-113545833D01*
X185983333Y-113783928D01*
X186030952Y-113879166D01*
X186078571Y-113926785D01*
X186173809Y-113974404D01*
X186411904Y-113974404D01*
X186507142Y-113926785D01*
X186554761Y-113879166D01*
X186602380Y-113783928D01*
X186602380Y-113545833D01*
X186554761Y-113450595D01*
X186507142Y-113402976D01*
%TO.C,D16*%
X168346130Y-92448214D02*
X167346130Y-92448214D01*
X167346130Y-92686309D01*
X167393750Y-92829166D01*
X167488988Y-92924404D01*
X167584226Y-92972023D01*
X167774702Y-93019642D01*
X167917559Y-93019642D01*
X168108035Y-92972023D01*
X168203273Y-92924404D01*
X168298511Y-92829166D01*
X168346130Y-92686309D01*
X168346130Y-92448214D01*
X168346130Y-93972023D02*
X168346130Y-93400595D01*
X168346130Y-93686309D02*
X167346130Y-93686309D01*
X167488988Y-93591071D01*
X167584226Y-93495833D01*
X167631845Y-93400595D01*
X167346130Y-94829166D02*
X167346130Y-94638690D01*
X167393750Y-94543452D01*
X167441369Y-94495833D01*
X167584226Y-94400595D01*
X167774702Y-94352976D01*
X168155654Y-94352976D01*
X168250892Y-94400595D01*
X168298511Y-94448214D01*
X168346130Y-94543452D01*
X168346130Y-94733928D01*
X168298511Y-94829166D01*
X168250892Y-94876785D01*
X168155654Y-94924404D01*
X167917559Y-94924404D01*
X167822321Y-94876785D01*
X167774702Y-94829166D01*
X167727083Y-94733928D01*
X167727083Y-94543452D01*
X167774702Y-94448214D01*
X167822321Y-94400595D01*
X167917559Y-94352976D01*
%TO.C,D13*%
X225496130Y-92448214D02*
X224496130Y-92448214D01*
X224496130Y-92686309D01*
X224543750Y-92829166D01*
X224638988Y-92924404D01*
X224734226Y-92972023D01*
X224924702Y-93019642D01*
X225067559Y-93019642D01*
X225258035Y-92972023D01*
X225353273Y-92924404D01*
X225448511Y-92829166D01*
X225496130Y-92686309D01*
X225496130Y-92448214D01*
X225496130Y-93972023D02*
X225496130Y-93400595D01*
X225496130Y-93686309D02*
X224496130Y-93686309D01*
X224638988Y-93591071D01*
X224734226Y-93495833D01*
X224781845Y-93400595D01*
X224496130Y-94305357D02*
X224496130Y-94924404D01*
X224877083Y-94591071D01*
X224877083Y-94733928D01*
X224924702Y-94829166D01*
X224972321Y-94876785D01*
X225067559Y-94924404D01*
X225305654Y-94924404D01*
X225400892Y-94876785D01*
X225448511Y-94829166D01*
X225496130Y-94733928D01*
X225496130Y-94448214D01*
X225448511Y-94352976D01*
X225400892Y-94305357D01*
%TO.C,D11*%
X263596130Y-92448214D02*
X262596130Y-92448214D01*
X262596130Y-92686309D01*
X262643750Y-92829166D01*
X262738988Y-92924404D01*
X262834226Y-92972023D01*
X263024702Y-93019642D01*
X263167559Y-93019642D01*
X263358035Y-92972023D01*
X263453273Y-92924404D01*
X263548511Y-92829166D01*
X263596130Y-92686309D01*
X263596130Y-92448214D01*
X263596130Y-93972023D02*
X263596130Y-93400595D01*
X263596130Y-93686309D02*
X262596130Y-93686309D01*
X262738988Y-93591071D01*
X262834226Y-93495833D01*
X262881845Y-93400595D01*
X263596130Y-94924404D02*
X263596130Y-94352976D01*
X263596130Y-94638690D02*
X262596130Y-94638690D01*
X262738988Y-94543452D01*
X262834226Y-94448214D01*
X262881845Y-94352976D01*
%TO.C,D26*%
X149296130Y-111498214D02*
X148296130Y-111498214D01*
X148296130Y-111736309D01*
X148343750Y-111879166D01*
X148438988Y-111974404D01*
X148534226Y-112022023D01*
X148724702Y-112069642D01*
X148867559Y-112069642D01*
X149058035Y-112022023D01*
X149153273Y-111974404D01*
X149248511Y-111879166D01*
X149296130Y-111736309D01*
X149296130Y-111498214D01*
X148391369Y-112450595D02*
X148343750Y-112498214D01*
X148296130Y-112593452D01*
X148296130Y-112831547D01*
X148343750Y-112926785D01*
X148391369Y-112974404D01*
X148486607Y-113022023D01*
X148581845Y-113022023D01*
X148724702Y-112974404D01*
X149296130Y-112402976D01*
X149296130Y-113022023D01*
X148296130Y-113879166D02*
X148296130Y-113688690D01*
X148343750Y-113593452D01*
X148391369Y-113545833D01*
X148534226Y-113450595D01*
X148724702Y-113402976D01*
X149105654Y-113402976D01*
X149200892Y-113450595D01*
X149248511Y-113498214D01*
X149296130Y-113593452D01*
X149296130Y-113783928D01*
X149248511Y-113879166D01*
X149200892Y-113926785D01*
X149105654Y-113974404D01*
X148867559Y-113974404D01*
X148772321Y-113926785D01*
X148724702Y-113879166D01*
X148677083Y-113783928D01*
X148677083Y-113593452D01*
X148724702Y-113498214D01*
X148772321Y-113450595D01*
X148867559Y-113402976D01*
%TO.C,D2*%
X244546130Y-73874404D02*
X243546130Y-73874404D01*
X243546130Y-74112500D01*
X243593750Y-74255357D01*
X243688988Y-74350595D01*
X243784226Y-74398214D01*
X243974702Y-74445833D01*
X244117559Y-74445833D01*
X244308035Y-74398214D01*
X244403273Y-74350595D01*
X244498511Y-74255357D01*
X244546130Y-74112500D01*
X244546130Y-73874404D01*
X243641369Y-74826785D02*
X243593750Y-74874404D01*
X243546130Y-74969642D01*
X243546130Y-75207738D01*
X243593750Y-75302976D01*
X243641369Y-75350595D01*
X243736607Y-75398214D01*
X243831845Y-75398214D01*
X243974702Y-75350595D01*
X244546130Y-74779166D01*
X244546130Y-75398214D01*
%TO.C,D8*%
X130246130Y-73874404D02*
X129246130Y-73874404D01*
X129246130Y-74112500D01*
X129293750Y-74255357D01*
X129388988Y-74350595D01*
X129484226Y-74398214D01*
X129674702Y-74445833D01*
X129817559Y-74445833D01*
X130008035Y-74398214D01*
X130103273Y-74350595D01*
X130198511Y-74255357D01*
X130246130Y-74112500D01*
X130246130Y-73874404D01*
X129674702Y-75017261D02*
X129627083Y-74922023D01*
X129579464Y-74874404D01*
X129484226Y-74826785D01*
X129436607Y-74826785D01*
X129341369Y-74874404D01*
X129293750Y-74922023D01*
X129246130Y-75017261D01*
X129246130Y-75207738D01*
X129293750Y-75302976D01*
X129341369Y-75350595D01*
X129436607Y-75398214D01*
X129484226Y-75398214D01*
X129579464Y-75350595D01*
X129627083Y-75302976D01*
X129674702Y-75207738D01*
X129674702Y-75017261D01*
X129722321Y-74922023D01*
X129769940Y-74874404D01*
X129865178Y-74826785D01*
X130055654Y-74826785D01*
X130150892Y-74874404D01*
X130198511Y-74922023D01*
X130246130Y-75017261D01*
X130246130Y-75207738D01*
X130198511Y-75302976D01*
X130150892Y-75350595D01*
X130055654Y-75398214D01*
X129865178Y-75398214D01*
X129769940Y-75350595D01*
X129722321Y-75302976D01*
X129674702Y-75207738D01*
%TO.C,D17*%
X149296130Y-92448214D02*
X148296130Y-92448214D01*
X148296130Y-92686309D01*
X148343750Y-92829166D01*
X148438988Y-92924404D01*
X148534226Y-92972023D01*
X148724702Y-93019642D01*
X148867559Y-93019642D01*
X149058035Y-92972023D01*
X149153273Y-92924404D01*
X149248511Y-92829166D01*
X149296130Y-92686309D01*
X149296130Y-92448214D01*
X149296130Y-93972023D02*
X149296130Y-93400595D01*
X149296130Y-93686309D02*
X148296130Y-93686309D01*
X148438988Y-93591071D01*
X148534226Y-93495833D01*
X148581845Y-93400595D01*
X148296130Y-94305357D02*
X148296130Y-94972023D01*
X149296130Y-94543452D01*
%TO.C,D18*%
X130246130Y-92448214D02*
X129246130Y-92448214D01*
X129246130Y-92686309D01*
X129293750Y-92829166D01*
X129388988Y-92924404D01*
X129484226Y-92972023D01*
X129674702Y-93019642D01*
X129817559Y-93019642D01*
X130008035Y-92972023D01*
X130103273Y-92924404D01*
X130198511Y-92829166D01*
X130246130Y-92686309D01*
X130246130Y-92448214D01*
X130246130Y-93972023D02*
X130246130Y-93400595D01*
X130246130Y-93686309D02*
X129246130Y-93686309D01*
X129388988Y-93591071D01*
X129484226Y-93495833D01*
X129531845Y-93400595D01*
X129674702Y-94543452D02*
X129627083Y-94448214D01*
X129579464Y-94400595D01*
X129484226Y-94352976D01*
X129436607Y-94352976D01*
X129341369Y-94400595D01*
X129293750Y-94448214D01*
X129246130Y-94543452D01*
X129246130Y-94733928D01*
X129293750Y-94829166D01*
X129341369Y-94876785D01*
X129436607Y-94924404D01*
X129484226Y-94924404D01*
X129579464Y-94876785D01*
X129627083Y-94829166D01*
X129674702Y-94733928D01*
X129674702Y-94543452D01*
X129722321Y-94448214D01*
X129769940Y-94400595D01*
X129865178Y-94352976D01*
X130055654Y-94352976D01*
X130150892Y-94400595D01*
X130198511Y-94448214D01*
X130246130Y-94543452D01*
X130246130Y-94733928D01*
X130198511Y-94829166D01*
X130150892Y-94876785D01*
X130055654Y-94924404D01*
X129865178Y-94924404D01*
X129769940Y-94876785D01*
X129722321Y-94829166D01*
X129674702Y-94733928D01*
D11*
%TO.C,SW25*%
X167187500Y-104731250D02*
X164144607Y-104731250D01*
X164144607Y-104731257D02*
G75*
G03*
X163144607Y-105731250I-7J-999993D01*
G01*
%TO.C,SW16*%
X157662500Y-85681250D02*
X154619607Y-85681250D01*
X154619607Y-85681257D02*
G75*
G03*
X153619607Y-86681250I-7J-999993D01*
G01*
%TO.C,SW29*%
X81462500Y-104731250D02*
X78419607Y-104731250D01*
X78419607Y-104731257D02*
G75*
G03*
X77419607Y-105731250I-7J-999993D01*
G01*
%TO.C,D1*%
X260143750Y-76862500D02*
X260143750Y-72962500D01*
X262143750Y-76862500D02*
X260143750Y-76862500D01*
X262143750Y-76862500D02*
X262143750Y-72962500D01*
%TO.C,D5*%
X185943750Y-76862500D02*
X183943750Y-76862500D01*
X185943750Y-76862500D02*
X185943750Y-72962500D01*
X183943750Y-76862500D02*
X183943750Y-72962500D01*
%TO.C,SW18*%
X116519607Y-85681257D02*
G75*
G03*
X115519607Y-86681250I-7J-999993D01*
G01*
X119562500Y-85681250D02*
X116519607Y-85681250D01*
%TO.C,D6*%
X164893750Y-76862500D02*
X164893750Y-72962500D01*
X166893750Y-76862500D02*
X166893750Y-72962500D01*
X166893750Y-76862500D02*
X164893750Y-76862500D01*
%TO.C,SW13*%
X214812500Y-85681250D02*
X211769607Y-85681250D01*
X211769607Y-85681257D02*
G75*
G03*
X210769607Y-86681250I-7J-999993D01*
G01*
%TO.C,D21*%
X262143750Y-114962500D02*
X262143750Y-111062500D01*
X262143750Y-114962500D02*
X260143750Y-114962500D01*
X260143750Y-114962500D02*
X260143750Y-111062500D01*
%TO.C,SW9*%
X100512500Y-66631250D02*
X97469607Y-66631250D01*
X97469607Y-66631257D02*
G75*
G03*
X96469607Y-67631250I-7J-999993D01*
G01*
%TO.C,SW3*%
X214812500Y-66631250D02*
X211769607Y-66631250D01*
X211769607Y-66631257D02*
G75*
G03*
X210769607Y-67631250I-7J-999993D01*
G01*
%TO.C,D22*%
X243093750Y-114962500D02*
X243093750Y-111062500D01*
X243093750Y-114962500D02*
X241093750Y-114962500D01*
X241093750Y-114962500D02*
X241093750Y-111062500D01*
%TO.C,SW10*%
X81462500Y-66631250D02*
X78419607Y-66631250D01*
X78419607Y-66631257D02*
G75*
G03*
X77419607Y-67631250I-7J-999993D01*
G01*
%TO.C,SW7*%
X138612500Y-66631250D02*
X135569607Y-66631250D01*
X135569607Y-66631257D02*
G75*
G03*
X134569607Y-67631250I-7J-999993D01*
G01*
%TO.C,SW23*%
X214812500Y-104731250D02*
X211769607Y-104731250D01*
X211769607Y-104731257D02*
G75*
G03*
X210769607Y-105731250I-7J-999993D01*
G01*
%TO.C,D4*%
X202993750Y-76862500D02*
X202993750Y-72962500D01*
X204993750Y-76862500D02*
X202993750Y-76862500D01*
X204993750Y-76862500D02*
X204993750Y-72962500D01*
%TO.C,SW26*%
X138612500Y-104731250D02*
X135569607Y-104731250D01*
X135569607Y-104731257D02*
G75*
G03*
X134569607Y-105731250I-7J-999993D01*
G01*
%TO.C,D7*%
X145843750Y-76862500D02*
X145843750Y-72962500D01*
X147843750Y-76862500D02*
X145843750Y-76862500D01*
X147843750Y-76862500D02*
X147843750Y-72962500D01*
D12*
%TO.C,U1*%
X49847500Y-61994250D02*
X49847500Y-95014250D01*
X67627500Y-61994250D02*
X49847500Y-61994250D01*
X52387500Y-64534250D02*
X52387500Y-67074250D01*
X67627500Y-95014250D02*
X67627500Y-61994250D01*
X52387500Y-67074250D02*
X49847500Y-67074250D01*
X52387500Y-64534250D02*
X49847500Y-64534250D01*
X49847500Y-95014250D02*
X67627500Y-95014250D01*
G36*
X65082135Y-70523280D02*
G01*
X64582135Y-70523280D01*
X64582135Y-70423280D01*
X65082135Y-70423280D01*
X65082135Y-70523280D01*
G37*
D10*
X65082135Y-70523280D02*
X64582135Y-70523280D01*
X64582135Y-70423280D01*
X65082135Y-70423280D01*
X65082135Y-70523280D01*
G36*
X64682135Y-70723280D02*
G01*
X64582135Y-70723280D01*
X64582135Y-70423280D01*
X64682135Y-70423280D01*
X64682135Y-70723280D01*
G37*
X64682135Y-70723280D02*
X64582135Y-70723280D01*
X64582135Y-70423280D01*
X64682135Y-70423280D01*
X64682135Y-70723280D01*
G36*
X64682135Y-71223280D02*
G01*
X64582135Y-71223280D01*
X64582135Y-71023280D01*
X64682135Y-71023280D01*
X64682135Y-71223280D01*
G37*
X64682135Y-71223280D02*
X64582135Y-71223280D01*
X64582135Y-71023280D01*
X64682135Y-71023280D01*
X64682135Y-71223280D01*
G36*
X64882135Y-70923280D02*
G01*
X64782135Y-70923280D01*
X64782135Y-70823280D01*
X64882135Y-70823280D01*
X64882135Y-70923280D01*
G37*
X64882135Y-70923280D02*
X64782135Y-70923280D01*
X64782135Y-70823280D01*
X64882135Y-70823280D01*
X64882135Y-70923280D01*
G36*
X65082135Y-71223280D02*
G01*
X64982135Y-71223280D01*
X64982135Y-70423280D01*
X65082135Y-70423280D01*
X65082135Y-71223280D01*
G37*
X65082135Y-71223280D02*
X64982135Y-71223280D01*
X64982135Y-70423280D01*
X65082135Y-70423280D01*
X65082135Y-71223280D01*
D11*
%TO.C,D12*%
X243093750Y-95912500D02*
X243093750Y-92012500D01*
X241093750Y-95912500D02*
X241093750Y-92012500D01*
X243093750Y-95912500D02*
X241093750Y-95912500D01*
%TO.C,D24*%
X204993750Y-114962500D02*
X202993750Y-114962500D01*
X202993750Y-114962500D02*
X202993750Y-111062500D01*
X204993750Y-114962500D02*
X204993750Y-111062500D01*
%TO.C,D23*%
X222043750Y-114962500D02*
X222043750Y-111062500D01*
X224043750Y-114962500D02*
X224043750Y-111062500D01*
X224043750Y-114962500D02*
X222043750Y-114962500D01*
%TO.C,D14*%
X204993750Y-95912500D02*
X204993750Y-92012500D01*
X202993750Y-95912500D02*
X202993750Y-92012500D01*
X204993750Y-95912500D02*
X202993750Y-95912500D01*
%TO.C,D10*%
X88693750Y-76862500D02*
X88693750Y-72962500D01*
X90693750Y-76862500D02*
X90693750Y-72962500D01*
X90693750Y-76862500D02*
X88693750Y-76862500D01*
%TO.C,D27*%
X128793750Y-114962500D02*
X128793750Y-111062500D01*
X126793750Y-114962500D02*
X126793750Y-111062500D01*
X128793750Y-114962500D02*
X126793750Y-114962500D01*
%TO.C,D19*%
X107743750Y-95912500D02*
X107743750Y-92012500D01*
X109743750Y-95912500D02*
X107743750Y-95912500D01*
X109743750Y-95912500D02*
X109743750Y-92012500D01*
%TO.C,SW24*%
X195762500Y-104731250D02*
X192719607Y-104731250D01*
X192719607Y-104731257D02*
G75*
G03*
X191719607Y-105731250I-7J-999993D01*
G01*
%TO.C,D28*%
X109743750Y-114962500D02*
X109743750Y-111062500D01*
X109743750Y-114962500D02*
X107743750Y-114962500D01*
X107743750Y-114962500D02*
X107743750Y-111062500D01*
%TO.C,SW15*%
X176712500Y-85681250D02*
X173669607Y-85681250D01*
X173669607Y-85681257D02*
G75*
G03*
X172669607Y-86681250I-7J-999993D01*
G01*
%TO.C,SW17*%
X138612500Y-85681250D02*
X135569607Y-85681250D01*
X135569607Y-85681257D02*
G75*
G03*
X134569607Y-86681250I-7J-999993D01*
G01*
%TO.C,SW19*%
X100512500Y-85681250D02*
X97469607Y-85681250D01*
X97469607Y-85681257D02*
G75*
G03*
X96469607Y-86681250I-7J-999993D01*
G01*
%TO.C,D9*%
X109743750Y-76862500D02*
X109743750Y-72962500D01*
X109743750Y-76862500D02*
X107743750Y-76862500D01*
X107743750Y-76862500D02*
X107743750Y-72962500D01*
%TO.C,D20*%
X88693750Y-95912500D02*
X88693750Y-92012500D01*
X90693750Y-95912500D02*
X90693750Y-92012500D01*
X90693750Y-95912500D02*
X88693750Y-95912500D01*
%TO.C,SW22*%
X233862500Y-104731250D02*
X230819607Y-104731250D01*
X230819607Y-104731257D02*
G75*
G03*
X229819607Y-105731250I-7J-999993D01*
G01*
%TO.C,SW12*%
X233862500Y-85681250D02*
X230819607Y-85681250D01*
X230819607Y-85681257D02*
G75*
G03*
X229819607Y-86681250I-7J-999993D01*
G01*
%TO.C,SW6*%
X157662500Y-66631250D02*
X154619607Y-66631250D01*
X154619607Y-66631257D02*
G75*
G03*
X153619607Y-67631250I-7J-999993D01*
G01*
%TO.C,D29*%
X88693750Y-114962500D02*
X88693750Y-111062500D01*
X90693750Y-114962500D02*
X90693750Y-111062500D01*
X90693750Y-114962500D02*
X88693750Y-114962500D01*
%TO.C,SW21*%
X252912500Y-104731250D02*
X249869607Y-104731250D01*
X249869607Y-104731257D02*
G75*
G03*
X248869607Y-105731250I-7J-999993D01*
G01*
%TO.C,D3*%
X222043750Y-76862500D02*
X222043750Y-72962500D01*
X224043750Y-76862500D02*
X222043750Y-76862500D01*
X224043750Y-76862500D02*
X224043750Y-72962500D01*
%TO.C,D15*%
X185943750Y-95912500D02*
X183943750Y-95912500D01*
X185943750Y-95912500D02*
X185943750Y-92012500D01*
X183943750Y-95912500D02*
X183943750Y-92012500D01*
%TO.C,SW8*%
X119562500Y-66631250D02*
X116519607Y-66631250D01*
X116519607Y-66631257D02*
G75*
G03*
X115519607Y-67631250I-7J-999993D01*
G01*
%TO.C,D25*%
X185150000Y-114962500D02*
X185150000Y-111062500D01*
X185150000Y-114962500D02*
X183150000Y-114962500D01*
X183150000Y-114962500D02*
X183150000Y-111062500D01*
%TO.C,SW4*%
X195762500Y-66631250D02*
X192719607Y-66631250D01*
X192719607Y-66631257D02*
G75*
G03*
X191719607Y-67631250I-7J-999993D01*
G01*
%TO.C,D16*%
X164893750Y-95912500D02*
X164893750Y-92012500D01*
X166893750Y-95912500D02*
X164893750Y-95912500D01*
X166893750Y-95912500D02*
X166893750Y-92012500D01*
%TO.C,SW1*%
X252912500Y-66631250D02*
X249869607Y-66631250D01*
X249869607Y-66631257D02*
G75*
G03*
X248869607Y-67631250I-7J-999993D01*
G01*
%TO.C,D13*%
X224043750Y-95912500D02*
X222043750Y-95912500D01*
X224043750Y-95912500D02*
X224043750Y-92012500D01*
X222043750Y-95912500D02*
X222043750Y-92012500D01*
%TO.C,D11*%
X260143750Y-95912500D02*
X260143750Y-92012500D01*
X262143750Y-95912500D02*
X260143750Y-95912500D01*
X262143750Y-95912500D02*
X262143750Y-92012500D01*
%TO.C,D26*%
X147843750Y-114962500D02*
X145843750Y-114962500D01*
X147843750Y-114962500D02*
X147843750Y-111062500D01*
X145843750Y-114962500D02*
X145843750Y-111062500D01*
%TO.C,SW14*%
X195762500Y-85681250D02*
X192719607Y-85681250D01*
X192719607Y-85681257D02*
G75*
G03*
X191719607Y-86681250I-7J-999993D01*
G01*
%TO.C,SW28*%
X100512500Y-104731250D02*
X97469607Y-104731250D01*
X97469607Y-104731257D02*
G75*
G03*
X96469607Y-105731250I-7J-999993D01*
G01*
%TO.C,SW5*%
X176712500Y-66631250D02*
X173669607Y-66631250D01*
X173669607Y-66631257D02*
G75*
G03*
X172669607Y-67631250I-7J-999993D01*
G01*
%TO.C,D2*%
X243093750Y-76862500D02*
X243093750Y-72962500D01*
X241093750Y-76862500D02*
X241093750Y-72962500D01*
X243093750Y-76862500D02*
X241093750Y-76862500D01*
%TO.C,SW11*%
X252912500Y-85681250D02*
X249869607Y-85681250D01*
X249869607Y-85681257D02*
G75*
G03*
X248869607Y-86681250I-7J-999993D01*
G01*
%TO.C,SW2*%
X233862500Y-66631250D02*
X230819607Y-66631250D01*
X230819607Y-66631257D02*
G75*
G03*
X229819607Y-67631250I-7J-999993D01*
G01*
%TO.C,SW20*%
X81462500Y-85681250D02*
X78419607Y-85681250D01*
X78419607Y-85681257D02*
G75*
G03*
X77419607Y-86681250I-7J-999993D01*
G01*
%TO.C,D8*%
X128793750Y-76862500D02*
X128793750Y-72962500D01*
X126793750Y-76862500D02*
X126793750Y-72962500D01*
X128793750Y-76862500D02*
X126793750Y-76862500D01*
%TO.C,D17*%
X147843750Y-95912500D02*
X147843750Y-92012500D01*
X147843750Y-95912500D02*
X145843750Y-95912500D01*
X145843750Y-95912500D02*
X145843750Y-92012500D01*
%TO.C,D18*%
X128793750Y-95912500D02*
X126793750Y-95912500D01*
X128793750Y-95912500D02*
X128793750Y-92012500D01*
X126793750Y-95912500D02*
X126793750Y-92012500D01*
%TO.C,SW27*%
X119562500Y-104731250D02*
X116519607Y-104731250D01*
X116519607Y-104731257D02*
G75*
G03*
X115519607Y-105731250I-7J-999993D01*
G01*
%TD*%
D13*
%TO.C,U1*%
X51117500Y-65804250D03*
D14*
X51117500Y-68344250D03*
X51117500Y-70884250D03*
X51117500Y-73424250D03*
X51117500Y-75964250D03*
X51117500Y-78504250D03*
X51117500Y-81044250D03*
X51117500Y-83584250D03*
X51117500Y-86124250D03*
X51117500Y-88664250D03*
X51117500Y-91204250D03*
X51117500Y-93744250D03*
X66357500Y-93744250D03*
X66357500Y-91204250D03*
X66357500Y-88664250D03*
X66357500Y-86124250D03*
X66357500Y-83584250D03*
X66357500Y-81044250D03*
X66357500Y-78504250D03*
X66357500Y-75964250D03*
X66357500Y-73424250D03*
X66357500Y-70884250D03*
X66357500Y-68344250D03*
X66357500Y-65804250D03*
%TD*%
M02*
