%TF.GenerationSoftware,KiCad,Pcbnew,(6.0.6)*%
%TF.CreationDate,2022-07-16T11:48:02+07:00*%
%TF.ProjectId,pocket,706f636b-6574-42e6-9b69-6361645f7063,rev?*%
%TF.SameCoordinates,Original*%
%TF.FileFunction,Paste,Bot*%
%TF.FilePolarity,Positive*%
%FSLAX46Y46*%
G04 Gerber Fmt 4.6, Leading zero omitted, Abs format (unit mm)*
G04 Created by KiCad (PCBNEW (6.0.6)) date 2022-07-16 11:48:02*
%MOMM*%
%LPD*%
G01*
G04 APERTURE LIST*
G04 Aperture macros list*
%AMRoundRect*
0 Rectangle with rounded corners*
0 $1 Rounding radius*
0 $2 $3 $4 $5 $6 $7 $8 $9 X,Y pos of 4 corners*
0 Add a 4 corners polygon primitive as box body*
4,1,4,$2,$3,$4,$5,$6,$7,$8,$9,$2,$3,0*
0 Add four circle primitives for the rounded corners*
1,1,$1+$1,$2,$3*
1,1,$1+$1,$4,$5*
1,1,$1+$1,$6,$7*
1,1,$1+$1,$8,$9*
0 Add four rect primitives between the rounded corners*
20,1,$1+$1,$2,$3,$4,$5,0*
20,1,$1+$1,$4,$5,$6,$7,0*
20,1,$1+$1,$6,$7,$8,$9,0*
20,1,$1+$1,$8,$9,$2,$3,0*%
G04 Aperture macros list end*
%ADD10R,1.200000X0.900000*%
%ADD11RoundRect,0.250000X1.025000X1.000000X-1.025000X1.000000X-1.025000X-1.000000X1.025000X-1.000000X0*%
G04 APERTURE END LIST*
D10*
%TO.C,D12*%
X238125000Y-108806250D03*
X238125000Y-105506250D03*
%TD*%
D11*
%TO.C,SW10*%
X69633750Y-82391250D03*
X83083750Y-79851250D03*
%TD*%
D10*
%TO.C,D15*%
X180975000Y-108806250D03*
X180975000Y-105506250D03*
%TD*%
D11*
%TO.C,SW11*%
X241083750Y-101441250D03*
X254533750Y-98901250D03*
%TD*%
%TO.C,SW27*%
X107733750Y-120491250D03*
X121183750Y-117951250D03*
%TD*%
D10*
%TO.C,D25*%
X179387500Y-121506250D03*
X179387500Y-118206250D03*
%TD*%
D11*
%TO.C,SW29*%
X69633750Y-120491250D03*
X83083750Y-117951250D03*
%TD*%
%TO.C,SW9*%
X88683750Y-82391250D03*
X102133750Y-79851250D03*
%TD*%
%TO.C,SW26*%
X126783750Y-120491250D03*
X140233750Y-117951250D03*
%TD*%
D10*
%TO.C,D10*%
X85725000Y-89756250D03*
X85725000Y-86456250D03*
%TD*%
D11*
%TO.C,SW16*%
X145833750Y-101441250D03*
X159283750Y-98901250D03*
%TD*%
D10*
%TO.C,D1*%
X257175000Y-89756250D03*
X257175000Y-86456250D03*
%TD*%
D11*
%TO.C,SW18*%
X107733750Y-101441250D03*
X121183750Y-98901250D03*
%TD*%
%TO.C,SW12*%
X222033750Y-101441250D03*
X235483750Y-98901250D03*
%TD*%
%TO.C,SW19*%
X88683750Y-101441250D03*
X102133750Y-98901250D03*
%TD*%
%TO.C,SW21*%
X241083750Y-120491250D03*
X254533750Y-117951250D03*
%TD*%
D10*
%TO.C,D2*%
X238125000Y-89756250D03*
X238125000Y-86456250D03*
%TD*%
D11*
%TO.C,SW4*%
X183933750Y-82391250D03*
X197383750Y-79851250D03*
%TD*%
D10*
%TO.C,D28*%
X104775000Y-127856250D03*
X104775000Y-124556250D03*
%TD*%
%TO.C,D17*%
X142875000Y-108806250D03*
X142875000Y-105506250D03*
%TD*%
D11*
%TO.C,SW22*%
X222033750Y-120491250D03*
X235483750Y-117951250D03*
%TD*%
D10*
%TO.C,D19*%
X104775000Y-108806250D03*
X104775000Y-105506250D03*
%TD*%
%TO.C,D27*%
X123825000Y-127856250D03*
X123825000Y-124556250D03*
%TD*%
D11*
%TO.C,SW7*%
X126783750Y-82391250D03*
X140233750Y-79851250D03*
%TD*%
%TO.C,SW15*%
X164883750Y-101441250D03*
X178333750Y-98901250D03*
%TD*%
%TO.C,SW6*%
X145833750Y-82391250D03*
X159283750Y-79851250D03*
%TD*%
D10*
%TO.C,D14*%
X200025000Y-108806250D03*
X200025000Y-105506250D03*
%TD*%
%TO.C,D29*%
X85725000Y-127856250D03*
X85725000Y-124556250D03*
%TD*%
%TO.C,D24*%
X200025000Y-127856250D03*
X200025000Y-124556250D03*
%TD*%
D11*
%TO.C,SW13*%
X202983750Y-101441250D03*
X216433750Y-98901250D03*
%TD*%
D10*
%TO.C,D8*%
X123825000Y-89756250D03*
X123825000Y-86456250D03*
%TD*%
D11*
%TO.C,SW1*%
X241083750Y-82391250D03*
X254533750Y-79851250D03*
%TD*%
D10*
%TO.C,D5*%
X180975000Y-89756250D03*
X180975000Y-86456250D03*
%TD*%
D11*
%TO.C,SW8*%
X107733750Y-82391250D03*
X121183750Y-79851250D03*
%TD*%
%TO.C,SW17*%
X126783750Y-101441250D03*
X140233750Y-98901250D03*
%TD*%
%TO.C,SW23*%
X202983750Y-120491250D03*
X216433750Y-117951250D03*
%TD*%
D10*
%TO.C,D9*%
X104775000Y-89756250D03*
X104775000Y-86456250D03*
%TD*%
%TO.C,D6*%
X161925000Y-89756250D03*
X161925000Y-86456250D03*
%TD*%
%TO.C,D7*%
X142875000Y-89756250D03*
X142875000Y-86456250D03*
%TD*%
%TO.C,D18*%
X123825000Y-108806250D03*
X123825000Y-105506250D03*
%TD*%
%TO.C,D4*%
X200025000Y-89756250D03*
X200025000Y-86456250D03*
%TD*%
%TO.C,D21*%
X257175000Y-127856250D03*
X257175000Y-124556250D03*
%TD*%
%TO.C,D23*%
X219075000Y-127856250D03*
X219075000Y-124556250D03*
%TD*%
D11*
%TO.C,SW28*%
X88683750Y-120491250D03*
X102133750Y-117951250D03*
%TD*%
D10*
%TO.C,D11*%
X257175000Y-108806250D03*
X257175000Y-105506250D03*
%TD*%
D11*
%TO.C,SW20*%
X69633750Y-101441250D03*
X83083750Y-98901250D03*
%TD*%
D10*
%TO.C,D20*%
X85725000Y-108806250D03*
X85725000Y-105506250D03*
%TD*%
%TO.C,D22*%
X238125000Y-127856250D03*
X238125000Y-124556250D03*
%TD*%
D11*
%TO.C,SW25*%
X155358750Y-120491250D03*
X168808750Y-117951250D03*
%TD*%
D10*
%TO.C,D16*%
X161925000Y-108806250D03*
X161925000Y-105506250D03*
%TD*%
D11*
%TO.C,SW3*%
X202983750Y-82391250D03*
X216433750Y-79851250D03*
%TD*%
%TO.C,SW5*%
X164883750Y-82391250D03*
X178333750Y-79851250D03*
%TD*%
D10*
%TO.C,D26*%
X142875000Y-127856250D03*
X142875000Y-124556250D03*
%TD*%
D11*
%TO.C,SW24*%
X183933750Y-120491250D03*
X197383750Y-117951250D03*
%TD*%
D10*
%TO.C,D13*%
X219075000Y-108806250D03*
X219075000Y-105506250D03*
%TD*%
%TO.C,D3*%
X219075000Y-89756250D03*
X219075000Y-86456250D03*
%TD*%
D11*
%TO.C,SW2*%
X222033750Y-82391250D03*
X235483750Y-79851250D03*
%TD*%
%TO.C,SW14*%
X183933750Y-101441250D03*
X197383750Y-98901250D03*
%TD*%
M02*
