M48
; DRILL file {KiCad (6.0.6)} date Tue Jul 19 20:18:10 2022
; FORMAT={-:-/ absolute / metric / decimal}
; #@! TF.CreationDate,2022-07-19T20:18:10+07:00
; #@! TF.GenerationSoftware,Kicad,Pcbnew,(6.0.6)
; #@! TF.FileFunction,NonPlated,1,2,NPTH
FMAT,2
METRIC
; #@! TA.AperFunction,NonPlated,NPTH,ComponentDrill
T1C1.750
; #@! TA.AperFunction,NonPlated,NPTH,ComponentDrill
T2C3.048
; #@! TA.AperFunction,NonPlated,NPTH,ComponentDrill
T3C3.988
%
G90
G05
T1
X75.882Y-72.231
X75.882Y-91.281
X75.882Y-110.331
X86.042Y-72.231
X86.042Y-91.281
X86.042Y-110.331
X94.932Y-72.231
X94.932Y-91.281
X94.932Y-110.331
X105.093Y-72.231
X105.093Y-91.281
X105.093Y-110.331
X113.983Y-72.231
X113.983Y-91.281
X113.983Y-110.331
X124.142Y-72.231
X124.142Y-91.281
X124.142Y-110.331
X133.032Y-72.231
X133.032Y-91.281
X133.032Y-110.331
X143.192Y-72.231
X143.192Y-91.281
X143.192Y-110.331
X152.082Y-72.231
X152.082Y-91.281
X161.607Y-110.331
X162.243Y-72.231
X162.243Y-91.281
X171.132Y-72.231
X171.132Y-91.281
X171.767Y-110.331
X181.292Y-72.231
X181.292Y-91.281
X190.183Y-72.231
X190.183Y-91.281
X190.183Y-110.331
X200.343Y-72.231
X200.343Y-91.281
X200.343Y-110.331
X209.232Y-72.231
X209.232Y-91.281
X209.232Y-110.331
X219.392Y-72.231
X219.392Y-91.281
X219.392Y-110.331
X228.282Y-72.231
X228.282Y-91.281
X228.282Y-110.331
X238.442Y-72.231
X238.442Y-91.281
X238.442Y-110.331
X247.332Y-72.231
X247.332Y-91.281
X247.332Y-110.331
X257.493Y-72.231
X257.493Y-91.281
X257.493Y-110.331
T2
X154.781Y-103.346
X178.594Y-103.346
T3
X80.962Y-72.231
X80.962Y-91.281
X80.962Y-110.331
X100.012Y-72.231
X100.012Y-91.281
X100.012Y-110.331
X119.062Y-72.231
X119.062Y-91.281
X119.062Y-110.331
X138.112Y-72.231
X138.112Y-91.281
X138.112Y-110.331
X154.781Y-118.586
X157.162Y-72.231
X157.162Y-91.281
X166.688Y-110.331
X176.213Y-72.231
X176.213Y-91.281
X178.594Y-118.586
X195.262Y-72.231
X195.262Y-91.281
X195.262Y-110.331
X214.312Y-72.231
X214.312Y-91.281
X214.312Y-110.331
X233.362Y-72.231
X233.362Y-91.281
X233.362Y-110.331
X252.412Y-72.231
X252.412Y-91.281
X252.412Y-110.331
T0
M30
