M48
; DRILL file {KiCad (6.0.6)} date Tue Jul 19 20:18:10 2022
; FORMAT={-:-/ absolute / metric / decimal}
; #@! TF.CreationDate,2022-07-19T20:18:10+07:00
; #@! TF.GenerationSoftware,Kicad,Pcbnew,(6.0.6)
; #@! TF.FileFunction,Plated,1,2,PTH
FMAT,2
METRIC
; #@! TA.AperFunction,Plated,PTH,ViaDrill
T1C1.000
; #@! TA.AperFunction,Plated,PTH,ComponentDrill
T2C1.092
; #@! TA.AperFunction,Plated,PTH,ComponentDrill
T3C3.000
; #@! TA.AperFunction,Plated,PTH,ViaDrill
T4C3.900
%
G90
G05
T1
X50.006Y-100.806
X51.594Y-100.806
X53.181Y-100.806
X55.562Y-96.044
X57.944Y-96.044
X60.325Y-96.044
X62.706Y-96.044
X68.263Y-70.644
X69.056Y-84.138
X71.438Y-76.994
X71.438Y-84.138
X72.231Y-80.169
X88.106Y-80.169
X88.106Y-99.219
X88.106Y-118.269
X107.156Y-80.169
X107.156Y-99.219
X107.156Y-118.269
X126.206Y-80.169
X126.206Y-99.219
X126.206Y-118.269
X128.588Y-102.394
X145.256Y-80.169
X145.256Y-99.219
X145.256Y-118.269
X147.637Y-100.806
X164.306Y-80.169
X164.306Y-99.219
X183.356Y-80.169
X183.356Y-99.219
X185.737Y-64.294
X188.119Y-118.269
X202.406Y-80.169
X202.406Y-99.219
X202.406Y-118.269
X204.787Y-62.706
X221.456Y-80.169
X221.456Y-99.219
X221.456Y-118.269
X223.837Y-83.344
X240.506Y-80.169
X240.506Y-99.219
X240.506Y-118.269
X242.887Y-81.756
X259.556Y-80.169
X259.556Y-99.219
X259.556Y-118.269
T2
X51.117Y-65.804
X51.117Y-68.344
X51.117Y-70.884
X51.117Y-73.424
X51.117Y-75.964
X51.117Y-78.504
X51.117Y-81.044
X51.117Y-83.584
X51.117Y-86.124
X51.117Y-88.664
X51.117Y-91.204
X51.117Y-93.744
X66.358Y-65.804
X66.358Y-68.344
X66.358Y-70.884
X66.358Y-73.424
X66.358Y-75.964
X66.358Y-78.504
X66.358Y-81.044
X66.358Y-83.584
X66.358Y-86.124
X66.358Y-88.664
X66.358Y-91.204
X66.358Y-93.744
T3
X77.153Y-69.691
X77.153Y-88.741
X77.153Y-107.791
X83.502Y-67.151
X83.502Y-86.201
X83.502Y-105.251
X96.203Y-69.691
X96.203Y-88.741
X96.203Y-107.791
X102.552Y-67.151
X102.552Y-86.201
X102.552Y-105.251
X115.252Y-69.691
X115.252Y-88.741
X115.252Y-107.791
X121.602Y-67.151
X121.602Y-86.201
X121.602Y-105.251
X134.302Y-69.691
X134.302Y-88.741
X134.302Y-107.791
X140.653Y-67.151
X140.653Y-86.201
X140.653Y-105.251
X153.352Y-69.691
X153.352Y-88.741
X159.702Y-67.151
X159.702Y-86.201
X162.877Y-107.791
X169.227Y-105.251
X172.403Y-69.691
X172.403Y-88.741
X178.752Y-67.151
X178.752Y-86.201
X191.452Y-69.691
X191.452Y-88.741
X191.452Y-107.791
X197.802Y-67.151
X197.802Y-86.201
X197.802Y-105.251
X210.502Y-69.691
X210.502Y-88.741
X210.502Y-107.791
X216.852Y-67.151
X216.852Y-86.201
X216.852Y-105.251
X229.552Y-69.691
X229.552Y-88.741
X229.552Y-107.791
X235.903Y-67.151
X235.903Y-86.201
X235.903Y-105.251
X248.602Y-69.691
X248.602Y-88.741
X248.602Y-107.791
X254.952Y-67.151
X254.952Y-86.201
X254.952Y-105.251
T4
X46.831Y-63.5
X46.831Y-120.65
X264.319Y-63.5
X264.319Y-120.65
T0
M30
