%TF.GenerationSoftware,KiCad,Pcbnew,(6.0.6)*%
%TF.CreationDate,2022-07-19T20:18:06+07:00*%
%TF.ProjectId,pocket,706f636b-6574-42e6-9b69-6361645f7063,rev?*%
%TF.SameCoordinates,Original*%
%TF.FileFunction,Legend,Top*%
%TF.FilePolarity,Positive*%
%FSLAX46Y46*%
G04 Gerber Fmt 4.6, Leading zero omitted, Abs format (unit mm)*
G04 Created by KiCad (PCBNEW (6.0.6)) date 2022-07-19 20:18:06*
%MOMM*%
%LPD*%
G01*
G04 APERTURE LIST*
%ADD10C,0.150000*%
%ADD11C,0.381000*%
%ADD12R,1.752600X1.752600*%
%ADD13C,1.752600*%
G04 APERTURE END LIST*
D10*
%TO.C,U1*%
X63931833Y-78447107D02*
X63665166Y-78447107D01*
X63665166Y-78866154D02*
X63665166Y-78066154D01*
X64046119Y-78066154D01*
X64731833Y-78066154D02*
X64350880Y-78066154D01*
X64312785Y-78447107D01*
X64350880Y-78409011D01*
X64427071Y-78370916D01*
X64617547Y-78370916D01*
X64693738Y-78409011D01*
X64731833Y-78447107D01*
X64769928Y-78523297D01*
X64769928Y-78713773D01*
X64731833Y-78789964D01*
X64693738Y-78828059D01*
X64617547Y-78866154D01*
X64427071Y-78866154D01*
X64350880Y-78828059D01*
X64312785Y-78789964D01*
X63937286Y-71178059D02*
X64051572Y-71216154D01*
X64242048Y-71216154D01*
X64318239Y-71178059D01*
X64356334Y-71139964D01*
X64394429Y-71063773D01*
X64394429Y-70987583D01*
X64356334Y-70911392D01*
X64318239Y-70873297D01*
X64242048Y-70835202D01*
X64089667Y-70797107D01*
X64013477Y-70759011D01*
X63975381Y-70720916D01*
X63937286Y-70644726D01*
X63937286Y-70568535D01*
X63975381Y-70492345D01*
X64013477Y-70454250D01*
X64089667Y-70416154D01*
X64280143Y-70416154D01*
X64394429Y-70454250D01*
X64623000Y-70416154D02*
X65080143Y-70416154D01*
X64851572Y-71216154D02*
X64851572Y-70416154D01*
X63131833Y-72986154D02*
X63398500Y-73786154D01*
X63665166Y-72986154D01*
X64388976Y-73709964D02*
X64350880Y-73748059D01*
X64236595Y-73786154D01*
X64160404Y-73786154D01*
X64046119Y-73748059D01*
X63969928Y-73671869D01*
X63931833Y-73595678D01*
X63893738Y-73443297D01*
X63893738Y-73329011D01*
X63931833Y-73176630D01*
X63969928Y-73100440D01*
X64046119Y-73024250D01*
X64160404Y-72986154D01*
X64236595Y-72986154D01*
X64350880Y-73024250D01*
X64388976Y-73062345D01*
X65188976Y-73709964D02*
X65150880Y-73748059D01*
X65036595Y-73786154D01*
X64960404Y-73786154D01*
X64846119Y-73748059D01*
X64769928Y-73671869D01*
X64731833Y-73595678D01*
X64693738Y-73443297D01*
X64693738Y-73329011D01*
X64731833Y-73176630D01*
X64769928Y-73100440D01*
X64846119Y-73024250D01*
X64960404Y-72986154D01*
X65036595Y-72986154D01*
X65150880Y-73024250D01*
X65188976Y-73062345D01*
X63931833Y-83527107D02*
X63665166Y-83527107D01*
X63665166Y-83946154D02*
X63665166Y-83146154D01*
X64046119Y-83146154D01*
X64274690Y-83146154D02*
X64808023Y-83146154D01*
X64465166Y-83946154D01*
X63874690Y-86067107D02*
X63988976Y-86105202D01*
X64027071Y-86143297D01*
X64065166Y-86219488D01*
X64065166Y-86333773D01*
X64027071Y-86409964D01*
X63988976Y-86448059D01*
X63912785Y-86486154D01*
X63608023Y-86486154D01*
X63608023Y-85686154D01*
X63874690Y-85686154D01*
X63950880Y-85724250D01*
X63988976Y-85762345D01*
X64027071Y-85838535D01*
X64027071Y-85914726D01*
X63988976Y-85990916D01*
X63950880Y-86029011D01*
X63874690Y-86067107D01*
X63608023Y-86067107D01*
X64827071Y-86486154D02*
X64369928Y-86486154D01*
X64598500Y-86486154D02*
X64598500Y-85686154D01*
X64522309Y-85800440D01*
X64446119Y-85876630D01*
X64369928Y-85914726D01*
X52975151Y-65366154D02*
X53432294Y-65366154D01*
X53203723Y-66166154D02*
X53203723Y-65366154D01*
X53622770Y-65366154D02*
X54156104Y-66166154D01*
X54156104Y-65366154D02*
X53622770Y-66166154D01*
X54613247Y-65366154D02*
X54689437Y-65366154D01*
X54765628Y-65404250D01*
X54803723Y-65442345D01*
X54841818Y-65518535D01*
X54879913Y-65670916D01*
X54879913Y-65861392D01*
X54841818Y-66013773D01*
X54803723Y-66089964D01*
X54765628Y-66128059D01*
X54689437Y-66166154D01*
X54613247Y-66166154D01*
X54537056Y-66128059D01*
X54498961Y-66089964D01*
X54460866Y-66013773D01*
X54422770Y-65861392D01*
X54422770Y-65670916D01*
X54460866Y-65518535D01*
X54498961Y-65442345D01*
X54537056Y-65404250D01*
X54613247Y-65366154D01*
X55794199Y-65328059D02*
X55108485Y-66356630D01*
X56060866Y-66166154D02*
X56060866Y-65366154D01*
X56251342Y-65366154D01*
X56365628Y-65404250D01*
X56441818Y-65480440D01*
X56479913Y-65556630D01*
X56518008Y-65709011D01*
X56518008Y-65823297D01*
X56479913Y-65975678D01*
X56441818Y-66051869D01*
X56365628Y-66128059D01*
X56251342Y-66166154D01*
X56060866Y-66166154D01*
X56784675Y-65366154D02*
X57279913Y-65366154D01*
X57013247Y-65670916D01*
X57127532Y-65670916D01*
X57203723Y-65709011D01*
X57241818Y-65747107D01*
X57279913Y-65823297D01*
X57279913Y-66013773D01*
X57241818Y-66089964D01*
X57203723Y-66128059D01*
X57127532Y-66166154D01*
X56898961Y-66166154D01*
X56822770Y-66128059D01*
X56784675Y-66089964D01*
X52724119Y-88607107D02*
X52990785Y-88607107D01*
X53105071Y-89026154D02*
X52724119Y-89026154D01*
X52724119Y-88226154D01*
X53105071Y-88226154D01*
X53790785Y-88226154D02*
X53638404Y-88226154D01*
X53562214Y-88264250D01*
X53524119Y-88302345D01*
X53447928Y-88416630D01*
X53409833Y-88569011D01*
X53409833Y-88873773D01*
X53447928Y-88949964D01*
X53486023Y-88988059D01*
X53562214Y-89026154D01*
X53714595Y-89026154D01*
X53790785Y-88988059D01*
X53828880Y-88949964D01*
X53866976Y-88873773D01*
X53866976Y-88683297D01*
X53828880Y-88607107D01*
X53790785Y-88569011D01*
X53714595Y-88530916D01*
X53562214Y-88530916D01*
X53486023Y-88569011D01*
X53447928Y-88607107D01*
X53409833Y-88683297D01*
X52666976Y-70484250D02*
X52590785Y-70446154D01*
X52476500Y-70446154D01*
X52362214Y-70484250D01*
X52286023Y-70560440D01*
X52247928Y-70636630D01*
X52209833Y-70789011D01*
X52209833Y-70903297D01*
X52247928Y-71055678D01*
X52286023Y-71131869D01*
X52362214Y-71208059D01*
X52476500Y-71246154D01*
X52552690Y-71246154D01*
X52666976Y-71208059D01*
X52705071Y-71169964D01*
X52705071Y-70903297D01*
X52552690Y-70903297D01*
X53047928Y-71246154D02*
X53047928Y-70446154D01*
X53505071Y-71246154D01*
X53505071Y-70446154D01*
X53886023Y-71246154D02*
X53886023Y-70446154D01*
X54076500Y-70446154D01*
X54190785Y-70484250D01*
X54266976Y-70560440D01*
X54305071Y-70636630D01*
X54343166Y-70789011D01*
X54343166Y-70903297D01*
X54305071Y-71055678D01*
X54266976Y-71131869D01*
X54190785Y-71208059D01*
X54076500Y-71246154D01*
X53886023Y-71246154D01*
X52686023Y-78866154D02*
X52686023Y-78066154D01*
X52876500Y-78066154D01*
X52990785Y-78104250D01*
X53066976Y-78180440D01*
X53105071Y-78256630D01*
X53143166Y-78409011D01*
X53143166Y-78523297D01*
X53105071Y-78675678D01*
X53066976Y-78751869D01*
X52990785Y-78828059D01*
X52876500Y-78866154D01*
X52686023Y-78866154D01*
X53638404Y-78066154D02*
X53714595Y-78066154D01*
X53790785Y-78104250D01*
X53828880Y-78142345D01*
X53866976Y-78218535D01*
X53905071Y-78370916D01*
X53905071Y-78561392D01*
X53866976Y-78713773D01*
X53828880Y-78789964D01*
X53790785Y-78828059D01*
X53714595Y-78866154D01*
X53638404Y-78866154D01*
X53562214Y-78828059D01*
X53524119Y-78789964D01*
X53486023Y-78713773D01*
X53447928Y-78561392D01*
X53447928Y-78370916D01*
X53486023Y-78218535D01*
X53524119Y-78142345D01*
X53562214Y-78104250D01*
X53638404Y-78066154D01*
X53143166Y-83869964D02*
X53105071Y-83908059D01*
X52990785Y-83946154D01*
X52914595Y-83946154D01*
X52800309Y-83908059D01*
X52724119Y-83831869D01*
X52686023Y-83755678D01*
X52647928Y-83603297D01*
X52647928Y-83489011D01*
X52686023Y-83336630D01*
X52724119Y-83260440D01*
X52800309Y-83184250D01*
X52914595Y-83146154D01*
X52990785Y-83146154D01*
X53105071Y-83184250D01*
X53143166Y-83222345D01*
X53828880Y-83146154D02*
X53676500Y-83146154D01*
X53600309Y-83184250D01*
X53562214Y-83222345D01*
X53486023Y-83336630D01*
X53447928Y-83489011D01*
X53447928Y-83793773D01*
X53486023Y-83869964D01*
X53524119Y-83908059D01*
X53600309Y-83946154D01*
X53752690Y-83946154D01*
X53828880Y-83908059D01*
X53866976Y-83869964D01*
X53905071Y-83793773D01*
X53905071Y-83603297D01*
X53866976Y-83527107D01*
X53828880Y-83489011D01*
X53752690Y-83450916D01*
X53600309Y-83450916D01*
X53524119Y-83489011D01*
X53486023Y-83527107D01*
X53447928Y-83603297D01*
X63931833Y-75907107D02*
X63665166Y-75907107D01*
X63665166Y-76326154D02*
X63665166Y-75526154D01*
X64046119Y-75526154D01*
X64693738Y-75792821D02*
X64693738Y-76326154D01*
X64503261Y-75488059D02*
X64312785Y-76059488D01*
X64808023Y-76059488D01*
X52666976Y-73024250D02*
X52590785Y-72986154D01*
X52476500Y-72986154D01*
X52362214Y-73024250D01*
X52286023Y-73100440D01*
X52247928Y-73176630D01*
X52209833Y-73329011D01*
X52209833Y-73443297D01*
X52247928Y-73595678D01*
X52286023Y-73671869D01*
X52362214Y-73748059D01*
X52476500Y-73786154D01*
X52552690Y-73786154D01*
X52666976Y-73748059D01*
X52705071Y-73709964D01*
X52705071Y-73443297D01*
X52552690Y-73443297D01*
X53047928Y-73786154D02*
X53047928Y-72986154D01*
X53505071Y-73786154D01*
X53505071Y-72986154D01*
X53886023Y-73786154D02*
X53886023Y-72986154D01*
X54076500Y-72986154D01*
X54190785Y-73024250D01*
X54266976Y-73100440D01*
X54305071Y-73176630D01*
X54343166Y-73329011D01*
X54343166Y-73443297D01*
X54305071Y-73595678D01*
X54266976Y-73671869D01*
X54190785Y-73748059D01*
X54076500Y-73786154D01*
X53886023Y-73786154D01*
X63874690Y-88607107D02*
X63988976Y-88645202D01*
X64027071Y-88683297D01*
X64065166Y-88759488D01*
X64065166Y-88873773D01*
X64027071Y-88949964D01*
X63988976Y-88988059D01*
X63912785Y-89026154D01*
X63608023Y-89026154D01*
X63608023Y-88226154D01*
X63874690Y-88226154D01*
X63950880Y-88264250D01*
X63988976Y-88302345D01*
X64027071Y-88378535D01*
X64027071Y-88454726D01*
X63988976Y-88530916D01*
X63950880Y-88569011D01*
X63874690Y-88607107D01*
X63608023Y-88607107D01*
X64331833Y-88226154D02*
X64827071Y-88226154D01*
X64560404Y-88530916D01*
X64674690Y-88530916D01*
X64750880Y-88569011D01*
X64788976Y-88607107D01*
X64827071Y-88683297D01*
X64827071Y-88873773D01*
X64788976Y-88949964D01*
X64750880Y-88988059D01*
X64674690Y-89026154D01*
X64446119Y-89026154D01*
X64369928Y-88988059D01*
X64331833Y-88949964D01*
X52686023Y-68706154D02*
X52686023Y-67906154D01*
X52876500Y-67906154D01*
X52990785Y-67944250D01*
X53066976Y-68020440D01*
X53105071Y-68096630D01*
X53143166Y-68249011D01*
X53143166Y-68363297D01*
X53105071Y-68515678D01*
X53066976Y-68591869D01*
X52990785Y-68668059D01*
X52876500Y-68706154D01*
X52686023Y-68706154D01*
X53447928Y-67982345D02*
X53486023Y-67944250D01*
X53562214Y-67906154D01*
X53752690Y-67906154D01*
X53828880Y-67944250D01*
X53866976Y-67982345D01*
X53905071Y-68058535D01*
X53905071Y-68134726D01*
X53866976Y-68249011D01*
X53409833Y-68706154D01*
X53905071Y-68706154D01*
X52952690Y-93687107D02*
X53066976Y-93725202D01*
X53105071Y-93763297D01*
X53143166Y-93839488D01*
X53143166Y-93953773D01*
X53105071Y-94029964D01*
X53066976Y-94068059D01*
X52990785Y-94106154D01*
X52686023Y-94106154D01*
X52686023Y-93306154D01*
X52952690Y-93306154D01*
X53028880Y-93344250D01*
X53066976Y-93382345D01*
X53105071Y-93458535D01*
X53105071Y-93534726D01*
X53066976Y-93610916D01*
X53028880Y-93649011D01*
X52952690Y-93687107D01*
X52686023Y-93687107D01*
X53866976Y-93306154D02*
X53486023Y-93306154D01*
X53447928Y-93687107D01*
X53486023Y-93649011D01*
X53562214Y-93610916D01*
X53752690Y-93610916D01*
X53828880Y-93649011D01*
X53866976Y-93687107D01*
X53905071Y-93763297D01*
X53905071Y-93953773D01*
X53866976Y-94029964D01*
X53828880Y-94068059D01*
X53752690Y-94106154D01*
X53562214Y-94106154D01*
X53486023Y-94068059D01*
X53447928Y-94029964D01*
X63874690Y-91147107D02*
X63988976Y-91185202D01*
X64027071Y-91223297D01*
X64065166Y-91299488D01*
X64065166Y-91413773D01*
X64027071Y-91489964D01*
X63988976Y-91528059D01*
X63912785Y-91566154D01*
X63608023Y-91566154D01*
X63608023Y-90766154D01*
X63874690Y-90766154D01*
X63950880Y-90804250D01*
X63988976Y-90842345D01*
X64027071Y-90918535D01*
X64027071Y-90994726D01*
X63988976Y-91070916D01*
X63950880Y-91109011D01*
X63874690Y-91147107D01*
X63608023Y-91147107D01*
X64369928Y-90842345D02*
X64408023Y-90804250D01*
X64484214Y-90766154D01*
X64674690Y-90766154D01*
X64750880Y-90804250D01*
X64788976Y-90842345D01*
X64827071Y-90918535D01*
X64827071Y-90994726D01*
X64788976Y-91109011D01*
X64331833Y-91566154D01*
X64827071Y-91566154D01*
X52952690Y-91147107D02*
X53066976Y-91185202D01*
X53105071Y-91223297D01*
X53143166Y-91299488D01*
X53143166Y-91413773D01*
X53105071Y-91489964D01*
X53066976Y-91528059D01*
X52990785Y-91566154D01*
X52686023Y-91566154D01*
X52686023Y-90766154D01*
X52952690Y-90766154D01*
X53028880Y-90804250D01*
X53066976Y-90842345D01*
X53105071Y-90918535D01*
X53105071Y-90994726D01*
X53066976Y-91070916D01*
X53028880Y-91109011D01*
X52952690Y-91147107D01*
X52686023Y-91147107D01*
X53828880Y-91032821D02*
X53828880Y-91566154D01*
X53638404Y-90728059D02*
X53447928Y-91299488D01*
X53943166Y-91299488D01*
X63588976Y-67944250D02*
X63512785Y-67906154D01*
X63398500Y-67906154D01*
X63284214Y-67944250D01*
X63208023Y-68020440D01*
X63169928Y-68096630D01*
X63131833Y-68249011D01*
X63131833Y-68363297D01*
X63169928Y-68515678D01*
X63208023Y-68591869D01*
X63284214Y-68668059D01*
X63398500Y-68706154D01*
X63474690Y-68706154D01*
X63588976Y-68668059D01*
X63627071Y-68629964D01*
X63627071Y-68363297D01*
X63474690Y-68363297D01*
X63969928Y-68706154D02*
X63969928Y-67906154D01*
X64427071Y-68706154D01*
X64427071Y-67906154D01*
X64808023Y-68706154D02*
X64808023Y-67906154D01*
X64998500Y-67906154D01*
X65112785Y-67944250D01*
X65188976Y-68020440D01*
X65227071Y-68096630D01*
X65265166Y-68249011D01*
X65265166Y-68363297D01*
X65227071Y-68515678D01*
X65188976Y-68591869D01*
X65112785Y-68668059D01*
X64998500Y-68706154D01*
X64808023Y-68706154D01*
X63646119Y-66166154D02*
X63379452Y-65785202D01*
X63188976Y-66166154D02*
X63188976Y-65366154D01*
X63493738Y-65366154D01*
X63569928Y-65404250D01*
X63608023Y-65442345D01*
X63646119Y-65518535D01*
X63646119Y-65632821D01*
X63608023Y-65709011D01*
X63569928Y-65747107D01*
X63493738Y-65785202D01*
X63188976Y-65785202D01*
X63950880Y-65937583D02*
X64331833Y-65937583D01*
X63874690Y-66166154D02*
X64141357Y-65366154D01*
X64408023Y-66166154D01*
X64598500Y-65366154D02*
X64788976Y-66166154D01*
X64941357Y-65594726D01*
X65093738Y-66166154D01*
X65284214Y-65366154D01*
X52686023Y-86486154D02*
X52686023Y-85686154D01*
X52876500Y-85686154D01*
X52990785Y-85724250D01*
X53066976Y-85800440D01*
X53105071Y-85876630D01*
X53143166Y-86029011D01*
X53143166Y-86143297D01*
X53105071Y-86295678D01*
X53066976Y-86371869D01*
X52990785Y-86448059D01*
X52876500Y-86486154D01*
X52686023Y-86486154D01*
X53409833Y-85686154D02*
X53943166Y-85686154D01*
X53600309Y-86486154D01*
X52686023Y-81406154D02*
X52686023Y-80606154D01*
X52876500Y-80606154D01*
X52990785Y-80644250D01*
X53066976Y-80720440D01*
X53105071Y-80796630D01*
X53143166Y-80949011D01*
X53143166Y-81063297D01*
X53105071Y-81215678D01*
X53066976Y-81291869D01*
X52990785Y-81368059D01*
X52876500Y-81406154D01*
X52686023Y-81406154D01*
X53828880Y-80872821D02*
X53828880Y-81406154D01*
X53638404Y-80568059D02*
X53447928Y-81139488D01*
X53943166Y-81139488D01*
X63874690Y-93687107D02*
X63988976Y-93725202D01*
X64027071Y-93763297D01*
X64065166Y-93839488D01*
X64065166Y-93953773D01*
X64027071Y-94029964D01*
X63988976Y-94068059D01*
X63912785Y-94106154D01*
X63608023Y-94106154D01*
X63608023Y-93306154D01*
X63874690Y-93306154D01*
X63950880Y-93344250D01*
X63988976Y-93382345D01*
X64027071Y-93458535D01*
X64027071Y-93534726D01*
X63988976Y-93610916D01*
X63950880Y-93649011D01*
X63874690Y-93687107D01*
X63608023Y-93687107D01*
X64750880Y-93306154D02*
X64598500Y-93306154D01*
X64522309Y-93344250D01*
X64484214Y-93382345D01*
X64408023Y-93496630D01*
X64369928Y-93649011D01*
X64369928Y-93953773D01*
X64408023Y-94029964D01*
X64446119Y-94068059D01*
X64522309Y-94106154D01*
X64674690Y-94106154D01*
X64750880Y-94068059D01*
X64788976Y-94029964D01*
X64827071Y-93953773D01*
X64827071Y-93763297D01*
X64788976Y-93687107D01*
X64750880Y-93649011D01*
X64674690Y-93610916D01*
X64522309Y-93610916D01*
X64446119Y-93649011D01*
X64408023Y-93687107D01*
X64369928Y-93763297D01*
X63931833Y-80987107D02*
X63665166Y-80987107D01*
X63665166Y-81406154D02*
X63665166Y-80606154D01*
X64046119Y-80606154D01*
X64693738Y-80606154D02*
X64541357Y-80606154D01*
X64465166Y-80644250D01*
X64427071Y-80682345D01*
X64350880Y-80796630D01*
X64312785Y-80949011D01*
X64312785Y-81253773D01*
X64350880Y-81329964D01*
X64388976Y-81368059D01*
X64465166Y-81406154D01*
X64617547Y-81406154D01*
X64693738Y-81368059D01*
X64731833Y-81329964D01*
X64769928Y-81253773D01*
X64769928Y-81063297D01*
X64731833Y-80987107D01*
X64693738Y-80949011D01*
X64617547Y-80910916D01*
X64465166Y-80910916D01*
X64388976Y-80949011D01*
X64350880Y-80987107D01*
X64312785Y-81063297D01*
X52686023Y-76326154D02*
X52686023Y-75526154D01*
X52876500Y-75526154D01*
X52990785Y-75564250D01*
X53066976Y-75640440D01*
X53105071Y-75716630D01*
X53143166Y-75869011D01*
X53143166Y-75983297D01*
X53105071Y-76135678D01*
X53066976Y-76211869D01*
X52990785Y-76288059D01*
X52876500Y-76326154D01*
X52686023Y-76326154D01*
X53905071Y-76326154D02*
X53447928Y-76326154D01*
X53676500Y-76326154D02*
X53676500Y-75526154D01*
X53600309Y-75640440D01*
X53524119Y-75716630D01*
X53447928Y-75754726D01*
D11*
X67627500Y-95014250D02*
X67627500Y-64534250D01*
X49847500Y-64534250D02*
X49847500Y-95014250D01*
X67627500Y-64534250D02*
X67627500Y-61994250D01*
X67627500Y-61994250D02*
X49847500Y-61994250D01*
X49847500Y-95014250D02*
X67627500Y-95014250D01*
X52387500Y-67074250D02*
X49847500Y-67074250D01*
X52387500Y-64534250D02*
X52387500Y-67074250D01*
X49847500Y-61994250D02*
X49847500Y-64534250D01*
X52387500Y-64534250D02*
X49847500Y-64534250D01*
G36*
X63669068Y-71213610D02*
G01*
X63569068Y-71213610D01*
X63569068Y-71013610D01*
X63669068Y-71013610D01*
X63669068Y-71213610D01*
G37*
D10*
X63669068Y-71213610D02*
X63569068Y-71213610D01*
X63569068Y-71013610D01*
X63669068Y-71013610D01*
X63669068Y-71213610D01*
G36*
X63269068Y-71213610D02*
G01*
X63169068Y-71213610D01*
X63169068Y-70413610D01*
X63269068Y-70413610D01*
X63269068Y-71213610D01*
G37*
X63269068Y-71213610D02*
X63169068Y-71213610D01*
X63169068Y-70413610D01*
X63269068Y-70413610D01*
X63269068Y-71213610D01*
G36*
X63669068Y-70513610D02*
G01*
X63169068Y-70513610D01*
X63169068Y-70413610D01*
X63669068Y-70413610D01*
X63669068Y-70513610D01*
G37*
X63669068Y-70513610D02*
X63169068Y-70513610D01*
X63169068Y-70413610D01*
X63669068Y-70413610D01*
X63669068Y-70513610D01*
G36*
X63469068Y-70913610D02*
G01*
X63369068Y-70913610D01*
X63369068Y-70813610D01*
X63469068Y-70813610D01*
X63469068Y-70913610D01*
G37*
X63469068Y-70913610D02*
X63369068Y-70913610D01*
X63369068Y-70813610D01*
X63469068Y-70813610D01*
X63469068Y-70913610D01*
G36*
X63669068Y-70713610D02*
G01*
X63569068Y-70713610D01*
X63569068Y-70413610D01*
X63669068Y-70413610D01*
X63669068Y-70713610D01*
G37*
X63669068Y-70713610D02*
X63569068Y-70713610D01*
X63569068Y-70413610D01*
X63669068Y-70413610D01*
X63669068Y-70713610D01*
%TD*%
D12*
%TO.C,U1*%
X51117500Y-65804250D03*
D13*
X51117500Y-68344250D03*
X51117500Y-70884250D03*
X51117500Y-73424250D03*
X51117500Y-75964250D03*
X51117500Y-78504250D03*
X51117500Y-81044250D03*
X51117500Y-83584250D03*
X51117500Y-86124250D03*
X51117500Y-88664250D03*
X51117500Y-91204250D03*
X51117500Y-93744250D03*
X66357500Y-93744250D03*
X66357500Y-91204250D03*
X66357500Y-88664250D03*
X66357500Y-86124250D03*
X66357500Y-83584250D03*
X66357500Y-81044250D03*
X66357500Y-78504250D03*
X66357500Y-75964250D03*
X66357500Y-73424250D03*
X66357500Y-70884250D03*
X66357500Y-68344250D03*
X66357500Y-65804250D03*
%TD*%
M02*
