%TF.GenerationSoftware,KiCad,Pcbnew,(6.0.6)*%
%TF.CreationDate,2022-07-19T20:18:06+07:00*%
%TF.ProjectId,pocket,706f636b-6574-42e6-9b69-6361645f7063,rev?*%
%TF.SameCoordinates,Original*%
%TF.FileFunction,Paste,Bot*%
%TF.FilePolarity,Positive*%
%FSLAX46Y46*%
G04 Gerber Fmt 4.6, Leading zero omitted, Abs format (unit mm)*
G04 Created by KiCad (PCBNEW (6.0.6)) date 2022-07-19 20:18:06*
%MOMM*%
%LPD*%
G01*
G04 APERTURE LIST*
G04 Aperture macros list*
%AMRoundRect*
0 Rectangle with rounded corners*
0 $1 Rounding radius*
0 $2 $3 $4 $5 $6 $7 $8 $9 X,Y pos of 4 corners*
0 Add a 4 corners polygon primitive as box body*
4,1,4,$2,$3,$4,$5,$6,$7,$8,$9,$2,$3,0*
0 Add four circle primitives for the rounded corners*
1,1,$1+$1,$2,$3*
1,1,$1+$1,$4,$5*
1,1,$1+$1,$6,$7*
1,1,$1+$1,$8,$9*
0 Add four rect primitives between the rounded corners*
20,1,$1+$1,$2,$3,$4,$5,0*
20,1,$1+$1,$4,$5,$6,$7,0*
20,1,$1+$1,$6,$7,$8,$9,0*
20,1,$1+$1,$8,$9,$2,$3,0*%
G04 Aperture macros list end*
%ADD10RoundRect,0.250000X1.025000X1.000000X-1.025000X1.000000X-1.025000X-1.000000X1.025000X-1.000000X0*%
%ADD11R,1.200000X0.900000*%
G04 APERTURE END LIST*
D10*
%TO.C,SW25*%
X159327500Y-107791250D03*
X172777500Y-105251250D03*
%TD*%
%TO.C,SW16*%
X149802500Y-88741250D03*
X163252500Y-86201250D03*
%TD*%
%TO.C,SW29*%
X73602500Y-107791250D03*
X87052500Y-105251250D03*
%TD*%
D11*
%TO.C,D1*%
X261143750Y-76262500D03*
X261143750Y-72962500D03*
%TD*%
%TO.C,D5*%
X184943750Y-76262500D03*
X184943750Y-72962500D03*
%TD*%
D10*
%TO.C,SW18*%
X125152500Y-86201250D03*
X111702500Y-88741250D03*
%TD*%
D11*
%TO.C,D6*%
X165893750Y-76262500D03*
X165893750Y-72962500D03*
%TD*%
D10*
%TO.C,SW13*%
X206952500Y-88741250D03*
X220402500Y-86201250D03*
%TD*%
D11*
%TO.C,D21*%
X261143750Y-114362500D03*
X261143750Y-111062500D03*
%TD*%
D10*
%TO.C,SW9*%
X92652500Y-69691250D03*
X106102500Y-67151250D03*
%TD*%
%TO.C,SW3*%
X206952500Y-69691250D03*
X220402500Y-67151250D03*
%TD*%
D11*
%TO.C,D22*%
X242093750Y-114362500D03*
X242093750Y-111062500D03*
%TD*%
D10*
%TO.C,SW10*%
X73602500Y-69691250D03*
X87052500Y-67151250D03*
%TD*%
%TO.C,SW7*%
X130752500Y-69691250D03*
X144202500Y-67151250D03*
%TD*%
%TO.C,SW23*%
X206952500Y-107791250D03*
X220402500Y-105251250D03*
%TD*%
D11*
%TO.C,D4*%
X203993750Y-76262500D03*
X203993750Y-72962500D03*
%TD*%
D10*
%TO.C,SW26*%
X130752500Y-107791250D03*
X144202500Y-105251250D03*
%TD*%
D11*
%TO.C,D7*%
X146843750Y-76262500D03*
X146843750Y-72962500D03*
%TD*%
%TO.C,D12*%
X242093750Y-95312500D03*
X242093750Y-92012500D03*
%TD*%
%TO.C,D24*%
X203993750Y-114362500D03*
X203993750Y-111062500D03*
%TD*%
%TO.C,D23*%
X223043750Y-114362500D03*
X223043750Y-111062500D03*
%TD*%
%TO.C,D14*%
X203993750Y-95312500D03*
X203993750Y-92012500D03*
%TD*%
%TO.C,D10*%
X89693750Y-76262500D03*
X89693750Y-72962500D03*
%TD*%
%TO.C,D27*%
X127793750Y-114362500D03*
X127793750Y-111062500D03*
%TD*%
%TO.C,D19*%
X108743750Y-95312500D03*
X108743750Y-92012500D03*
%TD*%
D10*
%TO.C,SW24*%
X187902500Y-107791250D03*
X201352500Y-105251250D03*
%TD*%
D11*
%TO.C,D28*%
X108743750Y-114362500D03*
X108743750Y-111062500D03*
%TD*%
D10*
%TO.C,SW15*%
X168852500Y-88741250D03*
X182302500Y-86201250D03*
%TD*%
%TO.C,SW17*%
X130752500Y-88741250D03*
X144202500Y-86201250D03*
%TD*%
%TO.C,SW19*%
X92652500Y-88741250D03*
X106102500Y-86201250D03*
%TD*%
D11*
%TO.C,D9*%
X108743750Y-72962500D03*
X108743750Y-76262500D03*
%TD*%
%TO.C,D20*%
X89693750Y-95312500D03*
X89693750Y-92012500D03*
%TD*%
D10*
%TO.C,SW22*%
X226002500Y-107791250D03*
X239452500Y-105251250D03*
%TD*%
%TO.C,SW12*%
X226002500Y-88741250D03*
X239452500Y-86201250D03*
%TD*%
%TO.C,SW6*%
X149802500Y-69691250D03*
X163252500Y-67151250D03*
%TD*%
D11*
%TO.C,D29*%
X89693750Y-114362500D03*
X89693750Y-111062500D03*
%TD*%
D10*
%TO.C,SW21*%
X245052500Y-107791250D03*
X258502500Y-105251250D03*
%TD*%
D11*
%TO.C,D3*%
X223043750Y-76262500D03*
X223043750Y-72962500D03*
%TD*%
%TO.C,D15*%
X184943750Y-95312500D03*
X184943750Y-92012500D03*
%TD*%
D10*
%TO.C,SW8*%
X111702500Y-69691250D03*
X125152500Y-67151250D03*
%TD*%
D11*
%TO.C,D25*%
X184150000Y-114362500D03*
X184150000Y-111062500D03*
%TD*%
D10*
%TO.C,SW4*%
X187902500Y-69691250D03*
X201352500Y-67151250D03*
%TD*%
D11*
%TO.C,D16*%
X165893750Y-95312500D03*
X165893750Y-92012500D03*
%TD*%
D10*
%TO.C,SW1*%
X245052500Y-69691250D03*
X258502500Y-67151250D03*
%TD*%
D11*
%TO.C,D13*%
X223043750Y-95312500D03*
X223043750Y-92012500D03*
%TD*%
%TO.C,D11*%
X261143750Y-95312500D03*
X261143750Y-92012500D03*
%TD*%
%TO.C,D26*%
X146843750Y-114362500D03*
X146843750Y-111062500D03*
%TD*%
D10*
%TO.C,SW14*%
X187902500Y-88741250D03*
X201352500Y-86201250D03*
%TD*%
%TO.C,SW28*%
X92652500Y-107791250D03*
X106102500Y-105251250D03*
%TD*%
%TO.C,SW5*%
X168852500Y-69691250D03*
X182302500Y-67151250D03*
%TD*%
D11*
%TO.C,D2*%
X242093750Y-76262500D03*
X242093750Y-72962500D03*
%TD*%
D10*
%TO.C,SW11*%
X245052500Y-88741250D03*
X258502500Y-86201250D03*
%TD*%
%TO.C,SW2*%
X226002500Y-69691250D03*
X239452500Y-67151250D03*
%TD*%
%TO.C,SW20*%
X73602500Y-88741250D03*
X87052500Y-86201250D03*
%TD*%
D11*
%TO.C,D8*%
X127793750Y-76262500D03*
X127793750Y-72962500D03*
%TD*%
%TO.C,D17*%
X146843750Y-95312500D03*
X146843750Y-92012500D03*
%TD*%
%TO.C,D18*%
X127793750Y-95312500D03*
X127793750Y-92012500D03*
%TD*%
D10*
%TO.C,SW27*%
X111702500Y-107791250D03*
X125152500Y-105251250D03*
%TD*%
M02*
