%TF.GenerationSoftware,KiCad,Pcbnew,(6.0.6)*%
%TF.CreationDate,2022-07-16T11:48:02+07:00*%
%TF.ProjectId,pocket,706f636b-6574-42e6-9b69-6361645f7063,rev?*%
%TF.SameCoordinates,Original*%
%TF.FileFunction,Legend,Top*%
%TF.FilePolarity,Positive*%
%FSLAX46Y46*%
G04 Gerber Fmt 4.6, Leading zero omitted, Abs format (unit mm)*
G04 Created by KiCad (PCBNEW (6.0.6)) date 2022-07-16 11:48:02*
%MOMM*%
%LPD*%
G01*
G04 APERTURE LIST*
%ADD10C,0.150000*%
%ADD11C,0.381000*%
%ADD12R,1.752600X1.752600*%
%ADD13C,1.752600*%
G04 APERTURE END LIST*
D10*
%TO.C,U1*%
X61493440Y-101307107D02*
X61607726Y-101345202D01*
X61645821Y-101383297D01*
X61683916Y-101459488D01*
X61683916Y-101573773D01*
X61645821Y-101649964D01*
X61607726Y-101688059D01*
X61531535Y-101726154D01*
X61226773Y-101726154D01*
X61226773Y-100926154D01*
X61493440Y-100926154D01*
X61569630Y-100964250D01*
X61607726Y-101002345D01*
X61645821Y-101078535D01*
X61645821Y-101154726D01*
X61607726Y-101230916D01*
X61569630Y-101269011D01*
X61493440Y-101307107D01*
X61226773Y-101307107D01*
X61950583Y-100926154D02*
X62445821Y-100926154D01*
X62179154Y-101230916D01*
X62293440Y-101230916D01*
X62369630Y-101269011D01*
X62407726Y-101307107D01*
X62445821Y-101383297D01*
X62445821Y-101573773D01*
X62407726Y-101649964D01*
X62369630Y-101688059D01*
X62293440Y-101726154D01*
X62064869Y-101726154D01*
X61988678Y-101688059D01*
X61950583Y-101649964D01*
X50761916Y-96569964D02*
X50723821Y-96608059D01*
X50609535Y-96646154D01*
X50533345Y-96646154D01*
X50419059Y-96608059D01*
X50342869Y-96531869D01*
X50304773Y-96455678D01*
X50266678Y-96303297D01*
X50266678Y-96189011D01*
X50304773Y-96036630D01*
X50342869Y-95960440D01*
X50419059Y-95884250D01*
X50533345Y-95846154D01*
X50609535Y-95846154D01*
X50723821Y-95884250D01*
X50761916Y-95922345D01*
X51447630Y-95846154D02*
X51295250Y-95846154D01*
X51219059Y-95884250D01*
X51180964Y-95922345D01*
X51104773Y-96036630D01*
X51066678Y-96189011D01*
X51066678Y-96493773D01*
X51104773Y-96569964D01*
X51142869Y-96608059D01*
X51219059Y-96646154D01*
X51371440Y-96646154D01*
X51447630Y-96608059D01*
X51485726Y-96569964D01*
X51523821Y-96493773D01*
X51523821Y-96303297D01*
X51485726Y-96227107D01*
X51447630Y-96189011D01*
X51371440Y-96150916D01*
X51219059Y-96150916D01*
X51142869Y-96189011D01*
X51104773Y-96227107D01*
X51066678Y-96303297D01*
X60750583Y-85686154D02*
X61017250Y-86486154D01*
X61283916Y-85686154D01*
X62007726Y-86409964D02*
X61969630Y-86448059D01*
X61855345Y-86486154D01*
X61779154Y-86486154D01*
X61664869Y-86448059D01*
X61588678Y-86371869D01*
X61550583Y-86295678D01*
X61512488Y-86143297D01*
X61512488Y-86029011D01*
X61550583Y-85876630D01*
X61588678Y-85800440D01*
X61664869Y-85724250D01*
X61779154Y-85686154D01*
X61855345Y-85686154D01*
X61969630Y-85724250D01*
X62007726Y-85762345D01*
X62807726Y-86409964D02*
X62769630Y-86448059D01*
X62655345Y-86486154D01*
X62579154Y-86486154D01*
X62464869Y-86448059D01*
X62388678Y-86371869D01*
X62350583Y-86295678D01*
X62312488Y-86143297D01*
X62312488Y-86029011D01*
X62350583Y-85876630D01*
X62388678Y-85800440D01*
X62464869Y-85724250D01*
X62579154Y-85686154D01*
X62655345Y-85686154D01*
X62769630Y-85724250D01*
X62807726Y-85762345D01*
X50285726Y-85724250D02*
X50209535Y-85686154D01*
X50095250Y-85686154D01*
X49980964Y-85724250D01*
X49904773Y-85800440D01*
X49866678Y-85876630D01*
X49828583Y-86029011D01*
X49828583Y-86143297D01*
X49866678Y-86295678D01*
X49904773Y-86371869D01*
X49980964Y-86448059D01*
X50095250Y-86486154D01*
X50171440Y-86486154D01*
X50285726Y-86448059D01*
X50323821Y-86409964D01*
X50323821Y-86143297D01*
X50171440Y-86143297D01*
X50666678Y-86486154D02*
X50666678Y-85686154D01*
X51123821Y-86486154D01*
X51123821Y-85686154D01*
X51504773Y-86486154D02*
X51504773Y-85686154D01*
X51695250Y-85686154D01*
X51809535Y-85724250D01*
X51885726Y-85800440D01*
X51923821Y-85876630D01*
X51961916Y-86029011D01*
X51961916Y-86143297D01*
X51923821Y-86295678D01*
X51885726Y-86371869D01*
X51809535Y-86448059D01*
X51695250Y-86486154D01*
X51504773Y-86486154D01*
X61493440Y-103847107D02*
X61607726Y-103885202D01*
X61645821Y-103923297D01*
X61683916Y-103999488D01*
X61683916Y-104113773D01*
X61645821Y-104189964D01*
X61607726Y-104228059D01*
X61531535Y-104266154D01*
X61226773Y-104266154D01*
X61226773Y-103466154D01*
X61493440Y-103466154D01*
X61569630Y-103504250D01*
X61607726Y-103542345D01*
X61645821Y-103618535D01*
X61645821Y-103694726D01*
X61607726Y-103770916D01*
X61569630Y-103809011D01*
X61493440Y-103847107D01*
X61226773Y-103847107D01*
X61988678Y-103542345D02*
X62026773Y-103504250D01*
X62102964Y-103466154D01*
X62293440Y-103466154D01*
X62369630Y-103504250D01*
X62407726Y-103542345D01*
X62445821Y-103618535D01*
X62445821Y-103694726D01*
X62407726Y-103809011D01*
X61950583Y-104266154D01*
X62445821Y-104266154D01*
X50285726Y-83184250D02*
X50209535Y-83146154D01*
X50095250Y-83146154D01*
X49980964Y-83184250D01*
X49904773Y-83260440D01*
X49866678Y-83336630D01*
X49828583Y-83489011D01*
X49828583Y-83603297D01*
X49866678Y-83755678D01*
X49904773Y-83831869D01*
X49980964Y-83908059D01*
X50095250Y-83946154D01*
X50171440Y-83946154D01*
X50285726Y-83908059D01*
X50323821Y-83869964D01*
X50323821Y-83603297D01*
X50171440Y-83603297D01*
X50666678Y-83946154D02*
X50666678Y-83146154D01*
X51123821Y-83946154D01*
X51123821Y-83146154D01*
X51504773Y-83946154D02*
X51504773Y-83146154D01*
X51695250Y-83146154D01*
X51809535Y-83184250D01*
X51885726Y-83260440D01*
X51923821Y-83336630D01*
X51961916Y-83489011D01*
X51961916Y-83603297D01*
X51923821Y-83755678D01*
X51885726Y-83831869D01*
X51809535Y-83908059D01*
X51695250Y-83946154D01*
X51504773Y-83946154D01*
X50304773Y-91566154D02*
X50304773Y-90766154D01*
X50495250Y-90766154D01*
X50609535Y-90804250D01*
X50685726Y-90880440D01*
X50723821Y-90956630D01*
X50761916Y-91109011D01*
X50761916Y-91223297D01*
X50723821Y-91375678D01*
X50685726Y-91451869D01*
X50609535Y-91528059D01*
X50495250Y-91566154D01*
X50304773Y-91566154D01*
X51257154Y-90766154D02*
X51333345Y-90766154D01*
X51409535Y-90804250D01*
X51447630Y-90842345D01*
X51485726Y-90918535D01*
X51523821Y-91070916D01*
X51523821Y-91261392D01*
X51485726Y-91413773D01*
X51447630Y-91489964D01*
X51409535Y-91528059D01*
X51333345Y-91566154D01*
X51257154Y-91566154D01*
X51180964Y-91528059D01*
X51142869Y-91489964D01*
X51104773Y-91413773D01*
X51066678Y-91261392D01*
X51066678Y-91070916D01*
X51104773Y-90918535D01*
X51142869Y-90842345D01*
X51180964Y-90804250D01*
X51257154Y-90766154D01*
X61550583Y-88607107D02*
X61283916Y-88607107D01*
X61283916Y-89026154D02*
X61283916Y-88226154D01*
X61664869Y-88226154D01*
X62312488Y-88492821D02*
X62312488Y-89026154D01*
X62122011Y-88188059D02*
X61931535Y-88759488D01*
X62426773Y-88759488D01*
X61550583Y-96227107D02*
X61283916Y-96227107D01*
X61283916Y-96646154D02*
X61283916Y-95846154D01*
X61664869Y-95846154D01*
X61893440Y-95846154D02*
X62426773Y-95846154D01*
X62083916Y-96646154D01*
X50571440Y-106387107D02*
X50685726Y-106425202D01*
X50723821Y-106463297D01*
X50761916Y-106539488D01*
X50761916Y-106653773D01*
X50723821Y-106729964D01*
X50685726Y-106768059D01*
X50609535Y-106806154D01*
X50304773Y-106806154D01*
X50304773Y-106006154D01*
X50571440Y-106006154D01*
X50647630Y-106044250D01*
X50685726Y-106082345D01*
X50723821Y-106158535D01*
X50723821Y-106234726D01*
X50685726Y-106310916D01*
X50647630Y-106349011D01*
X50571440Y-106387107D01*
X50304773Y-106387107D01*
X51485726Y-106006154D02*
X51104773Y-106006154D01*
X51066678Y-106387107D01*
X51104773Y-106349011D01*
X51180964Y-106310916D01*
X51371440Y-106310916D01*
X51447630Y-106349011D01*
X51485726Y-106387107D01*
X51523821Y-106463297D01*
X51523821Y-106653773D01*
X51485726Y-106729964D01*
X51447630Y-106768059D01*
X51371440Y-106806154D01*
X51180964Y-106806154D01*
X51104773Y-106768059D01*
X51066678Y-106729964D01*
X50304773Y-81406154D02*
X50304773Y-80606154D01*
X50495250Y-80606154D01*
X50609535Y-80644250D01*
X50685726Y-80720440D01*
X50723821Y-80796630D01*
X50761916Y-80949011D01*
X50761916Y-81063297D01*
X50723821Y-81215678D01*
X50685726Y-81291869D01*
X50609535Y-81368059D01*
X50495250Y-81406154D01*
X50304773Y-81406154D01*
X51066678Y-80682345D02*
X51104773Y-80644250D01*
X51180964Y-80606154D01*
X51371440Y-80606154D01*
X51447630Y-80644250D01*
X51485726Y-80682345D01*
X51523821Y-80758535D01*
X51523821Y-80834726D01*
X51485726Y-80949011D01*
X51028583Y-81406154D01*
X51523821Y-81406154D01*
X61556036Y-83878059D02*
X61670322Y-83916154D01*
X61860798Y-83916154D01*
X61936989Y-83878059D01*
X61975084Y-83839964D01*
X62013179Y-83763773D01*
X62013179Y-83687583D01*
X61975084Y-83611392D01*
X61936989Y-83573297D01*
X61860798Y-83535202D01*
X61708417Y-83497107D01*
X61632227Y-83459011D01*
X61594131Y-83420916D01*
X61556036Y-83344726D01*
X61556036Y-83268535D01*
X61594131Y-83192345D01*
X61632227Y-83154250D01*
X61708417Y-83116154D01*
X61898893Y-83116154D01*
X62013179Y-83154250D01*
X62241750Y-83116154D02*
X62698893Y-83116154D01*
X62470322Y-83916154D02*
X62470322Y-83116154D01*
X61493440Y-98767107D02*
X61607726Y-98805202D01*
X61645821Y-98843297D01*
X61683916Y-98919488D01*
X61683916Y-99033773D01*
X61645821Y-99109964D01*
X61607726Y-99148059D01*
X61531535Y-99186154D01*
X61226773Y-99186154D01*
X61226773Y-98386154D01*
X61493440Y-98386154D01*
X61569630Y-98424250D01*
X61607726Y-98462345D01*
X61645821Y-98538535D01*
X61645821Y-98614726D01*
X61607726Y-98690916D01*
X61569630Y-98729011D01*
X61493440Y-98767107D01*
X61226773Y-98767107D01*
X62445821Y-99186154D02*
X61988678Y-99186154D01*
X62217250Y-99186154D02*
X62217250Y-98386154D01*
X62141059Y-98500440D01*
X62064869Y-98576630D01*
X61988678Y-98614726D01*
X50571440Y-103847107D02*
X50685726Y-103885202D01*
X50723821Y-103923297D01*
X50761916Y-103999488D01*
X50761916Y-104113773D01*
X50723821Y-104189964D01*
X50685726Y-104228059D01*
X50609535Y-104266154D01*
X50304773Y-104266154D01*
X50304773Y-103466154D01*
X50571440Y-103466154D01*
X50647630Y-103504250D01*
X50685726Y-103542345D01*
X50723821Y-103618535D01*
X50723821Y-103694726D01*
X50685726Y-103770916D01*
X50647630Y-103809011D01*
X50571440Y-103847107D01*
X50304773Y-103847107D01*
X51447630Y-103732821D02*
X51447630Y-104266154D01*
X51257154Y-103428059D02*
X51066678Y-103999488D01*
X51561916Y-103999488D01*
X61550583Y-93687107D02*
X61283916Y-93687107D01*
X61283916Y-94106154D02*
X61283916Y-93306154D01*
X61664869Y-93306154D01*
X62312488Y-93306154D02*
X62160107Y-93306154D01*
X62083916Y-93344250D01*
X62045821Y-93382345D01*
X61969630Y-93496630D01*
X61931535Y-93649011D01*
X61931535Y-93953773D01*
X61969630Y-94029964D01*
X62007726Y-94068059D01*
X62083916Y-94106154D01*
X62236297Y-94106154D01*
X62312488Y-94068059D01*
X62350583Y-94029964D01*
X62388678Y-93953773D01*
X62388678Y-93763297D01*
X62350583Y-93687107D01*
X62312488Y-93649011D01*
X62236297Y-93610916D01*
X62083916Y-93610916D01*
X62007726Y-93649011D01*
X61969630Y-93687107D01*
X61931535Y-93763297D01*
X50304773Y-99186154D02*
X50304773Y-98386154D01*
X50495250Y-98386154D01*
X50609535Y-98424250D01*
X50685726Y-98500440D01*
X50723821Y-98576630D01*
X50761916Y-98729011D01*
X50761916Y-98843297D01*
X50723821Y-98995678D01*
X50685726Y-99071869D01*
X50609535Y-99148059D01*
X50495250Y-99186154D01*
X50304773Y-99186154D01*
X51028583Y-98386154D02*
X51561916Y-98386154D01*
X51219059Y-99186154D01*
X50304773Y-94106154D02*
X50304773Y-93306154D01*
X50495250Y-93306154D01*
X50609535Y-93344250D01*
X50685726Y-93420440D01*
X50723821Y-93496630D01*
X50761916Y-93649011D01*
X50761916Y-93763297D01*
X50723821Y-93915678D01*
X50685726Y-93991869D01*
X50609535Y-94068059D01*
X50495250Y-94106154D01*
X50304773Y-94106154D01*
X51447630Y-93572821D02*
X51447630Y-94106154D01*
X51257154Y-93268059D02*
X51066678Y-93839488D01*
X51561916Y-93839488D01*
X50342869Y-101307107D02*
X50609535Y-101307107D01*
X50723821Y-101726154D02*
X50342869Y-101726154D01*
X50342869Y-100926154D01*
X50723821Y-100926154D01*
X51409535Y-100926154D02*
X51257154Y-100926154D01*
X51180964Y-100964250D01*
X51142869Y-101002345D01*
X51066678Y-101116630D01*
X51028583Y-101269011D01*
X51028583Y-101573773D01*
X51066678Y-101649964D01*
X51104773Y-101688059D01*
X51180964Y-101726154D01*
X51333345Y-101726154D01*
X51409535Y-101688059D01*
X51447630Y-101649964D01*
X51485726Y-101573773D01*
X51485726Y-101383297D01*
X51447630Y-101307107D01*
X51409535Y-101269011D01*
X51333345Y-101230916D01*
X51180964Y-101230916D01*
X51104773Y-101269011D01*
X51066678Y-101307107D01*
X51028583Y-101383297D01*
X61550583Y-91147107D02*
X61283916Y-91147107D01*
X61283916Y-91566154D02*
X61283916Y-90766154D01*
X61664869Y-90766154D01*
X62350583Y-90766154D02*
X61969630Y-90766154D01*
X61931535Y-91147107D01*
X61969630Y-91109011D01*
X62045821Y-91070916D01*
X62236297Y-91070916D01*
X62312488Y-91109011D01*
X62350583Y-91147107D01*
X62388678Y-91223297D01*
X62388678Y-91413773D01*
X62350583Y-91489964D01*
X62312488Y-91528059D01*
X62236297Y-91566154D01*
X62045821Y-91566154D01*
X61969630Y-91528059D01*
X61931535Y-91489964D01*
X61264869Y-78866154D02*
X60998202Y-78485202D01*
X60807726Y-78866154D02*
X60807726Y-78066154D01*
X61112488Y-78066154D01*
X61188678Y-78104250D01*
X61226773Y-78142345D01*
X61264869Y-78218535D01*
X61264869Y-78332821D01*
X61226773Y-78409011D01*
X61188678Y-78447107D01*
X61112488Y-78485202D01*
X60807726Y-78485202D01*
X61569630Y-78637583D02*
X61950583Y-78637583D01*
X61493440Y-78866154D02*
X61760107Y-78066154D01*
X62026773Y-78866154D01*
X62217250Y-78066154D02*
X62407726Y-78866154D01*
X62560107Y-78294726D01*
X62712488Y-78866154D01*
X62902964Y-78066154D01*
X61207726Y-80644250D02*
X61131535Y-80606154D01*
X61017250Y-80606154D01*
X60902964Y-80644250D01*
X60826773Y-80720440D01*
X60788678Y-80796630D01*
X60750583Y-80949011D01*
X60750583Y-81063297D01*
X60788678Y-81215678D01*
X60826773Y-81291869D01*
X60902964Y-81368059D01*
X61017250Y-81406154D01*
X61093440Y-81406154D01*
X61207726Y-81368059D01*
X61245821Y-81329964D01*
X61245821Y-81063297D01*
X61093440Y-81063297D01*
X61588678Y-81406154D02*
X61588678Y-80606154D01*
X62045821Y-81406154D01*
X62045821Y-80606154D01*
X62426773Y-81406154D02*
X62426773Y-80606154D01*
X62617250Y-80606154D01*
X62731535Y-80644250D01*
X62807726Y-80720440D01*
X62845821Y-80796630D01*
X62883916Y-80949011D01*
X62883916Y-81063297D01*
X62845821Y-81215678D01*
X62807726Y-81291869D01*
X62731535Y-81368059D01*
X62617250Y-81406154D01*
X62426773Y-81406154D01*
X61493440Y-106387107D02*
X61607726Y-106425202D01*
X61645821Y-106463297D01*
X61683916Y-106539488D01*
X61683916Y-106653773D01*
X61645821Y-106729964D01*
X61607726Y-106768059D01*
X61531535Y-106806154D01*
X61226773Y-106806154D01*
X61226773Y-106006154D01*
X61493440Y-106006154D01*
X61569630Y-106044250D01*
X61607726Y-106082345D01*
X61645821Y-106158535D01*
X61645821Y-106234726D01*
X61607726Y-106310916D01*
X61569630Y-106349011D01*
X61493440Y-106387107D01*
X61226773Y-106387107D01*
X62369630Y-106006154D02*
X62217250Y-106006154D01*
X62141059Y-106044250D01*
X62102964Y-106082345D01*
X62026773Y-106196630D01*
X61988678Y-106349011D01*
X61988678Y-106653773D01*
X62026773Y-106729964D01*
X62064869Y-106768059D01*
X62141059Y-106806154D01*
X62293440Y-106806154D01*
X62369630Y-106768059D01*
X62407726Y-106729964D01*
X62445821Y-106653773D01*
X62445821Y-106463297D01*
X62407726Y-106387107D01*
X62369630Y-106349011D01*
X62293440Y-106310916D01*
X62141059Y-106310916D01*
X62064869Y-106349011D01*
X62026773Y-106387107D01*
X61988678Y-106463297D01*
X50593901Y-78066154D02*
X51051044Y-78066154D01*
X50822473Y-78866154D02*
X50822473Y-78066154D01*
X51241520Y-78066154D02*
X51774854Y-78866154D01*
X51774854Y-78066154D02*
X51241520Y-78866154D01*
X52231997Y-78066154D02*
X52308187Y-78066154D01*
X52384378Y-78104250D01*
X52422473Y-78142345D01*
X52460568Y-78218535D01*
X52498663Y-78370916D01*
X52498663Y-78561392D01*
X52460568Y-78713773D01*
X52422473Y-78789964D01*
X52384378Y-78828059D01*
X52308187Y-78866154D01*
X52231997Y-78866154D01*
X52155806Y-78828059D01*
X52117711Y-78789964D01*
X52079616Y-78713773D01*
X52041520Y-78561392D01*
X52041520Y-78370916D01*
X52079616Y-78218535D01*
X52117711Y-78142345D01*
X52155806Y-78104250D01*
X52231997Y-78066154D01*
X53412949Y-78028059D02*
X52727235Y-79056630D01*
X53679616Y-78866154D02*
X53679616Y-78066154D01*
X53870092Y-78066154D01*
X53984378Y-78104250D01*
X54060568Y-78180440D01*
X54098663Y-78256630D01*
X54136758Y-78409011D01*
X54136758Y-78523297D01*
X54098663Y-78675678D01*
X54060568Y-78751869D01*
X53984378Y-78828059D01*
X53870092Y-78866154D01*
X53679616Y-78866154D01*
X54403425Y-78066154D02*
X54898663Y-78066154D01*
X54631997Y-78370916D01*
X54746282Y-78370916D01*
X54822473Y-78409011D01*
X54860568Y-78447107D01*
X54898663Y-78523297D01*
X54898663Y-78713773D01*
X54860568Y-78789964D01*
X54822473Y-78828059D01*
X54746282Y-78866154D01*
X54517711Y-78866154D01*
X54441520Y-78828059D01*
X54403425Y-78789964D01*
X50304773Y-89026154D02*
X50304773Y-88226154D01*
X50495250Y-88226154D01*
X50609535Y-88264250D01*
X50685726Y-88340440D01*
X50723821Y-88416630D01*
X50761916Y-88569011D01*
X50761916Y-88683297D01*
X50723821Y-88835678D01*
X50685726Y-88911869D01*
X50609535Y-88988059D01*
X50495250Y-89026154D01*
X50304773Y-89026154D01*
X51523821Y-89026154D02*
X51066678Y-89026154D01*
X51295250Y-89026154D02*
X51295250Y-88226154D01*
X51219059Y-88340440D01*
X51142869Y-88416630D01*
X51066678Y-88454726D01*
D11*
X65246250Y-77234250D02*
X65246250Y-74694250D01*
X50006250Y-79774250D02*
X47466250Y-79774250D01*
X50006250Y-77234250D02*
X50006250Y-79774250D01*
X47466250Y-74694250D02*
X47466250Y-77234250D01*
X65246250Y-74694250D02*
X47466250Y-74694250D01*
X50006250Y-77234250D02*
X47466250Y-77234250D01*
X47466250Y-77234250D02*
X47466250Y-107714250D01*
X47466250Y-107714250D02*
X65246250Y-107714250D01*
X65246250Y-107714250D02*
X65246250Y-77234250D01*
G36*
X61087818Y-83613610D02*
G01*
X60987818Y-83613610D01*
X60987818Y-83513610D01*
X61087818Y-83513610D01*
X61087818Y-83613610D01*
G37*
D10*
X61087818Y-83613610D02*
X60987818Y-83613610D01*
X60987818Y-83513610D01*
X61087818Y-83513610D01*
X61087818Y-83613610D01*
G36*
X61287818Y-83913610D02*
G01*
X61187818Y-83913610D01*
X61187818Y-83713610D01*
X61287818Y-83713610D01*
X61287818Y-83913610D01*
G37*
X61287818Y-83913610D02*
X61187818Y-83913610D01*
X61187818Y-83713610D01*
X61287818Y-83713610D01*
X61287818Y-83913610D01*
G36*
X60887818Y-83913610D02*
G01*
X60787818Y-83913610D01*
X60787818Y-83113610D01*
X60887818Y-83113610D01*
X60887818Y-83913610D01*
G37*
X60887818Y-83913610D02*
X60787818Y-83913610D01*
X60787818Y-83113610D01*
X60887818Y-83113610D01*
X60887818Y-83913610D01*
G36*
X61287818Y-83413610D02*
G01*
X61187818Y-83413610D01*
X61187818Y-83113610D01*
X61287818Y-83113610D01*
X61287818Y-83413610D01*
G37*
X61287818Y-83413610D02*
X61187818Y-83413610D01*
X61187818Y-83113610D01*
X61287818Y-83113610D01*
X61287818Y-83413610D01*
G36*
X61287818Y-83213610D02*
G01*
X60787818Y-83213610D01*
X60787818Y-83113610D01*
X61287818Y-83113610D01*
X61287818Y-83213610D01*
G37*
X61287818Y-83213610D02*
X60787818Y-83213610D01*
X60787818Y-83113610D01*
X61287818Y-83113610D01*
X61287818Y-83213610D01*
%TD*%
D12*
%TO.C,U1*%
X48736250Y-78504250D03*
D13*
X48736250Y-81044250D03*
X48736250Y-83584250D03*
X48736250Y-86124250D03*
X48736250Y-88664250D03*
X48736250Y-91204250D03*
X48736250Y-93744250D03*
X48736250Y-96284250D03*
X48736250Y-98824250D03*
X48736250Y-101364250D03*
X48736250Y-103904250D03*
X48736250Y-106444250D03*
X63976250Y-106444250D03*
X63976250Y-103904250D03*
X63976250Y-101364250D03*
X63976250Y-98824250D03*
X63976250Y-96284250D03*
X63976250Y-93744250D03*
X63976250Y-91204250D03*
X63976250Y-88664250D03*
X63976250Y-86124250D03*
X63976250Y-83584250D03*
X63976250Y-81044250D03*
X63976250Y-78504250D03*
%TD*%
M02*
