%TF.GenerationSoftware,KiCad,Pcbnew,(6.0.6)*%
%TF.CreationDate,2022-07-16T11:48:02+07:00*%
%TF.ProjectId,pocket,706f636b-6574-42e6-9b69-6361645f7063,rev?*%
%TF.SameCoordinates,Original*%
%TF.FileFunction,Legend,Bot*%
%TF.FilePolarity,Positive*%
%FSLAX46Y46*%
G04 Gerber Fmt 4.6, Leading zero omitted, Abs format (unit mm)*
G04 Created by KiCad (PCBNEW (6.0.6)) date 2022-07-16 11:48:02*
%MOMM*%
%LPD*%
G01*
G04 APERTURE LIST*
%ADD10C,0.150000*%
%ADD11C,0.381000*%
%ADD12C,0.120000*%
%ADD13R,1.752600X1.752600*%
%ADD14C,1.752600*%
G04 APERTURE END LIST*
D10*
%TO.C,U1*%
X62141059Y-101307107D02*
X62026773Y-101345202D01*
X61988678Y-101383297D01*
X61950583Y-101459488D01*
X61950583Y-101573773D01*
X61988678Y-101649964D01*
X62026773Y-101688059D01*
X62102964Y-101726154D01*
X62407726Y-101726154D01*
X62407726Y-100926154D01*
X62141059Y-100926154D01*
X62064869Y-100964250D01*
X62026773Y-101002345D01*
X61988678Y-101078535D01*
X61988678Y-101154726D01*
X62026773Y-101230916D01*
X62064869Y-101269011D01*
X62141059Y-101307107D01*
X62407726Y-101307107D01*
X61683916Y-100926154D02*
X61188678Y-100926154D01*
X61455345Y-101230916D01*
X61341059Y-101230916D01*
X61264869Y-101269011D01*
X61226773Y-101307107D01*
X61188678Y-101383297D01*
X61188678Y-101573773D01*
X61226773Y-101649964D01*
X61264869Y-101688059D01*
X61341059Y-101726154D01*
X61569630Y-101726154D01*
X61645821Y-101688059D01*
X61683916Y-101649964D01*
X62426773Y-80644250D02*
X62502964Y-80606154D01*
X62617250Y-80606154D01*
X62731535Y-80644250D01*
X62807726Y-80720440D01*
X62845821Y-80796630D01*
X62883916Y-80949011D01*
X62883916Y-81063297D01*
X62845821Y-81215678D01*
X62807726Y-81291869D01*
X62731535Y-81368059D01*
X62617250Y-81406154D01*
X62541059Y-81406154D01*
X62426773Y-81368059D01*
X62388678Y-81329964D01*
X62388678Y-81063297D01*
X62541059Y-81063297D01*
X62045821Y-81406154D02*
X62045821Y-80606154D01*
X61588678Y-81406154D01*
X61588678Y-80606154D01*
X61207726Y-81406154D02*
X61207726Y-80606154D01*
X61017250Y-80606154D01*
X60902964Y-80644250D01*
X60826773Y-80720440D01*
X60788678Y-80796630D01*
X60750583Y-80949011D01*
X60750583Y-81063297D01*
X60788678Y-81215678D01*
X60826773Y-81291869D01*
X60902964Y-81368059D01*
X61017250Y-81406154D01*
X61207726Y-81406154D01*
X62141059Y-106387107D02*
X62026773Y-106425202D01*
X61988678Y-106463297D01*
X61950583Y-106539488D01*
X61950583Y-106653773D01*
X61988678Y-106729964D01*
X62026773Y-106768059D01*
X62102964Y-106806154D01*
X62407726Y-106806154D01*
X62407726Y-106006154D01*
X62141059Y-106006154D01*
X62064869Y-106044250D01*
X62026773Y-106082345D01*
X61988678Y-106158535D01*
X61988678Y-106234726D01*
X62026773Y-106310916D01*
X62064869Y-106349011D01*
X62141059Y-106387107D01*
X62407726Y-106387107D01*
X61264869Y-106006154D02*
X61417250Y-106006154D01*
X61493440Y-106044250D01*
X61531535Y-106082345D01*
X61607726Y-106196630D01*
X61645821Y-106349011D01*
X61645821Y-106653773D01*
X61607726Y-106729964D01*
X61569630Y-106768059D01*
X61493440Y-106806154D01*
X61341059Y-106806154D01*
X61264869Y-106768059D01*
X61226773Y-106729964D01*
X61188678Y-106653773D01*
X61188678Y-106463297D01*
X61226773Y-106387107D01*
X61264869Y-106349011D01*
X61341059Y-106310916D01*
X61493440Y-106310916D01*
X61569630Y-106349011D01*
X61607726Y-106387107D01*
X61645821Y-106463297D01*
X51447630Y-101307107D02*
X51180964Y-101307107D01*
X51066678Y-101726154D02*
X51447630Y-101726154D01*
X51447630Y-100926154D01*
X51066678Y-100926154D01*
X50380964Y-100926154D02*
X50533345Y-100926154D01*
X50609535Y-100964250D01*
X50647630Y-101002345D01*
X50723821Y-101116630D01*
X50761916Y-101269011D01*
X50761916Y-101573773D01*
X50723821Y-101649964D01*
X50685726Y-101688059D01*
X50609535Y-101726154D01*
X50457154Y-101726154D01*
X50380964Y-101688059D01*
X50342869Y-101649964D01*
X50304773Y-101573773D01*
X50304773Y-101383297D01*
X50342869Y-101307107D01*
X50380964Y-101269011D01*
X50457154Y-101230916D01*
X50609535Y-101230916D01*
X50685726Y-101269011D01*
X50723821Y-101307107D01*
X50761916Y-101383297D01*
X51219059Y-103847107D02*
X51104773Y-103885202D01*
X51066678Y-103923297D01*
X51028583Y-103999488D01*
X51028583Y-104113773D01*
X51066678Y-104189964D01*
X51104773Y-104228059D01*
X51180964Y-104266154D01*
X51485726Y-104266154D01*
X51485726Y-103466154D01*
X51219059Y-103466154D01*
X51142869Y-103504250D01*
X51104773Y-103542345D01*
X51066678Y-103618535D01*
X51066678Y-103694726D01*
X51104773Y-103770916D01*
X51142869Y-103809011D01*
X51219059Y-103847107D01*
X51485726Y-103847107D01*
X50342869Y-103732821D02*
X50342869Y-104266154D01*
X50533345Y-103428059D02*
X50723821Y-103999488D01*
X50228583Y-103999488D01*
X61929583Y-83888059D02*
X61815297Y-83926154D01*
X61624821Y-83926154D01*
X61548630Y-83888059D01*
X61510535Y-83849964D01*
X61472440Y-83773773D01*
X61472440Y-83697583D01*
X61510535Y-83621392D01*
X61548630Y-83583297D01*
X61624821Y-83545202D01*
X61777202Y-83507107D01*
X61853392Y-83469011D01*
X61891488Y-83430916D01*
X61929583Y-83354726D01*
X61929583Y-83278535D01*
X61891488Y-83202345D01*
X61853392Y-83164250D01*
X61777202Y-83126154D01*
X61586726Y-83126154D01*
X61472440Y-83164250D01*
X61243869Y-83126154D02*
X60786726Y-83126154D01*
X61015297Y-83926154D02*
X61015297Y-83126154D01*
X51485726Y-99186154D02*
X51485726Y-98386154D01*
X51295250Y-98386154D01*
X51180964Y-98424250D01*
X51104773Y-98500440D01*
X51066678Y-98576630D01*
X51028583Y-98729011D01*
X51028583Y-98843297D01*
X51066678Y-98995678D01*
X51104773Y-99071869D01*
X51180964Y-99148059D01*
X51295250Y-99186154D01*
X51485726Y-99186154D01*
X50761916Y-98386154D02*
X50228583Y-98386154D01*
X50571440Y-99186154D01*
X51485726Y-94106154D02*
X51485726Y-93306154D01*
X51295250Y-93306154D01*
X51180964Y-93344250D01*
X51104773Y-93420440D01*
X51066678Y-93496630D01*
X51028583Y-93649011D01*
X51028583Y-93763297D01*
X51066678Y-93915678D01*
X51104773Y-93991869D01*
X51180964Y-94068059D01*
X51295250Y-94106154D01*
X51485726Y-94106154D01*
X50342869Y-93572821D02*
X50342869Y-94106154D01*
X50533345Y-93268059D02*
X50723821Y-93839488D01*
X50228583Y-93839488D01*
X62883916Y-85686154D02*
X62617250Y-86486154D01*
X62350583Y-85686154D01*
X61626773Y-86409964D02*
X61664869Y-86448059D01*
X61779154Y-86486154D01*
X61855345Y-86486154D01*
X61969630Y-86448059D01*
X62045821Y-86371869D01*
X62083916Y-86295678D01*
X62122011Y-86143297D01*
X62122011Y-86029011D01*
X62083916Y-85876630D01*
X62045821Y-85800440D01*
X61969630Y-85724250D01*
X61855345Y-85686154D01*
X61779154Y-85686154D01*
X61664869Y-85724250D01*
X61626773Y-85762345D01*
X60826773Y-86409964D02*
X60864869Y-86448059D01*
X60979154Y-86486154D01*
X61055345Y-86486154D01*
X61169630Y-86448059D01*
X61245821Y-86371869D01*
X61283916Y-86295678D01*
X61322011Y-86143297D01*
X61322011Y-86029011D01*
X61283916Y-85876630D01*
X61245821Y-85800440D01*
X61169630Y-85724250D01*
X61055345Y-85686154D01*
X60979154Y-85686154D01*
X60864869Y-85724250D01*
X60826773Y-85762345D01*
X62083916Y-96227107D02*
X62350583Y-96227107D01*
X62350583Y-96646154D02*
X62350583Y-95846154D01*
X61969630Y-95846154D01*
X61741059Y-95846154D02*
X61207726Y-95846154D01*
X61550583Y-96646154D01*
X51028583Y-96569964D02*
X51066678Y-96608059D01*
X51180964Y-96646154D01*
X51257154Y-96646154D01*
X51371440Y-96608059D01*
X51447630Y-96531869D01*
X51485726Y-96455678D01*
X51523821Y-96303297D01*
X51523821Y-96189011D01*
X51485726Y-96036630D01*
X51447630Y-95960440D01*
X51371440Y-95884250D01*
X51257154Y-95846154D01*
X51180964Y-95846154D01*
X51066678Y-95884250D01*
X51028583Y-95922345D01*
X50342869Y-95846154D02*
X50495250Y-95846154D01*
X50571440Y-95884250D01*
X50609535Y-95922345D01*
X50685726Y-96036630D01*
X50723821Y-96189011D01*
X50723821Y-96493773D01*
X50685726Y-96569964D01*
X50647630Y-96608059D01*
X50571440Y-96646154D01*
X50419059Y-96646154D01*
X50342869Y-96608059D01*
X50304773Y-96569964D01*
X50266678Y-96493773D01*
X50266678Y-96303297D01*
X50304773Y-96227107D01*
X50342869Y-96189011D01*
X50419059Y-96150916D01*
X50571440Y-96150916D01*
X50647630Y-96189011D01*
X50685726Y-96227107D01*
X50723821Y-96303297D01*
X62083916Y-93687107D02*
X62350583Y-93687107D01*
X62350583Y-94106154D02*
X62350583Y-93306154D01*
X61969630Y-93306154D01*
X61322011Y-93306154D02*
X61474392Y-93306154D01*
X61550583Y-93344250D01*
X61588678Y-93382345D01*
X61664869Y-93496630D01*
X61702964Y-93649011D01*
X61702964Y-93953773D01*
X61664869Y-94029964D01*
X61626773Y-94068059D01*
X61550583Y-94106154D01*
X61398202Y-94106154D01*
X61322011Y-94068059D01*
X61283916Y-94029964D01*
X61245821Y-93953773D01*
X61245821Y-93763297D01*
X61283916Y-93687107D01*
X61322011Y-93649011D01*
X61398202Y-93610916D01*
X61550583Y-93610916D01*
X61626773Y-93649011D01*
X61664869Y-93687107D01*
X61702964Y-93763297D01*
X62369630Y-78866154D02*
X62636297Y-78485202D01*
X62826773Y-78866154D02*
X62826773Y-78066154D01*
X62522011Y-78066154D01*
X62445821Y-78104250D01*
X62407726Y-78142345D01*
X62369630Y-78218535D01*
X62369630Y-78332821D01*
X62407726Y-78409011D01*
X62445821Y-78447107D01*
X62522011Y-78485202D01*
X62826773Y-78485202D01*
X62064869Y-78637583D02*
X61683916Y-78637583D01*
X62141059Y-78866154D02*
X61874392Y-78066154D01*
X61607726Y-78866154D01*
X61417250Y-78066154D02*
X61226773Y-78866154D01*
X61074392Y-78294726D01*
X60922011Y-78866154D01*
X60731535Y-78066154D01*
X62141059Y-103847107D02*
X62026773Y-103885202D01*
X61988678Y-103923297D01*
X61950583Y-103999488D01*
X61950583Y-104113773D01*
X61988678Y-104189964D01*
X62026773Y-104228059D01*
X62102964Y-104266154D01*
X62407726Y-104266154D01*
X62407726Y-103466154D01*
X62141059Y-103466154D01*
X62064869Y-103504250D01*
X62026773Y-103542345D01*
X61988678Y-103618535D01*
X61988678Y-103694726D01*
X62026773Y-103770916D01*
X62064869Y-103809011D01*
X62141059Y-103847107D01*
X62407726Y-103847107D01*
X61645821Y-103542345D02*
X61607726Y-103504250D01*
X61531535Y-103466154D01*
X61341059Y-103466154D01*
X61264869Y-103504250D01*
X61226773Y-103542345D01*
X61188678Y-103618535D01*
X61188678Y-103694726D01*
X61226773Y-103809011D01*
X61683916Y-104266154D01*
X61188678Y-104266154D01*
X51485726Y-81406154D02*
X51485726Y-80606154D01*
X51295250Y-80606154D01*
X51180964Y-80644250D01*
X51104773Y-80720440D01*
X51066678Y-80796630D01*
X51028583Y-80949011D01*
X51028583Y-81063297D01*
X51066678Y-81215678D01*
X51104773Y-81291869D01*
X51180964Y-81368059D01*
X51295250Y-81406154D01*
X51485726Y-81406154D01*
X50723821Y-80682345D02*
X50685726Y-80644250D01*
X50609535Y-80606154D01*
X50419059Y-80606154D01*
X50342869Y-80644250D01*
X50304773Y-80682345D01*
X50266678Y-80758535D01*
X50266678Y-80834726D01*
X50304773Y-80949011D01*
X50761916Y-81406154D01*
X50266678Y-81406154D01*
X51219059Y-106387107D02*
X51104773Y-106425202D01*
X51066678Y-106463297D01*
X51028583Y-106539488D01*
X51028583Y-106653773D01*
X51066678Y-106729964D01*
X51104773Y-106768059D01*
X51180964Y-106806154D01*
X51485726Y-106806154D01*
X51485726Y-106006154D01*
X51219059Y-106006154D01*
X51142869Y-106044250D01*
X51104773Y-106082345D01*
X51066678Y-106158535D01*
X51066678Y-106234726D01*
X51104773Y-106310916D01*
X51142869Y-106349011D01*
X51219059Y-106387107D01*
X51485726Y-106387107D01*
X50304773Y-106006154D02*
X50685726Y-106006154D01*
X50723821Y-106387107D01*
X50685726Y-106349011D01*
X50609535Y-106310916D01*
X50419059Y-106310916D01*
X50342869Y-106349011D01*
X50304773Y-106387107D01*
X50266678Y-106463297D01*
X50266678Y-106653773D01*
X50304773Y-106729964D01*
X50342869Y-106768059D01*
X50419059Y-106806154D01*
X50609535Y-106806154D01*
X50685726Y-106768059D01*
X50723821Y-106729964D01*
X54974854Y-78066154D02*
X54517711Y-78066154D01*
X54746282Y-78866154D02*
X54746282Y-78066154D01*
X54327235Y-78066154D02*
X53793901Y-78866154D01*
X53793901Y-78066154D02*
X54327235Y-78866154D01*
X53336758Y-78066154D02*
X53260568Y-78066154D01*
X53184378Y-78104250D01*
X53146282Y-78142345D01*
X53108187Y-78218535D01*
X53070092Y-78370916D01*
X53070092Y-78561392D01*
X53108187Y-78713773D01*
X53146282Y-78789964D01*
X53184378Y-78828059D01*
X53260568Y-78866154D01*
X53336758Y-78866154D01*
X53412949Y-78828059D01*
X53451044Y-78789964D01*
X53489139Y-78713773D01*
X53527235Y-78561392D01*
X53527235Y-78370916D01*
X53489139Y-78218535D01*
X53451044Y-78142345D01*
X53412949Y-78104250D01*
X53336758Y-78066154D01*
X52155806Y-78028059D02*
X52841520Y-79056630D01*
X51889139Y-78866154D02*
X51889139Y-78066154D01*
X51698663Y-78066154D01*
X51584378Y-78104250D01*
X51508187Y-78180440D01*
X51470092Y-78256630D01*
X51431997Y-78409011D01*
X51431997Y-78523297D01*
X51470092Y-78675678D01*
X51508187Y-78751869D01*
X51584378Y-78828059D01*
X51698663Y-78866154D01*
X51889139Y-78866154D01*
X51165330Y-78066154D02*
X50670092Y-78066154D01*
X50936758Y-78370916D01*
X50822473Y-78370916D01*
X50746282Y-78409011D01*
X50708187Y-78447107D01*
X50670092Y-78523297D01*
X50670092Y-78713773D01*
X50708187Y-78789964D01*
X50746282Y-78828059D01*
X50822473Y-78866154D01*
X51051044Y-78866154D01*
X51127235Y-78828059D01*
X51165330Y-78789964D01*
X62083916Y-88607107D02*
X62350583Y-88607107D01*
X62350583Y-89026154D02*
X62350583Y-88226154D01*
X61969630Y-88226154D01*
X61322011Y-88492821D02*
X61322011Y-89026154D01*
X61512488Y-88188059D02*
X61702964Y-88759488D01*
X61207726Y-88759488D01*
X62141059Y-98767107D02*
X62026773Y-98805202D01*
X61988678Y-98843297D01*
X61950583Y-98919488D01*
X61950583Y-99033773D01*
X61988678Y-99109964D01*
X62026773Y-99148059D01*
X62102964Y-99186154D01*
X62407726Y-99186154D01*
X62407726Y-98386154D01*
X62141059Y-98386154D01*
X62064869Y-98424250D01*
X62026773Y-98462345D01*
X61988678Y-98538535D01*
X61988678Y-98614726D01*
X62026773Y-98690916D01*
X62064869Y-98729011D01*
X62141059Y-98767107D01*
X62407726Y-98767107D01*
X61188678Y-99186154D02*
X61645821Y-99186154D01*
X61417250Y-99186154D02*
X61417250Y-98386154D01*
X61493440Y-98500440D01*
X61569630Y-98576630D01*
X61645821Y-98614726D01*
X62083916Y-91147107D02*
X62350583Y-91147107D01*
X62350583Y-91566154D02*
X62350583Y-90766154D01*
X61969630Y-90766154D01*
X61283916Y-90766154D02*
X61664869Y-90766154D01*
X61702964Y-91147107D01*
X61664869Y-91109011D01*
X61588678Y-91070916D01*
X61398202Y-91070916D01*
X61322011Y-91109011D01*
X61283916Y-91147107D01*
X61245821Y-91223297D01*
X61245821Y-91413773D01*
X61283916Y-91489964D01*
X61322011Y-91528059D01*
X61398202Y-91566154D01*
X61588678Y-91566154D01*
X61664869Y-91528059D01*
X61702964Y-91489964D01*
X51485726Y-89026154D02*
X51485726Y-88226154D01*
X51295250Y-88226154D01*
X51180964Y-88264250D01*
X51104773Y-88340440D01*
X51066678Y-88416630D01*
X51028583Y-88569011D01*
X51028583Y-88683297D01*
X51066678Y-88835678D01*
X51104773Y-88911869D01*
X51180964Y-88988059D01*
X51295250Y-89026154D01*
X51485726Y-89026154D01*
X50266678Y-89026154D02*
X50723821Y-89026154D01*
X50495250Y-89026154D02*
X50495250Y-88226154D01*
X50571440Y-88340440D01*
X50647630Y-88416630D01*
X50723821Y-88454726D01*
X51504773Y-85724250D02*
X51580964Y-85686154D01*
X51695250Y-85686154D01*
X51809535Y-85724250D01*
X51885726Y-85800440D01*
X51923821Y-85876630D01*
X51961916Y-86029011D01*
X51961916Y-86143297D01*
X51923821Y-86295678D01*
X51885726Y-86371869D01*
X51809535Y-86448059D01*
X51695250Y-86486154D01*
X51619059Y-86486154D01*
X51504773Y-86448059D01*
X51466678Y-86409964D01*
X51466678Y-86143297D01*
X51619059Y-86143297D01*
X51123821Y-86486154D02*
X51123821Y-85686154D01*
X50666678Y-86486154D01*
X50666678Y-85686154D01*
X50285726Y-86486154D02*
X50285726Y-85686154D01*
X50095250Y-85686154D01*
X49980964Y-85724250D01*
X49904773Y-85800440D01*
X49866678Y-85876630D01*
X49828583Y-86029011D01*
X49828583Y-86143297D01*
X49866678Y-86295678D01*
X49904773Y-86371869D01*
X49980964Y-86448059D01*
X50095250Y-86486154D01*
X50285726Y-86486154D01*
X51485726Y-91566154D02*
X51485726Y-90766154D01*
X51295250Y-90766154D01*
X51180964Y-90804250D01*
X51104773Y-90880440D01*
X51066678Y-90956630D01*
X51028583Y-91109011D01*
X51028583Y-91223297D01*
X51066678Y-91375678D01*
X51104773Y-91451869D01*
X51180964Y-91528059D01*
X51295250Y-91566154D01*
X51485726Y-91566154D01*
X50533345Y-90766154D02*
X50457154Y-90766154D01*
X50380964Y-90804250D01*
X50342869Y-90842345D01*
X50304773Y-90918535D01*
X50266678Y-91070916D01*
X50266678Y-91261392D01*
X50304773Y-91413773D01*
X50342869Y-91489964D01*
X50380964Y-91528059D01*
X50457154Y-91566154D01*
X50533345Y-91566154D01*
X50609535Y-91528059D01*
X50647630Y-91489964D01*
X50685726Y-91413773D01*
X50723821Y-91261392D01*
X50723821Y-91070916D01*
X50685726Y-90918535D01*
X50647630Y-90842345D01*
X50609535Y-90804250D01*
X50533345Y-90766154D01*
X51504773Y-83184250D02*
X51580964Y-83146154D01*
X51695250Y-83146154D01*
X51809535Y-83184250D01*
X51885726Y-83260440D01*
X51923821Y-83336630D01*
X51961916Y-83489011D01*
X51961916Y-83603297D01*
X51923821Y-83755678D01*
X51885726Y-83831869D01*
X51809535Y-83908059D01*
X51695250Y-83946154D01*
X51619059Y-83946154D01*
X51504773Y-83908059D01*
X51466678Y-83869964D01*
X51466678Y-83603297D01*
X51619059Y-83603297D01*
X51123821Y-83946154D02*
X51123821Y-83146154D01*
X50666678Y-83946154D01*
X50666678Y-83146154D01*
X50285726Y-83946154D02*
X50285726Y-83146154D01*
X50095250Y-83146154D01*
X49980964Y-83184250D01*
X49904773Y-83260440D01*
X49866678Y-83336630D01*
X49828583Y-83489011D01*
X49828583Y-83603297D01*
X49866678Y-83755678D01*
X49904773Y-83831869D01*
X49980964Y-83908059D01*
X50095250Y-83946154D01*
X50285726Y-83946154D01*
%TO.C,D12*%
X240577380Y-105941964D02*
X239577380Y-105941964D01*
X239577380Y-106180059D01*
X239625000Y-106322916D01*
X239720238Y-106418154D01*
X239815476Y-106465773D01*
X240005952Y-106513392D01*
X240148809Y-106513392D01*
X240339285Y-106465773D01*
X240434523Y-106418154D01*
X240529761Y-106322916D01*
X240577380Y-106180059D01*
X240577380Y-105941964D01*
X240577380Y-107465773D02*
X240577380Y-106894345D01*
X240577380Y-107180059D02*
X239577380Y-107180059D01*
X239720238Y-107084821D01*
X239815476Y-106989583D01*
X239863095Y-106894345D01*
X239672619Y-107846726D02*
X239625000Y-107894345D01*
X239577380Y-107989583D01*
X239577380Y-108227678D01*
X239625000Y-108322916D01*
X239672619Y-108370535D01*
X239767857Y-108418154D01*
X239863095Y-108418154D01*
X240005952Y-108370535D01*
X240577380Y-107799107D01*
X240577380Y-108418154D01*
%TO.C,D15*%
X183427380Y-105941964D02*
X182427380Y-105941964D01*
X182427380Y-106180059D01*
X182475000Y-106322916D01*
X182570238Y-106418154D01*
X182665476Y-106465773D01*
X182855952Y-106513392D01*
X182998809Y-106513392D01*
X183189285Y-106465773D01*
X183284523Y-106418154D01*
X183379761Y-106322916D01*
X183427380Y-106180059D01*
X183427380Y-105941964D01*
X183427380Y-107465773D02*
X183427380Y-106894345D01*
X183427380Y-107180059D02*
X182427380Y-107180059D01*
X182570238Y-107084821D01*
X182665476Y-106989583D01*
X182713095Y-106894345D01*
X182427380Y-108370535D02*
X182427380Y-107894345D01*
X182903571Y-107846726D01*
X182855952Y-107894345D01*
X182808333Y-107989583D01*
X182808333Y-108227678D01*
X182855952Y-108322916D01*
X182903571Y-108370535D01*
X182998809Y-108418154D01*
X183236904Y-108418154D01*
X183332142Y-108370535D01*
X183379761Y-108322916D01*
X183427380Y-108227678D01*
X183427380Y-107989583D01*
X183379761Y-107894345D01*
X183332142Y-107846726D01*
%TO.C,D25*%
X181839880Y-118641964D02*
X180839880Y-118641964D01*
X180839880Y-118880059D01*
X180887500Y-119022916D01*
X180982738Y-119118154D01*
X181077976Y-119165773D01*
X181268452Y-119213392D01*
X181411309Y-119213392D01*
X181601785Y-119165773D01*
X181697023Y-119118154D01*
X181792261Y-119022916D01*
X181839880Y-118880059D01*
X181839880Y-118641964D01*
X180935119Y-119594345D02*
X180887500Y-119641964D01*
X180839880Y-119737202D01*
X180839880Y-119975297D01*
X180887500Y-120070535D01*
X180935119Y-120118154D01*
X181030357Y-120165773D01*
X181125595Y-120165773D01*
X181268452Y-120118154D01*
X181839880Y-119546726D01*
X181839880Y-120165773D01*
X180839880Y-121070535D02*
X180839880Y-120594345D01*
X181316071Y-120546726D01*
X181268452Y-120594345D01*
X181220833Y-120689583D01*
X181220833Y-120927678D01*
X181268452Y-121022916D01*
X181316071Y-121070535D01*
X181411309Y-121118154D01*
X181649404Y-121118154D01*
X181744642Y-121070535D01*
X181792261Y-121022916D01*
X181839880Y-120927678D01*
X181839880Y-120689583D01*
X181792261Y-120594345D01*
X181744642Y-120546726D01*
%TO.C,D10*%
X88177380Y-86891964D02*
X87177380Y-86891964D01*
X87177380Y-87130059D01*
X87225000Y-87272916D01*
X87320238Y-87368154D01*
X87415476Y-87415773D01*
X87605952Y-87463392D01*
X87748809Y-87463392D01*
X87939285Y-87415773D01*
X88034523Y-87368154D01*
X88129761Y-87272916D01*
X88177380Y-87130059D01*
X88177380Y-86891964D01*
X88177380Y-88415773D02*
X88177380Y-87844345D01*
X88177380Y-88130059D02*
X87177380Y-88130059D01*
X87320238Y-88034821D01*
X87415476Y-87939583D01*
X87463095Y-87844345D01*
X87177380Y-89034821D02*
X87177380Y-89130059D01*
X87225000Y-89225297D01*
X87272619Y-89272916D01*
X87367857Y-89320535D01*
X87558333Y-89368154D01*
X87796428Y-89368154D01*
X87986904Y-89320535D01*
X88082142Y-89272916D01*
X88129761Y-89225297D01*
X88177380Y-89130059D01*
X88177380Y-89034821D01*
X88129761Y-88939583D01*
X88082142Y-88891964D01*
X87986904Y-88844345D01*
X87796428Y-88796726D01*
X87558333Y-88796726D01*
X87367857Y-88844345D01*
X87272619Y-88891964D01*
X87225000Y-88939583D01*
X87177380Y-89034821D01*
%TO.C,D1*%
X259627380Y-87368154D02*
X258627380Y-87368154D01*
X258627380Y-87606250D01*
X258675000Y-87749107D01*
X258770238Y-87844345D01*
X258865476Y-87891964D01*
X259055952Y-87939583D01*
X259198809Y-87939583D01*
X259389285Y-87891964D01*
X259484523Y-87844345D01*
X259579761Y-87749107D01*
X259627380Y-87606250D01*
X259627380Y-87368154D01*
X259627380Y-88891964D02*
X259627380Y-88320535D01*
X259627380Y-88606250D02*
X258627380Y-88606250D01*
X258770238Y-88511011D01*
X258865476Y-88415773D01*
X258913095Y-88320535D01*
%TO.C,D2*%
X240577380Y-87368154D02*
X239577380Y-87368154D01*
X239577380Y-87606250D01*
X239625000Y-87749107D01*
X239720238Y-87844345D01*
X239815476Y-87891964D01*
X240005952Y-87939583D01*
X240148809Y-87939583D01*
X240339285Y-87891964D01*
X240434523Y-87844345D01*
X240529761Y-87749107D01*
X240577380Y-87606250D01*
X240577380Y-87368154D01*
X239672619Y-88320535D02*
X239625000Y-88368154D01*
X239577380Y-88463392D01*
X239577380Y-88701488D01*
X239625000Y-88796726D01*
X239672619Y-88844345D01*
X239767857Y-88891964D01*
X239863095Y-88891964D01*
X240005952Y-88844345D01*
X240577380Y-88272916D01*
X240577380Y-88891964D01*
%TO.C,D28*%
X107227380Y-124991964D02*
X106227380Y-124991964D01*
X106227380Y-125230059D01*
X106275000Y-125372916D01*
X106370238Y-125468154D01*
X106465476Y-125515773D01*
X106655952Y-125563392D01*
X106798809Y-125563392D01*
X106989285Y-125515773D01*
X107084523Y-125468154D01*
X107179761Y-125372916D01*
X107227380Y-125230059D01*
X107227380Y-124991964D01*
X106322619Y-125944345D02*
X106275000Y-125991964D01*
X106227380Y-126087202D01*
X106227380Y-126325297D01*
X106275000Y-126420535D01*
X106322619Y-126468154D01*
X106417857Y-126515773D01*
X106513095Y-126515773D01*
X106655952Y-126468154D01*
X107227380Y-125896726D01*
X107227380Y-126515773D01*
X106655952Y-127087202D02*
X106608333Y-126991964D01*
X106560714Y-126944345D01*
X106465476Y-126896726D01*
X106417857Y-126896726D01*
X106322619Y-126944345D01*
X106275000Y-126991964D01*
X106227380Y-127087202D01*
X106227380Y-127277678D01*
X106275000Y-127372916D01*
X106322619Y-127420535D01*
X106417857Y-127468154D01*
X106465476Y-127468154D01*
X106560714Y-127420535D01*
X106608333Y-127372916D01*
X106655952Y-127277678D01*
X106655952Y-127087202D01*
X106703571Y-126991964D01*
X106751190Y-126944345D01*
X106846428Y-126896726D01*
X107036904Y-126896726D01*
X107132142Y-126944345D01*
X107179761Y-126991964D01*
X107227380Y-127087202D01*
X107227380Y-127277678D01*
X107179761Y-127372916D01*
X107132142Y-127420535D01*
X107036904Y-127468154D01*
X106846428Y-127468154D01*
X106751190Y-127420535D01*
X106703571Y-127372916D01*
X106655952Y-127277678D01*
%TO.C,D17*%
X145327380Y-105941964D02*
X144327380Y-105941964D01*
X144327380Y-106180059D01*
X144375000Y-106322916D01*
X144470238Y-106418154D01*
X144565476Y-106465773D01*
X144755952Y-106513392D01*
X144898809Y-106513392D01*
X145089285Y-106465773D01*
X145184523Y-106418154D01*
X145279761Y-106322916D01*
X145327380Y-106180059D01*
X145327380Y-105941964D01*
X145327380Y-107465773D02*
X145327380Y-106894345D01*
X145327380Y-107180059D02*
X144327380Y-107180059D01*
X144470238Y-107084821D01*
X144565476Y-106989583D01*
X144613095Y-106894345D01*
X144327380Y-107799107D02*
X144327380Y-108465773D01*
X145327380Y-108037202D01*
%TO.C,D19*%
X107227380Y-105941964D02*
X106227380Y-105941964D01*
X106227380Y-106180059D01*
X106275000Y-106322916D01*
X106370238Y-106418154D01*
X106465476Y-106465773D01*
X106655952Y-106513392D01*
X106798809Y-106513392D01*
X106989285Y-106465773D01*
X107084523Y-106418154D01*
X107179761Y-106322916D01*
X107227380Y-106180059D01*
X107227380Y-105941964D01*
X107227380Y-107465773D02*
X107227380Y-106894345D01*
X107227380Y-107180059D02*
X106227380Y-107180059D01*
X106370238Y-107084821D01*
X106465476Y-106989583D01*
X106513095Y-106894345D01*
X107227380Y-107941964D02*
X107227380Y-108132440D01*
X107179761Y-108227678D01*
X107132142Y-108275297D01*
X106989285Y-108370535D01*
X106798809Y-108418154D01*
X106417857Y-108418154D01*
X106322619Y-108370535D01*
X106275000Y-108322916D01*
X106227380Y-108227678D01*
X106227380Y-108037202D01*
X106275000Y-107941964D01*
X106322619Y-107894345D01*
X106417857Y-107846726D01*
X106655952Y-107846726D01*
X106751190Y-107894345D01*
X106798809Y-107941964D01*
X106846428Y-108037202D01*
X106846428Y-108227678D01*
X106798809Y-108322916D01*
X106751190Y-108370535D01*
X106655952Y-108418154D01*
%TO.C,D27*%
X126277380Y-124991964D02*
X125277380Y-124991964D01*
X125277380Y-125230059D01*
X125325000Y-125372916D01*
X125420238Y-125468154D01*
X125515476Y-125515773D01*
X125705952Y-125563392D01*
X125848809Y-125563392D01*
X126039285Y-125515773D01*
X126134523Y-125468154D01*
X126229761Y-125372916D01*
X126277380Y-125230059D01*
X126277380Y-124991964D01*
X125372619Y-125944345D02*
X125325000Y-125991964D01*
X125277380Y-126087202D01*
X125277380Y-126325297D01*
X125325000Y-126420535D01*
X125372619Y-126468154D01*
X125467857Y-126515773D01*
X125563095Y-126515773D01*
X125705952Y-126468154D01*
X126277380Y-125896726D01*
X126277380Y-126515773D01*
X125277380Y-126849107D02*
X125277380Y-127515773D01*
X126277380Y-127087202D01*
%TO.C,D14*%
X202477380Y-105941964D02*
X201477380Y-105941964D01*
X201477380Y-106180059D01*
X201525000Y-106322916D01*
X201620238Y-106418154D01*
X201715476Y-106465773D01*
X201905952Y-106513392D01*
X202048809Y-106513392D01*
X202239285Y-106465773D01*
X202334523Y-106418154D01*
X202429761Y-106322916D01*
X202477380Y-106180059D01*
X202477380Y-105941964D01*
X202477380Y-107465773D02*
X202477380Y-106894345D01*
X202477380Y-107180059D02*
X201477380Y-107180059D01*
X201620238Y-107084821D01*
X201715476Y-106989583D01*
X201763095Y-106894345D01*
X201810714Y-108322916D02*
X202477380Y-108322916D01*
X201429761Y-108084821D02*
X202144047Y-107846726D01*
X202144047Y-108465773D01*
%TO.C,D29*%
X88177380Y-124991964D02*
X87177380Y-124991964D01*
X87177380Y-125230059D01*
X87225000Y-125372916D01*
X87320238Y-125468154D01*
X87415476Y-125515773D01*
X87605952Y-125563392D01*
X87748809Y-125563392D01*
X87939285Y-125515773D01*
X88034523Y-125468154D01*
X88129761Y-125372916D01*
X88177380Y-125230059D01*
X88177380Y-124991964D01*
X87272619Y-125944345D02*
X87225000Y-125991964D01*
X87177380Y-126087202D01*
X87177380Y-126325297D01*
X87225000Y-126420535D01*
X87272619Y-126468154D01*
X87367857Y-126515773D01*
X87463095Y-126515773D01*
X87605952Y-126468154D01*
X88177380Y-125896726D01*
X88177380Y-126515773D01*
X88177380Y-126991964D02*
X88177380Y-127182440D01*
X88129761Y-127277678D01*
X88082142Y-127325297D01*
X87939285Y-127420535D01*
X87748809Y-127468154D01*
X87367857Y-127468154D01*
X87272619Y-127420535D01*
X87225000Y-127372916D01*
X87177380Y-127277678D01*
X87177380Y-127087202D01*
X87225000Y-126991964D01*
X87272619Y-126944345D01*
X87367857Y-126896726D01*
X87605952Y-126896726D01*
X87701190Y-126944345D01*
X87748809Y-126991964D01*
X87796428Y-127087202D01*
X87796428Y-127277678D01*
X87748809Y-127372916D01*
X87701190Y-127420535D01*
X87605952Y-127468154D01*
%TO.C,D24*%
X202477380Y-124991964D02*
X201477380Y-124991964D01*
X201477380Y-125230059D01*
X201525000Y-125372916D01*
X201620238Y-125468154D01*
X201715476Y-125515773D01*
X201905952Y-125563392D01*
X202048809Y-125563392D01*
X202239285Y-125515773D01*
X202334523Y-125468154D01*
X202429761Y-125372916D01*
X202477380Y-125230059D01*
X202477380Y-124991964D01*
X201572619Y-125944345D02*
X201525000Y-125991964D01*
X201477380Y-126087202D01*
X201477380Y-126325297D01*
X201525000Y-126420535D01*
X201572619Y-126468154D01*
X201667857Y-126515773D01*
X201763095Y-126515773D01*
X201905952Y-126468154D01*
X202477380Y-125896726D01*
X202477380Y-126515773D01*
X201810714Y-127372916D02*
X202477380Y-127372916D01*
X201429761Y-127134821D02*
X202144047Y-126896726D01*
X202144047Y-127515773D01*
%TO.C,D8*%
X126277380Y-87368154D02*
X125277380Y-87368154D01*
X125277380Y-87606250D01*
X125325000Y-87749107D01*
X125420238Y-87844345D01*
X125515476Y-87891964D01*
X125705952Y-87939583D01*
X125848809Y-87939583D01*
X126039285Y-87891964D01*
X126134523Y-87844345D01*
X126229761Y-87749107D01*
X126277380Y-87606250D01*
X126277380Y-87368154D01*
X125705952Y-88511011D02*
X125658333Y-88415773D01*
X125610714Y-88368154D01*
X125515476Y-88320535D01*
X125467857Y-88320535D01*
X125372619Y-88368154D01*
X125325000Y-88415773D01*
X125277380Y-88511011D01*
X125277380Y-88701488D01*
X125325000Y-88796726D01*
X125372619Y-88844345D01*
X125467857Y-88891964D01*
X125515476Y-88891964D01*
X125610714Y-88844345D01*
X125658333Y-88796726D01*
X125705952Y-88701488D01*
X125705952Y-88511011D01*
X125753571Y-88415773D01*
X125801190Y-88368154D01*
X125896428Y-88320535D01*
X126086904Y-88320535D01*
X126182142Y-88368154D01*
X126229761Y-88415773D01*
X126277380Y-88511011D01*
X126277380Y-88701488D01*
X126229761Y-88796726D01*
X126182142Y-88844345D01*
X126086904Y-88891964D01*
X125896428Y-88891964D01*
X125801190Y-88844345D01*
X125753571Y-88796726D01*
X125705952Y-88701488D01*
%TO.C,D5*%
X183427380Y-87368154D02*
X182427380Y-87368154D01*
X182427380Y-87606250D01*
X182475000Y-87749107D01*
X182570238Y-87844345D01*
X182665476Y-87891964D01*
X182855952Y-87939583D01*
X182998809Y-87939583D01*
X183189285Y-87891964D01*
X183284523Y-87844345D01*
X183379761Y-87749107D01*
X183427380Y-87606250D01*
X183427380Y-87368154D01*
X182427380Y-88844345D02*
X182427380Y-88368154D01*
X182903571Y-88320535D01*
X182855952Y-88368154D01*
X182808333Y-88463392D01*
X182808333Y-88701488D01*
X182855952Y-88796726D01*
X182903571Y-88844345D01*
X182998809Y-88891964D01*
X183236904Y-88891964D01*
X183332142Y-88844345D01*
X183379761Y-88796726D01*
X183427380Y-88701488D01*
X183427380Y-88463392D01*
X183379761Y-88368154D01*
X183332142Y-88320535D01*
%TO.C,D9*%
X107227380Y-87368154D02*
X106227380Y-87368154D01*
X106227380Y-87606250D01*
X106275000Y-87749107D01*
X106370238Y-87844345D01*
X106465476Y-87891964D01*
X106655952Y-87939583D01*
X106798809Y-87939583D01*
X106989285Y-87891964D01*
X107084523Y-87844345D01*
X107179761Y-87749107D01*
X107227380Y-87606250D01*
X107227380Y-87368154D01*
X107227380Y-88415773D02*
X107227380Y-88606250D01*
X107179761Y-88701488D01*
X107132142Y-88749107D01*
X106989285Y-88844345D01*
X106798809Y-88891964D01*
X106417857Y-88891964D01*
X106322619Y-88844345D01*
X106275000Y-88796726D01*
X106227380Y-88701488D01*
X106227380Y-88511011D01*
X106275000Y-88415773D01*
X106322619Y-88368154D01*
X106417857Y-88320535D01*
X106655952Y-88320535D01*
X106751190Y-88368154D01*
X106798809Y-88415773D01*
X106846428Y-88511011D01*
X106846428Y-88701488D01*
X106798809Y-88796726D01*
X106751190Y-88844345D01*
X106655952Y-88891964D01*
%TO.C,D6*%
X164377380Y-87368154D02*
X163377380Y-87368154D01*
X163377380Y-87606250D01*
X163425000Y-87749107D01*
X163520238Y-87844345D01*
X163615476Y-87891964D01*
X163805952Y-87939583D01*
X163948809Y-87939583D01*
X164139285Y-87891964D01*
X164234523Y-87844345D01*
X164329761Y-87749107D01*
X164377380Y-87606250D01*
X164377380Y-87368154D01*
X163377380Y-88796726D02*
X163377380Y-88606250D01*
X163425000Y-88511011D01*
X163472619Y-88463392D01*
X163615476Y-88368154D01*
X163805952Y-88320535D01*
X164186904Y-88320535D01*
X164282142Y-88368154D01*
X164329761Y-88415773D01*
X164377380Y-88511011D01*
X164377380Y-88701488D01*
X164329761Y-88796726D01*
X164282142Y-88844345D01*
X164186904Y-88891964D01*
X163948809Y-88891964D01*
X163853571Y-88844345D01*
X163805952Y-88796726D01*
X163758333Y-88701488D01*
X163758333Y-88511011D01*
X163805952Y-88415773D01*
X163853571Y-88368154D01*
X163948809Y-88320535D01*
%TO.C,D7*%
X145327380Y-87368154D02*
X144327380Y-87368154D01*
X144327380Y-87606250D01*
X144375000Y-87749107D01*
X144470238Y-87844345D01*
X144565476Y-87891964D01*
X144755952Y-87939583D01*
X144898809Y-87939583D01*
X145089285Y-87891964D01*
X145184523Y-87844345D01*
X145279761Y-87749107D01*
X145327380Y-87606250D01*
X145327380Y-87368154D01*
X144327380Y-88272916D02*
X144327380Y-88939583D01*
X145327380Y-88511011D01*
%TO.C,D18*%
X126277380Y-105941964D02*
X125277380Y-105941964D01*
X125277380Y-106180059D01*
X125325000Y-106322916D01*
X125420238Y-106418154D01*
X125515476Y-106465773D01*
X125705952Y-106513392D01*
X125848809Y-106513392D01*
X126039285Y-106465773D01*
X126134523Y-106418154D01*
X126229761Y-106322916D01*
X126277380Y-106180059D01*
X126277380Y-105941964D01*
X126277380Y-107465773D02*
X126277380Y-106894345D01*
X126277380Y-107180059D02*
X125277380Y-107180059D01*
X125420238Y-107084821D01*
X125515476Y-106989583D01*
X125563095Y-106894345D01*
X125705952Y-108037202D02*
X125658333Y-107941964D01*
X125610714Y-107894345D01*
X125515476Y-107846726D01*
X125467857Y-107846726D01*
X125372619Y-107894345D01*
X125325000Y-107941964D01*
X125277380Y-108037202D01*
X125277380Y-108227678D01*
X125325000Y-108322916D01*
X125372619Y-108370535D01*
X125467857Y-108418154D01*
X125515476Y-108418154D01*
X125610714Y-108370535D01*
X125658333Y-108322916D01*
X125705952Y-108227678D01*
X125705952Y-108037202D01*
X125753571Y-107941964D01*
X125801190Y-107894345D01*
X125896428Y-107846726D01*
X126086904Y-107846726D01*
X126182142Y-107894345D01*
X126229761Y-107941964D01*
X126277380Y-108037202D01*
X126277380Y-108227678D01*
X126229761Y-108322916D01*
X126182142Y-108370535D01*
X126086904Y-108418154D01*
X125896428Y-108418154D01*
X125801190Y-108370535D01*
X125753571Y-108322916D01*
X125705952Y-108227678D01*
%TO.C,D4*%
X202477380Y-87368154D02*
X201477380Y-87368154D01*
X201477380Y-87606250D01*
X201525000Y-87749107D01*
X201620238Y-87844345D01*
X201715476Y-87891964D01*
X201905952Y-87939583D01*
X202048809Y-87939583D01*
X202239285Y-87891964D01*
X202334523Y-87844345D01*
X202429761Y-87749107D01*
X202477380Y-87606250D01*
X202477380Y-87368154D01*
X201810714Y-88796726D02*
X202477380Y-88796726D01*
X201429761Y-88558630D02*
X202144047Y-88320535D01*
X202144047Y-88939583D01*
%TO.C,D21*%
X259627380Y-124991964D02*
X258627380Y-124991964D01*
X258627380Y-125230059D01*
X258675000Y-125372916D01*
X258770238Y-125468154D01*
X258865476Y-125515773D01*
X259055952Y-125563392D01*
X259198809Y-125563392D01*
X259389285Y-125515773D01*
X259484523Y-125468154D01*
X259579761Y-125372916D01*
X259627380Y-125230059D01*
X259627380Y-124991964D01*
X258722619Y-125944345D02*
X258675000Y-125991964D01*
X258627380Y-126087202D01*
X258627380Y-126325297D01*
X258675000Y-126420535D01*
X258722619Y-126468154D01*
X258817857Y-126515773D01*
X258913095Y-126515773D01*
X259055952Y-126468154D01*
X259627380Y-125896726D01*
X259627380Y-126515773D01*
X259627380Y-127468154D02*
X259627380Y-126896726D01*
X259627380Y-127182440D02*
X258627380Y-127182440D01*
X258770238Y-127087202D01*
X258865476Y-126991964D01*
X258913095Y-126896726D01*
%TO.C,D23*%
X221527380Y-124991964D02*
X220527380Y-124991964D01*
X220527380Y-125230059D01*
X220575000Y-125372916D01*
X220670238Y-125468154D01*
X220765476Y-125515773D01*
X220955952Y-125563392D01*
X221098809Y-125563392D01*
X221289285Y-125515773D01*
X221384523Y-125468154D01*
X221479761Y-125372916D01*
X221527380Y-125230059D01*
X221527380Y-124991964D01*
X220622619Y-125944345D02*
X220575000Y-125991964D01*
X220527380Y-126087202D01*
X220527380Y-126325297D01*
X220575000Y-126420535D01*
X220622619Y-126468154D01*
X220717857Y-126515773D01*
X220813095Y-126515773D01*
X220955952Y-126468154D01*
X221527380Y-125896726D01*
X221527380Y-126515773D01*
X220527380Y-126849107D02*
X220527380Y-127468154D01*
X220908333Y-127134821D01*
X220908333Y-127277678D01*
X220955952Y-127372916D01*
X221003571Y-127420535D01*
X221098809Y-127468154D01*
X221336904Y-127468154D01*
X221432142Y-127420535D01*
X221479761Y-127372916D01*
X221527380Y-127277678D01*
X221527380Y-126991964D01*
X221479761Y-126896726D01*
X221432142Y-126849107D01*
%TO.C,D11*%
X259627380Y-105941964D02*
X258627380Y-105941964D01*
X258627380Y-106180059D01*
X258675000Y-106322916D01*
X258770238Y-106418154D01*
X258865476Y-106465773D01*
X259055952Y-106513392D01*
X259198809Y-106513392D01*
X259389285Y-106465773D01*
X259484523Y-106418154D01*
X259579761Y-106322916D01*
X259627380Y-106180059D01*
X259627380Y-105941964D01*
X259627380Y-107465773D02*
X259627380Y-106894345D01*
X259627380Y-107180059D02*
X258627380Y-107180059D01*
X258770238Y-107084821D01*
X258865476Y-106989583D01*
X258913095Y-106894345D01*
X259627380Y-108418154D02*
X259627380Y-107846726D01*
X259627380Y-108132440D02*
X258627380Y-108132440D01*
X258770238Y-108037202D01*
X258865476Y-107941964D01*
X258913095Y-107846726D01*
%TO.C,D20*%
X88177380Y-105941964D02*
X87177380Y-105941964D01*
X87177380Y-106180059D01*
X87225000Y-106322916D01*
X87320238Y-106418154D01*
X87415476Y-106465773D01*
X87605952Y-106513392D01*
X87748809Y-106513392D01*
X87939285Y-106465773D01*
X88034523Y-106418154D01*
X88129761Y-106322916D01*
X88177380Y-106180059D01*
X88177380Y-105941964D01*
X87272619Y-106894345D02*
X87225000Y-106941964D01*
X87177380Y-107037202D01*
X87177380Y-107275297D01*
X87225000Y-107370535D01*
X87272619Y-107418154D01*
X87367857Y-107465773D01*
X87463095Y-107465773D01*
X87605952Y-107418154D01*
X88177380Y-106846726D01*
X88177380Y-107465773D01*
X87177380Y-108084821D02*
X87177380Y-108180059D01*
X87225000Y-108275297D01*
X87272619Y-108322916D01*
X87367857Y-108370535D01*
X87558333Y-108418154D01*
X87796428Y-108418154D01*
X87986904Y-108370535D01*
X88082142Y-108322916D01*
X88129761Y-108275297D01*
X88177380Y-108180059D01*
X88177380Y-108084821D01*
X88129761Y-107989583D01*
X88082142Y-107941964D01*
X87986904Y-107894345D01*
X87796428Y-107846726D01*
X87558333Y-107846726D01*
X87367857Y-107894345D01*
X87272619Y-107941964D01*
X87225000Y-107989583D01*
X87177380Y-108084821D01*
%TO.C,D22*%
X240577380Y-124991964D02*
X239577380Y-124991964D01*
X239577380Y-125230059D01*
X239625000Y-125372916D01*
X239720238Y-125468154D01*
X239815476Y-125515773D01*
X240005952Y-125563392D01*
X240148809Y-125563392D01*
X240339285Y-125515773D01*
X240434523Y-125468154D01*
X240529761Y-125372916D01*
X240577380Y-125230059D01*
X240577380Y-124991964D01*
X239672619Y-125944345D02*
X239625000Y-125991964D01*
X239577380Y-126087202D01*
X239577380Y-126325297D01*
X239625000Y-126420535D01*
X239672619Y-126468154D01*
X239767857Y-126515773D01*
X239863095Y-126515773D01*
X240005952Y-126468154D01*
X240577380Y-125896726D01*
X240577380Y-126515773D01*
X239672619Y-126896726D02*
X239625000Y-126944345D01*
X239577380Y-127039583D01*
X239577380Y-127277678D01*
X239625000Y-127372916D01*
X239672619Y-127420535D01*
X239767857Y-127468154D01*
X239863095Y-127468154D01*
X240005952Y-127420535D01*
X240577380Y-126849107D01*
X240577380Y-127468154D01*
%TO.C,D16*%
X164377380Y-105941964D02*
X163377380Y-105941964D01*
X163377380Y-106180059D01*
X163425000Y-106322916D01*
X163520238Y-106418154D01*
X163615476Y-106465773D01*
X163805952Y-106513392D01*
X163948809Y-106513392D01*
X164139285Y-106465773D01*
X164234523Y-106418154D01*
X164329761Y-106322916D01*
X164377380Y-106180059D01*
X164377380Y-105941964D01*
X164377380Y-107465773D02*
X164377380Y-106894345D01*
X164377380Y-107180059D02*
X163377380Y-107180059D01*
X163520238Y-107084821D01*
X163615476Y-106989583D01*
X163663095Y-106894345D01*
X163377380Y-108322916D02*
X163377380Y-108132440D01*
X163425000Y-108037202D01*
X163472619Y-107989583D01*
X163615476Y-107894345D01*
X163805952Y-107846726D01*
X164186904Y-107846726D01*
X164282142Y-107894345D01*
X164329761Y-107941964D01*
X164377380Y-108037202D01*
X164377380Y-108227678D01*
X164329761Y-108322916D01*
X164282142Y-108370535D01*
X164186904Y-108418154D01*
X163948809Y-108418154D01*
X163853571Y-108370535D01*
X163805952Y-108322916D01*
X163758333Y-108227678D01*
X163758333Y-108037202D01*
X163805952Y-107941964D01*
X163853571Y-107894345D01*
X163948809Y-107846726D01*
%TO.C,D26*%
X145327380Y-124991964D02*
X144327380Y-124991964D01*
X144327380Y-125230059D01*
X144375000Y-125372916D01*
X144470238Y-125468154D01*
X144565476Y-125515773D01*
X144755952Y-125563392D01*
X144898809Y-125563392D01*
X145089285Y-125515773D01*
X145184523Y-125468154D01*
X145279761Y-125372916D01*
X145327380Y-125230059D01*
X145327380Y-124991964D01*
X144422619Y-125944345D02*
X144375000Y-125991964D01*
X144327380Y-126087202D01*
X144327380Y-126325297D01*
X144375000Y-126420535D01*
X144422619Y-126468154D01*
X144517857Y-126515773D01*
X144613095Y-126515773D01*
X144755952Y-126468154D01*
X145327380Y-125896726D01*
X145327380Y-126515773D01*
X144327380Y-127372916D02*
X144327380Y-127182440D01*
X144375000Y-127087202D01*
X144422619Y-127039583D01*
X144565476Y-126944345D01*
X144755952Y-126896726D01*
X145136904Y-126896726D01*
X145232142Y-126944345D01*
X145279761Y-126991964D01*
X145327380Y-127087202D01*
X145327380Y-127277678D01*
X145279761Y-127372916D01*
X145232142Y-127420535D01*
X145136904Y-127468154D01*
X144898809Y-127468154D01*
X144803571Y-127420535D01*
X144755952Y-127372916D01*
X144708333Y-127277678D01*
X144708333Y-127087202D01*
X144755952Y-126991964D01*
X144803571Y-126944345D01*
X144898809Y-126896726D01*
%TO.C,D13*%
X221527380Y-105941964D02*
X220527380Y-105941964D01*
X220527380Y-106180059D01*
X220575000Y-106322916D01*
X220670238Y-106418154D01*
X220765476Y-106465773D01*
X220955952Y-106513392D01*
X221098809Y-106513392D01*
X221289285Y-106465773D01*
X221384523Y-106418154D01*
X221479761Y-106322916D01*
X221527380Y-106180059D01*
X221527380Y-105941964D01*
X221527380Y-107465773D02*
X221527380Y-106894345D01*
X221527380Y-107180059D02*
X220527380Y-107180059D01*
X220670238Y-107084821D01*
X220765476Y-106989583D01*
X220813095Y-106894345D01*
X220527380Y-107799107D02*
X220527380Y-108418154D01*
X220908333Y-108084821D01*
X220908333Y-108227678D01*
X220955952Y-108322916D01*
X221003571Y-108370535D01*
X221098809Y-108418154D01*
X221336904Y-108418154D01*
X221432142Y-108370535D01*
X221479761Y-108322916D01*
X221527380Y-108227678D01*
X221527380Y-107941964D01*
X221479761Y-107846726D01*
X221432142Y-107799107D01*
%TO.C,D3*%
X221527380Y-87368154D02*
X220527380Y-87368154D01*
X220527380Y-87606250D01*
X220575000Y-87749107D01*
X220670238Y-87844345D01*
X220765476Y-87891964D01*
X220955952Y-87939583D01*
X221098809Y-87939583D01*
X221289285Y-87891964D01*
X221384523Y-87844345D01*
X221479761Y-87749107D01*
X221527380Y-87606250D01*
X221527380Y-87368154D01*
X220527380Y-88272916D02*
X220527380Y-88891964D01*
X220908333Y-88558630D01*
X220908333Y-88701488D01*
X220955952Y-88796726D01*
X221003571Y-88844345D01*
X221098809Y-88891964D01*
X221336904Y-88891964D01*
X221432142Y-88844345D01*
X221479761Y-88796726D01*
X221527380Y-88701488D01*
X221527380Y-88415773D01*
X221479761Y-88320535D01*
X221432142Y-88272916D01*
D11*
%TO.C,U1*%
X47466250Y-74694250D02*
X47466250Y-107714250D01*
X65246250Y-74694250D02*
X47466250Y-74694250D01*
X65246250Y-107714250D02*
X65246250Y-74694250D01*
X50006250Y-79774250D02*
X47466250Y-79774250D01*
X50006250Y-77234250D02*
X50006250Y-79774250D01*
X50006250Y-77234250D02*
X47466250Y-77234250D01*
X47466250Y-107714250D02*
X65246250Y-107714250D01*
G36*
X62700885Y-83223280D02*
G01*
X62200885Y-83223280D01*
X62200885Y-83123280D01*
X62700885Y-83123280D01*
X62700885Y-83223280D01*
G37*
D10*
X62700885Y-83223280D02*
X62200885Y-83223280D01*
X62200885Y-83123280D01*
X62700885Y-83123280D01*
X62700885Y-83223280D01*
G36*
X62500885Y-83623280D02*
G01*
X62400885Y-83623280D01*
X62400885Y-83523280D01*
X62500885Y-83523280D01*
X62500885Y-83623280D01*
G37*
X62500885Y-83623280D02*
X62400885Y-83623280D01*
X62400885Y-83523280D01*
X62500885Y-83523280D01*
X62500885Y-83623280D01*
G36*
X62300885Y-83923280D02*
G01*
X62200885Y-83923280D01*
X62200885Y-83723280D01*
X62300885Y-83723280D01*
X62300885Y-83923280D01*
G37*
X62300885Y-83923280D02*
X62200885Y-83923280D01*
X62200885Y-83723280D01*
X62300885Y-83723280D01*
X62300885Y-83923280D01*
G36*
X62700885Y-83923280D02*
G01*
X62600885Y-83923280D01*
X62600885Y-83123280D01*
X62700885Y-83123280D01*
X62700885Y-83923280D01*
G37*
X62700885Y-83923280D02*
X62600885Y-83923280D01*
X62600885Y-83123280D01*
X62700885Y-83123280D01*
X62700885Y-83923280D01*
G36*
X62300885Y-83423280D02*
G01*
X62200885Y-83423280D01*
X62200885Y-83123280D01*
X62300885Y-83123280D01*
X62300885Y-83423280D01*
G37*
X62300885Y-83423280D02*
X62200885Y-83423280D01*
X62200885Y-83123280D01*
X62300885Y-83123280D01*
X62300885Y-83423280D01*
D12*
%TO.C,D12*%
X239125000Y-109406250D02*
X239125000Y-105506250D01*
X237125000Y-109406250D02*
X237125000Y-105506250D01*
X239125000Y-109406250D02*
X237125000Y-109406250D01*
%TO.C,SW10*%
X77493750Y-79331250D02*
X74450857Y-79331250D01*
X74450857Y-79331250D02*
G75*
G03*
X73450857Y-80331250I6J-1000006D01*
G01*
%TO.C,D15*%
X181975000Y-109406250D02*
X179975000Y-109406250D01*
X179975000Y-109406250D02*
X179975000Y-105506250D01*
X181975000Y-109406250D02*
X181975000Y-105506250D01*
%TO.C,SW11*%
X248943750Y-98381250D02*
X245900857Y-98381250D01*
X245900857Y-98381250D02*
G75*
G03*
X244900857Y-99381250I6J-1000006D01*
G01*
%TO.C,SW27*%
X115593750Y-117431250D02*
X112550857Y-117431250D01*
X112550857Y-117431250D02*
G75*
G03*
X111550857Y-118431250I6J-1000006D01*
G01*
%TO.C,D25*%
X180387500Y-122106250D02*
X178387500Y-122106250D01*
X178387500Y-122106250D02*
X178387500Y-118206250D01*
X180387500Y-122106250D02*
X180387500Y-118206250D01*
%TO.C,SW29*%
X77493750Y-117431250D02*
X74450857Y-117431250D01*
X74450857Y-117431250D02*
G75*
G03*
X73450857Y-118431250I6J-1000006D01*
G01*
%TO.C,SW9*%
X96543750Y-79331250D02*
X93500857Y-79331250D01*
X93500857Y-79331250D02*
G75*
G03*
X92500857Y-80331250I6J-1000006D01*
G01*
%TO.C,SW26*%
X134643750Y-117431250D02*
X131600857Y-117431250D01*
X131600857Y-117431250D02*
G75*
G03*
X130600857Y-118431250I6J-1000006D01*
G01*
%TO.C,D10*%
X86725000Y-90356250D02*
X86725000Y-86456250D01*
X86725000Y-90356250D02*
X84725000Y-90356250D01*
X84725000Y-90356250D02*
X84725000Y-86456250D01*
%TO.C,SW16*%
X153693750Y-98381250D02*
X150650857Y-98381250D01*
X150650857Y-98381250D02*
G75*
G03*
X149650857Y-99381250I6J-1000006D01*
G01*
%TO.C,D1*%
X258175000Y-90356250D02*
X258175000Y-86456250D01*
X258175000Y-90356250D02*
X256175000Y-90356250D01*
X256175000Y-90356250D02*
X256175000Y-86456250D01*
%TO.C,SW18*%
X115593750Y-98381250D02*
X112550857Y-98381250D01*
X112550857Y-98381250D02*
G75*
G03*
X111550857Y-99381250I6J-1000006D01*
G01*
%TO.C,SW12*%
X229893750Y-98381250D02*
X226850857Y-98381250D01*
X226850857Y-98381250D02*
G75*
G03*
X225850857Y-99381250I6J-1000006D01*
G01*
%TO.C,SW19*%
X96543750Y-98381250D02*
X93500857Y-98381250D01*
X93500857Y-98381250D02*
G75*
G03*
X92500857Y-99381250I6J-1000006D01*
G01*
%TO.C,SW21*%
X248943750Y-117431250D02*
X245900857Y-117431250D01*
X245900857Y-117431250D02*
G75*
G03*
X244900857Y-118431250I6J-1000006D01*
G01*
%TO.C,D2*%
X237125000Y-90356250D02*
X237125000Y-86456250D01*
X239125000Y-90356250D02*
X239125000Y-86456250D01*
X239125000Y-90356250D02*
X237125000Y-90356250D01*
%TO.C,SW4*%
X191793750Y-79331250D02*
X188750857Y-79331250D01*
X188750857Y-79331250D02*
G75*
G03*
X187750857Y-80331250I6J-1000006D01*
G01*
%TO.C,D28*%
X105775000Y-128456250D02*
X103775000Y-128456250D01*
X105775000Y-128456250D02*
X105775000Y-124556250D01*
X103775000Y-128456250D02*
X103775000Y-124556250D01*
%TO.C,D17*%
X143875000Y-109406250D02*
X143875000Y-105506250D01*
X141875000Y-109406250D02*
X141875000Y-105506250D01*
X143875000Y-109406250D02*
X141875000Y-109406250D01*
%TO.C,SW22*%
X229893750Y-117431250D02*
X226850857Y-117431250D01*
X226850857Y-117431250D02*
G75*
G03*
X225850857Y-118431250I6J-1000006D01*
G01*
%TO.C,D19*%
X105775000Y-109406250D02*
X103775000Y-109406250D01*
X103775000Y-109406250D02*
X103775000Y-105506250D01*
X105775000Y-109406250D02*
X105775000Y-105506250D01*
%TO.C,D27*%
X124825000Y-128456250D02*
X124825000Y-124556250D01*
X124825000Y-128456250D02*
X122825000Y-128456250D01*
X122825000Y-128456250D02*
X122825000Y-124556250D01*
%TO.C,SW7*%
X134643750Y-79331250D02*
X131600857Y-79331250D01*
X131600857Y-79331250D02*
G75*
G03*
X130600857Y-80331250I6J-1000006D01*
G01*
%TO.C,SW15*%
X172743750Y-98381250D02*
X169700857Y-98381250D01*
X169700857Y-98381250D02*
G75*
G03*
X168700857Y-99381250I6J-1000006D01*
G01*
%TO.C,SW6*%
X153693750Y-79331250D02*
X150650857Y-79331250D01*
X150650857Y-79331250D02*
G75*
G03*
X149650857Y-80331250I6J-1000006D01*
G01*
%TO.C,D14*%
X201025000Y-109406250D02*
X199025000Y-109406250D01*
X201025000Y-109406250D02*
X201025000Y-105506250D01*
X199025000Y-109406250D02*
X199025000Y-105506250D01*
%TO.C,D29*%
X86725000Y-128456250D02*
X86725000Y-124556250D01*
X86725000Y-128456250D02*
X84725000Y-128456250D01*
X84725000Y-128456250D02*
X84725000Y-124556250D01*
%TO.C,D24*%
X199025000Y-128456250D02*
X199025000Y-124556250D01*
X201025000Y-128456250D02*
X199025000Y-128456250D01*
X201025000Y-128456250D02*
X201025000Y-124556250D01*
%TO.C,SW13*%
X210843750Y-98381250D02*
X207800857Y-98381250D01*
X207800857Y-98381250D02*
G75*
G03*
X206800857Y-99381250I6J-1000006D01*
G01*
%TO.C,D8*%
X122825000Y-90356250D02*
X122825000Y-86456250D01*
X124825000Y-90356250D02*
X124825000Y-86456250D01*
X124825000Y-90356250D02*
X122825000Y-90356250D01*
%TO.C,SW1*%
X248943750Y-79331250D02*
X245900857Y-79331250D01*
X245900857Y-79331250D02*
G75*
G03*
X244900857Y-80331250I6J-1000006D01*
G01*
%TO.C,D5*%
X179975000Y-90356250D02*
X179975000Y-86456250D01*
X181975000Y-90356250D02*
X181975000Y-86456250D01*
X181975000Y-90356250D02*
X179975000Y-90356250D01*
%TO.C,SW8*%
X115593750Y-79331250D02*
X112550857Y-79331250D01*
X112550857Y-79331250D02*
G75*
G03*
X111550857Y-80331250I6J-1000006D01*
G01*
%TO.C,SW17*%
X134643750Y-98381250D02*
X131600857Y-98381250D01*
X131600857Y-98381250D02*
G75*
G03*
X130600857Y-99381250I6J-1000006D01*
G01*
%TO.C,SW23*%
X210843750Y-117431250D02*
X207800857Y-117431250D01*
X207800857Y-117431250D02*
G75*
G03*
X206800857Y-118431250I6J-1000006D01*
G01*
%TO.C,D9*%
X105775000Y-90356250D02*
X105775000Y-86456250D01*
X103775000Y-90356250D02*
X103775000Y-86456250D01*
X105775000Y-90356250D02*
X103775000Y-90356250D01*
%TO.C,D6*%
X162925000Y-90356250D02*
X162925000Y-86456250D01*
X162925000Y-90356250D02*
X160925000Y-90356250D01*
X160925000Y-90356250D02*
X160925000Y-86456250D01*
%TO.C,D7*%
X143875000Y-90356250D02*
X141875000Y-90356250D01*
X141875000Y-90356250D02*
X141875000Y-86456250D01*
X143875000Y-90356250D02*
X143875000Y-86456250D01*
%TO.C,D18*%
X122825000Y-109406250D02*
X122825000Y-105506250D01*
X124825000Y-109406250D02*
X124825000Y-105506250D01*
X124825000Y-109406250D02*
X122825000Y-109406250D01*
%TO.C,D4*%
X201025000Y-90356250D02*
X199025000Y-90356250D01*
X201025000Y-90356250D02*
X201025000Y-86456250D01*
X199025000Y-90356250D02*
X199025000Y-86456250D01*
%TO.C,D21*%
X258175000Y-128456250D02*
X256175000Y-128456250D01*
X258175000Y-128456250D02*
X258175000Y-124556250D01*
X256175000Y-128456250D02*
X256175000Y-124556250D01*
%TO.C,D23*%
X220075000Y-128456250D02*
X218075000Y-128456250D01*
X218075000Y-128456250D02*
X218075000Y-124556250D01*
X220075000Y-128456250D02*
X220075000Y-124556250D01*
%TO.C,SW28*%
X96543750Y-117431250D02*
X93500857Y-117431250D01*
X93500857Y-117431250D02*
G75*
G03*
X92500857Y-118431250I6J-1000006D01*
G01*
%TO.C,D11*%
X258175000Y-109406250D02*
X256175000Y-109406250D01*
X256175000Y-109406250D02*
X256175000Y-105506250D01*
X258175000Y-109406250D02*
X258175000Y-105506250D01*
%TO.C,SW20*%
X77493750Y-98381250D02*
X74450857Y-98381250D01*
X74450857Y-98381250D02*
G75*
G03*
X73450857Y-99381250I6J-1000006D01*
G01*
%TO.C,D20*%
X86725000Y-109406250D02*
X84725000Y-109406250D01*
X84725000Y-109406250D02*
X84725000Y-105506250D01*
X86725000Y-109406250D02*
X86725000Y-105506250D01*
%TO.C,D22*%
X239125000Y-128456250D02*
X239125000Y-124556250D01*
X237125000Y-128456250D02*
X237125000Y-124556250D01*
X239125000Y-128456250D02*
X237125000Y-128456250D01*
%TO.C,SW25*%
X163218750Y-117431250D02*
X160175857Y-117431250D01*
X160175857Y-117431250D02*
G75*
G03*
X159175857Y-118431250I6J-1000006D01*
G01*
%TO.C,D16*%
X160925000Y-109406250D02*
X160925000Y-105506250D01*
X162925000Y-109406250D02*
X162925000Y-105506250D01*
X162925000Y-109406250D02*
X160925000Y-109406250D01*
%TO.C,SW3*%
X210843750Y-79331250D02*
X207800857Y-79331250D01*
X207800857Y-79331250D02*
G75*
G03*
X206800857Y-80331250I6J-1000006D01*
G01*
%TO.C,SW5*%
X172743750Y-79331250D02*
X169700857Y-79331250D01*
X169700857Y-79331250D02*
G75*
G03*
X168700857Y-80331250I6J-1000006D01*
G01*
%TO.C,D26*%
X141875000Y-128456250D02*
X141875000Y-124556250D01*
X143875000Y-128456250D02*
X141875000Y-128456250D01*
X143875000Y-128456250D02*
X143875000Y-124556250D01*
%TO.C,SW24*%
X191793750Y-117431250D02*
X188750857Y-117431250D01*
X188750857Y-117431250D02*
G75*
G03*
X187750857Y-118431250I6J-1000006D01*
G01*
%TO.C,D13*%
X218075000Y-109406250D02*
X218075000Y-105506250D01*
X220075000Y-109406250D02*
X218075000Y-109406250D01*
X220075000Y-109406250D02*
X220075000Y-105506250D01*
%TO.C,D3*%
X218075000Y-90356250D02*
X218075000Y-86456250D01*
X220075000Y-90356250D02*
X220075000Y-86456250D01*
X220075000Y-90356250D02*
X218075000Y-90356250D01*
%TO.C,SW2*%
X229893750Y-79331250D02*
X226850857Y-79331250D01*
X226850857Y-79331250D02*
G75*
G03*
X225850857Y-80331250I6J-1000006D01*
G01*
%TO.C,SW14*%
X191793750Y-98381250D02*
X188750857Y-98381250D01*
X188750857Y-98381250D02*
G75*
G03*
X187750857Y-99381250I6J-1000006D01*
G01*
%TD*%
D13*
%TO.C,U1*%
X48736250Y-78504250D03*
D14*
X48736250Y-81044250D03*
X48736250Y-83584250D03*
X48736250Y-86124250D03*
X48736250Y-88664250D03*
X48736250Y-91204250D03*
X48736250Y-93744250D03*
X48736250Y-96284250D03*
X48736250Y-98824250D03*
X48736250Y-101364250D03*
X48736250Y-103904250D03*
X48736250Y-106444250D03*
X63976250Y-106444250D03*
X63976250Y-103904250D03*
X63976250Y-101364250D03*
X63976250Y-98824250D03*
X63976250Y-96284250D03*
X63976250Y-93744250D03*
X63976250Y-91204250D03*
X63976250Y-88664250D03*
X63976250Y-86124250D03*
X63976250Y-83584250D03*
X63976250Y-81044250D03*
X63976250Y-78504250D03*
%TD*%
M02*
