%TF.GenerationSoftware,KiCad,Pcbnew,(6.0.6)*%
%TF.CreationDate,2022-07-16T00:36:14+07:00*%
%TF.ProjectId,pocket,706f636b-6574-42e6-9b69-6361645f7063,rev?*%
%TF.SameCoordinates,Original*%
%TF.FileFunction,Soldermask,Top*%
%TF.FilePolarity,Negative*%
%FSLAX46Y46*%
G04 Gerber Fmt 4.6, Leading zero omitted, Abs format (unit mm)*
G04 Created by KiCad (PCBNEW (6.0.6)) date 2022-07-16 00:36:14*
%MOMM*%
%LPD*%
G01*
G04 APERTURE LIST*
%ADD10C,3.300000*%
%ADD11C,1.750000*%
%ADD12C,3.987800*%
%ADD13C,1.752600*%
%ADD14R,1.752600X1.752600*%
%ADD15C,3.048000*%
G04 APERTURE END LIST*
D10*
%TO.C,SW13*%
X227965000Y-60801250D03*
X221615000Y-63341250D03*
D11*
X230505000Y-65881250D03*
D12*
X225425000Y-65881250D03*
D11*
X220345000Y-65881250D03*
%TD*%
D13*
%TO.C,U1*%
X79057500Y-41198000D03*
X63817500Y-69138000D03*
X79057500Y-43738000D03*
X79057500Y-46278000D03*
X79057500Y-48818000D03*
X79057500Y-51358000D03*
X79057500Y-53898000D03*
X79057500Y-56438000D03*
X79057500Y-58978000D03*
X79057500Y-61518000D03*
X79057500Y-64058000D03*
X79057500Y-66598000D03*
X79057500Y-69138000D03*
X63817500Y-66598000D03*
X63817500Y-64058000D03*
X63817500Y-61518000D03*
X63817500Y-58978000D03*
X63817500Y-56438000D03*
X63817500Y-53898000D03*
X63817500Y-51358000D03*
X63817500Y-48818000D03*
X63817500Y-46278000D03*
X63817500Y-43738000D03*
D14*
X63817500Y-41198000D03*
%TD*%
D10*
%TO.C,SW15*%
X189865000Y-60801250D03*
X183515000Y-63341250D03*
D11*
X192405000Y-65881250D03*
D12*
X187325000Y-65881250D03*
D11*
X182245000Y-65881250D03*
%TD*%
D10*
%TO.C,SW14*%
X208915000Y-60801250D03*
X202565000Y-63341250D03*
D11*
X211455000Y-65881250D03*
D12*
X206375000Y-65881250D03*
D11*
X201295000Y-65881250D03*
%TD*%
D15*
%TO.C,S1*%
X189706250Y-77946250D03*
X165893750Y-77946250D03*
D12*
X189706250Y-93186250D03*
X165893750Y-93186250D03*
%TD*%
D11*
%TO.C,SW29*%
X86995000Y-84931250D03*
D12*
X92075000Y-84931250D03*
D11*
X97155000Y-84931250D03*
D10*
X88265000Y-82391250D03*
X94615000Y-79851250D03*
%TD*%
D11*
%TO.C,SW28*%
X106045000Y-84931250D03*
D12*
X111125000Y-84931250D03*
D11*
X116205000Y-84931250D03*
D10*
X107315000Y-82391250D03*
X113665000Y-79851250D03*
%TD*%
D11*
%TO.C,SW27*%
X125095000Y-84931250D03*
D12*
X130175000Y-84931250D03*
D11*
X135255000Y-84931250D03*
D10*
X126365000Y-82391250D03*
X132715000Y-79851250D03*
%TD*%
D11*
%TO.C,SW26*%
X144145000Y-84931250D03*
D12*
X149225000Y-84931250D03*
D11*
X154305000Y-84931250D03*
D10*
X145415000Y-82391250D03*
X151765000Y-79851250D03*
%TD*%
D11*
%TO.C,SW25*%
X172720000Y-84931250D03*
D12*
X177800000Y-84931250D03*
D11*
X182880000Y-84931250D03*
D10*
X173990000Y-82391250D03*
X180340000Y-79851250D03*
%TD*%
D11*
%TO.C,SW24*%
X201295000Y-84931250D03*
D12*
X206375000Y-84931250D03*
D11*
X211455000Y-84931250D03*
D10*
X202565000Y-82391250D03*
X208915000Y-79851250D03*
%TD*%
D11*
%TO.C,SW23*%
X220345000Y-84931250D03*
D12*
X225425000Y-84931250D03*
D11*
X230505000Y-84931250D03*
D10*
X221615000Y-82391250D03*
X227965000Y-79851250D03*
%TD*%
D11*
%TO.C,SW22*%
X239395000Y-84931250D03*
D12*
X244475000Y-84931250D03*
D11*
X249555000Y-84931250D03*
D10*
X240665000Y-82391250D03*
X247015000Y-79851250D03*
%TD*%
D11*
%TO.C,SW21*%
X258445000Y-84931250D03*
D12*
X263525000Y-84931250D03*
D11*
X268605000Y-84931250D03*
D10*
X259715000Y-82391250D03*
X266065000Y-79851250D03*
%TD*%
%TO.C,SW6*%
X170815000Y-41751250D03*
X164465000Y-44291250D03*
D11*
X173355000Y-46831250D03*
D12*
X168275000Y-46831250D03*
D11*
X163195000Y-46831250D03*
%TD*%
%TO.C,SW20*%
X86995000Y-65881250D03*
D12*
X92075000Y-65881250D03*
D11*
X97155000Y-65881250D03*
D10*
X88265000Y-63341250D03*
X94615000Y-60801250D03*
%TD*%
D11*
%TO.C,SW19*%
X106045000Y-65881250D03*
D12*
X111125000Y-65881250D03*
D11*
X116205000Y-65881250D03*
D10*
X107315000Y-63341250D03*
X113665000Y-60801250D03*
%TD*%
%TO.C,SW18*%
X132715000Y-60801250D03*
X126365000Y-63341250D03*
D11*
X135255000Y-65881250D03*
D12*
X130175000Y-65881250D03*
D11*
X125095000Y-65881250D03*
%TD*%
D10*
%TO.C,SW17*%
X151765000Y-60801250D03*
X145415000Y-63341250D03*
D11*
X154305000Y-65881250D03*
D12*
X149225000Y-65881250D03*
D11*
X144145000Y-65881250D03*
%TD*%
D10*
%TO.C,SW16*%
X170815000Y-60801250D03*
X164465000Y-63341250D03*
D11*
X173355000Y-65881250D03*
D12*
X168275000Y-65881250D03*
D11*
X163195000Y-65881250D03*
%TD*%
D10*
%TO.C,SW12*%
X247015000Y-60801250D03*
X240665000Y-63341250D03*
D11*
X249555000Y-65881250D03*
D12*
X244475000Y-65881250D03*
D11*
X239395000Y-65881250D03*
%TD*%
D10*
%TO.C,SW11*%
X266065000Y-60801250D03*
X259715000Y-63341250D03*
D11*
X268605000Y-65881250D03*
D12*
X263525000Y-65881250D03*
D11*
X258445000Y-65881250D03*
%TD*%
D10*
%TO.C,SW10*%
X94615000Y-41751250D03*
X88265000Y-44291250D03*
D11*
X97155000Y-46831250D03*
D12*
X92075000Y-46831250D03*
D11*
X86995000Y-46831250D03*
%TD*%
D10*
%TO.C,SW9*%
X113665000Y-41751250D03*
X107315000Y-44291250D03*
D11*
X116205000Y-46831250D03*
D12*
X111125000Y-46831250D03*
D11*
X106045000Y-46831250D03*
%TD*%
D10*
%TO.C,SW8*%
X132715000Y-41751250D03*
X126365000Y-44291250D03*
D11*
X135255000Y-46831250D03*
D12*
X130175000Y-46831250D03*
D11*
X125095000Y-46831250D03*
%TD*%
D10*
%TO.C,SW7*%
X151765000Y-41751250D03*
X145415000Y-44291250D03*
D11*
X154305000Y-46831250D03*
D12*
X149225000Y-46831250D03*
D11*
X144145000Y-46831250D03*
%TD*%
D10*
%TO.C,SW5*%
X189865000Y-41751250D03*
X183515000Y-44291250D03*
D11*
X192405000Y-46831250D03*
D12*
X187325000Y-46831250D03*
D11*
X182245000Y-46831250D03*
%TD*%
D10*
%TO.C,SW4*%
X208915000Y-41751250D03*
X202565000Y-44291250D03*
D11*
X211455000Y-46831250D03*
D12*
X206375000Y-46831250D03*
D11*
X201295000Y-46831250D03*
%TD*%
D10*
%TO.C,SW3*%
X227965000Y-41751250D03*
X221615000Y-44291250D03*
D11*
X230505000Y-46831250D03*
D12*
X225425000Y-46831250D03*
D11*
X220345000Y-46831250D03*
%TD*%
D10*
%TO.C,SW2*%
X247015000Y-41751250D03*
X240665000Y-44291250D03*
D11*
X249555000Y-46831250D03*
D12*
X244475000Y-46831250D03*
D11*
X239395000Y-46831250D03*
%TD*%
D10*
%TO.C,SW1*%
X266065000Y-41751250D03*
X259715000Y-44291250D03*
D11*
X268605000Y-46831250D03*
D12*
X263525000Y-46831250D03*
D11*
X258445000Y-46831250D03*
%TD*%
M02*
