%TF.GenerationSoftware,KiCad,Pcbnew,(6.0.6)*%
%TF.CreationDate,2022-07-16T00:36:14+07:00*%
%TF.ProjectId,pocket,706f636b-6574-42e6-9b69-6361645f7063,rev?*%
%TF.SameCoordinates,Original*%
%TF.FileFunction,Paste,Bot*%
%TF.FilePolarity,Positive*%
%FSLAX46Y46*%
G04 Gerber Fmt 4.6, Leading zero omitted, Abs format (unit mm)*
G04 Created by KiCad (PCBNEW (6.0.6)) date 2022-07-16 00:36:14*
%MOMM*%
%LPD*%
G01*
G04 APERTURE LIST*
G04 Aperture macros list*
%AMRoundRect*
0 Rectangle with rounded corners*
0 $1 Rounding radius*
0 $2 $3 $4 $5 $6 $7 $8 $9 X,Y pos of 4 corners*
0 Add a 4 corners polygon primitive as box body*
4,1,4,$2,$3,$4,$5,$6,$7,$8,$9,$2,$3,0*
0 Add four circle primitives for the rounded corners*
1,1,$1+$1,$2,$3*
1,1,$1+$1,$4,$5*
1,1,$1+$1,$6,$7*
1,1,$1+$1,$8,$9*
0 Add four rect primitives between the rounded corners*
20,1,$1+$1,$2,$3,$4,$5,0*
20,1,$1+$1,$4,$5,$6,$7,0*
20,1,$1+$1,$6,$7,$8,$9,0*
20,1,$1+$1,$8,$9,$2,$3,0*%
G04 Aperture macros list end*
%ADD10RoundRect,0.250000X1.025000X1.000000X-1.025000X1.000000X-1.025000X-1.000000X1.025000X-1.000000X0*%
%ADD11R,1.200000X0.900000*%
G04 APERTURE END LIST*
D10*
%TO.C,SW13*%
X231515000Y-60801250D03*
X218065000Y-63341250D03*
%TD*%
%TO.C,SW15*%
X193415000Y-60801250D03*
X179965000Y-63341250D03*
%TD*%
%TO.C,SW14*%
X212465000Y-60801250D03*
X199015000Y-63341250D03*
%TD*%
%TO.C,SW29*%
X84715000Y-82391250D03*
X98165000Y-79851250D03*
%TD*%
%TO.C,SW28*%
X103765000Y-82391250D03*
X117215000Y-79851250D03*
%TD*%
%TO.C,SW27*%
X122815000Y-82391250D03*
X136265000Y-79851250D03*
%TD*%
%TO.C,SW26*%
X141865000Y-82391250D03*
X155315000Y-79851250D03*
%TD*%
%TO.C,SW25*%
X170440000Y-82391250D03*
X183890000Y-79851250D03*
%TD*%
%TO.C,SW24*%
X199015000Y-82391250D03*
X212465000Y-79851250D03*
%TD*%
%TO.C,SW23*%
X218065000Y-82391250D03*
X231515000Y-79851250D03*
%TD*%
%TO.C,SW22*%
X237115000Y-82391250D03*
X250565000Y-79851250D03*
%TD*%
%TO.C,SW21*%
X256165000Y-82391250D03*
X269615000Y-79851250D03*
%TD*%
D11*
%TO.C,D29*%
X84931250Y-90550000D03*
X84931250Y-87250000D03*
%TD*%
%TO.C,D28*%
X103981250Y-90550000D03*
X103981250Y-87250000D03*
%TD*%
%TO.C,D27*%
X123031250Y-90550000D03*
X123031250Y-87250000D03*
%TD*%
%TO.C,D26*%
X142081250Y-90550000D03*
X142081250Y-87250000D03*
%TD*%
%TO.C,D25*%
X170656250Y-90550000D03*
X170656250Y-87250000D03*
%TD*%
%TO.C,D24*%
X199231250Y-90550000D03*
X199231250Y-87250000D03*
%TD*%
%TO.C,D23*%
X218281250Y-90550000D03*
X218281250Y-87250000D03*
%TD*%
%TO.C,D22*%
X237331250Y-90550000D03*
X237331250Y-87250000D03*
%TD*%
%TO.C,D21*%
X256381250Y-90550000D03*
X256381250Y-87250000D03*
%TD*%
D10*
%TO.C,SW6*%
X174365000Y-41751250D03*
X160915000Y-44291250D03*
%TD*%
%TO.C,SW20*%
X84715000Y-63341250D03*
X98165000Y-60801250D03*
%TD*%
%TO.C,SW19*%
X103765000Y-63341250D03*
X117215000Y-60801250D03*
%TD*%
%TO.C,SW18*%
X136265000Y-60801250D03*
X122815000Y-63341250D03*
%TD*%
%TO.C,SW17*%
X155315000Y-60801250D03*
X141865000Y-63341250D03*
%TD*%
%TO.C,SW16*%
X174365000Y-60801250D03*
X160915000Y-63341250D03*
%TD*%
%TO.C,SW12*%
X250565000Y-60801250D03*
X237115000Y-63341250D03*
%TD*%
%TO.C,SW11*%
X269615000Y-60801250D03*
X256165000Y-63341250D03*
%TD*%
D11*
%TO.C,D20*%
X84931250Y-68200000D03*
X84931250Y-71500000D03*
%TD*%
%TO.C,D19*%
X103981250Y-68200000D03*
X103981250Y-71500000D03*
%TD*%
%TO.C,D18*%
X123031250Y-68200000D03*
X123031250Y-71500000D03*
%TD*%
%TO.C,D17*%
X142081250Y-68200000D03*
X142081250Y-71500000D03*
%TD*%
%TO.C,D16*%
X161131250Y-68200000D03*
X161131250Y-71500000D03*
%TD*%
%TO.C,D15*%
X180181250Y-68200000D03*
X180181250Y-71500000D03*
%TD*%
%TO.C,D14*%
X199231250Y-68200000D03*
X199231250Y-71500000D03*
%TD*%
%TO.C,D13*%
X218281250Y-68200000D03*
X218281250Y-71500000D03*
%TD*%
%TO.C,D12*%
X237331250Y-68200000D03*
X237331250Y-71500000D03*
%TD*%
%TO.C,D11*%
X256381250Y-68200000D03*
X256381250Y-71500000D03*
%TD*%
D10*
%TO.C,SW10*%
X98165000Y-41751250D03*
X84715000Y-44291250D03*
%TD*%
%TO.C,SW9*%
X117215000Y-41751250D03*
X103765000Y-44291250D03*
%TD*%
%TO.C,SW8*%
X136265000Y-41751250D03*
X122815000Y-44291250D03*
%TD*%
%TO.C,SW7*%
X155315000Y-41751250D03*
X141865000Y-44291250D03*
%TD*%
%TO.C,SW5*%
X193415000Y-41751250D03*
X179965000Y-44291250D03*
%TD*%
%TO.C,SW4*%
X212465000Y-41751250D03*
X199015000Y-44291250D03*
%TD*%
%TO.C,SW3*%
X231515000Y-41751250D03*
X218065000Y-44291250D03*
%TD*%
%TO.C,SW2*%
X250565000Y-41751250D03*
X237115000Y-44291250D03*
%TD*%
%TO.C,SW1*%
X269615000Y-41751250D03*
X256165000Y-44291250D03*
%TD*%
D11*
%TO.C,D10*%
X84931250Y-52450000D03*
X84931250Y-49150000D03*
%TD*%
%TO.C,D9*%
X103981250Y-52450000D03*
X103981250Y-49150000D03*
%TD*%
%TO.C,D8*%
X123031250Y-49150000D03*
X123031250Y-52450000D03*
%TD*%
%TO.C,D7*%
X142081250Y-49150000D03*
X142081250Y-52450000D03*
%TD*%
%TO.C,D6*%
X161131250Y-49150000D03*
X161131250Y-52450000D03*
%TD*%
%TO.C,D5*%
X180181250Y-49150000D03*
X180181250Y-52450000D03*
%TD*%
%TO.C,D4*%
X199231250Y-49150000D03*
X199231250Y-52450000D03*
%TD*%
%TO.C,D3*%
X218281250Y-49150000D03*
X218281250Y-52450000D03*
%TD*%
%TO.C,D2*%
X237331250Y-49150000D03*
X237331250Y-52450000D03*
%TD*%
%TO.C,D1*%
X256381250Y-52450000D03*
X256381250Y-49150000D03*
%TD*%
M02*
