%TF.GenerationSoftware,KiCad,Pcbnew,(6.0.6)*%
%TF.CreationDate,2022-07-16T00:36:14+07:00*%
%TF.ProjectId,pocket,706f636b-6574-42e6-9b69-6361645f7063,rev?*%
%TF.SameCoordinates,Original*%
%TF.FileFunction,Legend,Top*%
%TF.FilePolarity,Positive*%
%FSLAX46Y46*%
G04 Gerber Fmt 4.6, Leading zero omitted, Abs format (unit mm)*
G04 Created by KiCad (PCBNEW (6.0.6)) date 2022-07-16 00:36:14*
%MOMM*%
%LPD*%
G01*
G04 APERTURE LIST*
%ADD10C,0.150000*%
%ADD11C,0.381000*%
%ADD12C,1.752600*%
%ADD13R,1.752600X1.752600*%
G04 APERTURE END LIST*
D10*
%TO.C,U1*%
X65675151Y-40759904D02*
X66132294Y-40759904D01*
X65903723Y-41559904D02*
X65903723Y-40759904D01*
X66322770Y-40759904D02*
X66856104Y-41559904D01*
X66856104Y-40759904D02*
X66322770Y-41559904D01*
X67313247Y-40759904D02*
X67389437Y-40759904D01*
X67465628Y-40798000D01*
X67503723Y-40836095D01*
X67541818Y-40912285D01*
X67579913Y-41064666D01*
X67579913Y-41255142D01*
X67541818Y-41407523D01*
X67503723Y-41483714D01*
X67465628Y-41521809D01*
X67389437Y-41559904D01*
X67313247Y-41559904D01*
X67237056Y-41521809D01*
X67198961Y-41483714D01*
X67160866Y-41407523D01*
X67122770Y-41255142D01*
X67122770Y-41064666D01*
X67160866Y-40912285D01*
X67198961Y-40836095D01*
X67237056Y-40798000D01*
X67313247Y-40759904D01*
X68494199Y-40721809D02*
X67808485Y-41750380D01*
X68760866Y-41559904D02*
X68760866Y-40759904D01*
X68951342Y-40759904D01*
X69065628Y-40798000D01*
X69141818Y-40874190D01*
X69179913Y-40950380D01*
X69218008Y-41102761D01*
X69218008Y-41217047D01*
X69179913Y-41369428D01*
X69141818Y-41445619D01*
X69065628Y-41521809D01*
X68951342Y-41559904D01*
X68760866Y-41559904D01*
X69484675Y-40759904D02*
X69979913Y-40759904D01*
X69713247Y-41064666D01*
X69827532Y-41064666D01*
X69903723Y-41102761D01*
X69941818Y-41140857D01*
X69979913Y-41217047D01*
X69979913Y-41407523D01*
X69941818Y-41483714D01*
X69903723Y-41521809D01*
X69827532Y-41559904D01*
X69598961Y-41559904D01*
X69522770Y-41521809D01*
X69484675Y-41483714D01*
X65386023Y-44099904D02*
X65386023Y-43299904D01*
X65576500Y-43299904D01*
X65690785Y-43338000D01*
X65766976Y-43414190D01*
X65805071Y-43490380D01*
X65843166Y-43642761D01*
X65843166Y-43757047D01*
X65805071Y-43909428D01*
X65766976Y-43985619D01*
X65690785Y-44061809D01*
X65576500Y-44099904D01*
X65386023Y-44099904D01*
X66147928Y-43376095D02*
X66186023Y-43338000D01*
X66262214Y-43299904D01*
X66452690Y-43299904D01*
X66528880Y-43338000D01*
X66566976Y-43376095D01*
X66605071Y-43452285D01*
X66605071Y-43528476D01*
X66566976Y-43642761D01*
X66109833Y-44099904D01*
X66605071Y-44099904D01*
X65386023Y-54259904D02*
X65386023Y-53459904D01*
X65576500Y-53459904D01*
X65690785Y-53498000D01*
X65766976Y-53574190D01*
X65805071Y-53650380D01*
X65843166Y-53802761D01*
X65843166Y-53917047D01*
X65805071Y-54069428D01*
X65766976Y-54145619D01*
X65690785Y-54221809D01*
X65576500Y-54259904D01*
X65386023Y-54259904D01*
X66338404Y-53459904D02*
X66414595Y-53459904D01*
X66490785Y-53498000D01*
X66528880Y-53536095D01*
X66566976Y-53612285D01*
X66605071Y-53764666D01*
X66605071Y-53955142D01*
X66566976Y-54107523D01*
X66528880Y-54183714D01*
X66490785Y-54221809D01*
X66414595Y-54259904D01*
X66338404Y-54259904D01*
X66262214Y-54221809D01*
X66224119Y-54183714D01*
X66186023Y-54107523D01*
X66147928Y-53955142D01*
X66147928Y-53764666D01*
X66186023Y-53612285D01*
X66224119Y-53536095D01*
X66262214Y-53498000D01*
X66338404Y-53459904D01*
X65386023Y-51719904D02*
X65386023Y-50919904D01*
X65576500Y-50919904D01*
X65690785Y-50958000D01*
X65766976Y-51034190D01*
X65805071Y-51110380D01*
X65843166Y-51262761D01*
X65843166Y-51377047D01*
X65805071Y-51529428D01*
X65766976Y-51605619D01*
X65690785Y-51681809D01*
X65576500Y-51719904D01*
X65386023Y-51719904D01*
X66605071Y-51719904D02*
X66147928Y-51719904D01*
X66376500Y-51719904D02*
X66376500Y-50919904D01*
X66300309Y-51034190D01*
X66224119Y-51110380D01*
X66147928Y-51148476D01*
X65366976Y-48418000D02*
X65290785Y-48379904D01*
X65176500Y-48379904D01*
X65062214Y-48418000D01*
X64986023Y-48494190D01*
X64947928Y-48570380D01*
X64909833Y-48722761D01*
X64909833Y-48837047D01*
X64947928Y-48989428D01*
X64986023Y-49065619D01*
X65062214Y-49141809D01*
X65176500Y-49179904D01*
X65252690Y-49179904D01*
X65366976Y-49141809D01*
X65405071Y-49103714D01*
X65405071Y-48837047D01*
X65252690Y-48837047D01*
X65747928Y-49179904D02*
X65747928Y-48379904D01*
X66205071Y-49179904D01*
X66205071Y-48379904D01*
X66586023Y-49179904D02*
X66586023Y-48379904D01*
X66776500Y-48379904D01*
X66890785Y-48418000D01*
X66966976Y-48494190D01*
X67005071Y-48570380D01*
X67043166Y-48722761D01*
X67043166Y-48837047D01*
X67005071Y-48989428D01*
X66966976Y-49065619D01*
X66890785Y-49141809D01*
X66776500Y-49179904D01*
X66586023Y-49179904D01*
X65366976Y-45878000D02*
X65290785Y-45839904D01*
X65176500Y-45839904D01*
X65062214Y-45878000D01*
X64986023Y-45954190D01*
X64947928Y-46030380D01*
X64909833Y-46182761D01*
X64909833Y-46297047D01*
X64947928Y-46449428D01*
X64986023Y-46525619D01*
X65062214Y-46601809D01*
X65176500Y-46639904D01*
X65252690Y-46639904D01*
X65366976Y-46601809D01*
X65405071Y-46563714D01*
X65405071Y-46297047D01*
X65252690Y-46297047D01*
X65747928Y-46639904D02*
X65747928Y-45839904D01*
X66205071Y-46639904D01*
X66205071Y-45839904D01*
X66586023Y-46639904D02*
X66586023Y-45839904D01*
X66776500Y-45839904D01*
X66890785Y-45878000D01*
X66966976Y-45954190D01*
X67005071Y-46030380D01*
X67043166Y-46182761D01*
X67043166Y-46297047D01*
X67005071Y-46449428D01*
X66966976Y-46525619D01*
X66890785Y-46601809D01*
X66776500Y-46639904D01*
X66586023Y-46639904D01*
X65386023Y-56799904D02*
X65386023Y-55999904D01*
X65576500Y-55999904D01*
X65690785Y-56038000D01*
X65766976Y-56114190D01*
X65805071Y-56190380D01*
X65843166Y-56342761D01*
X65843166Y-56457047D01*
X65805071Y-56609428D01*
X65766976Y-56685619D01*
X65690785Y-56761809D01*
X65576500Y-56799904D01*
X65386023Y-56799904D01*
X66528880Y-56266571D02*
X66528880Y-56799904D01*
X66338404Y-55961809D02*
X66147928Y-56533238D01*
X66643166Y-56533238D01*
X65843166Y-59263714D02*
X65805071Y-59301809D01*
X65690785Y-59339904D01*
X65614595Y-59339904D01*
X65500309Y-59301809D01*
X65424119Y-59225619D01*
X65386023Y-59149428D01*
X65347928Y-58997047D01*
X65347928Y-58882761D01*
X65386023Y-58730380D01*
X65424119Y-58654190D01*
X65500309Y-58578000D01*
X65614595Y-58539904D01*
X65690785Y-58539904D01*
X65805071Y-58578000D01*
X65843166Y-58616095D01*
X66528880Y-58539904D02*
X66376500Y-58539904D01*
X66300309Y-58578000D01*
X66262214Y-58616095D01*
X66186023Y-58730380D01*
X66147928Y-58882761D01*
X66147928Y-59187523D01*
X66186023Y-59263714D01*
X66224119Y-59301809D01*
X66300309Y-59339904D01*
X66452690Y-59339904D01*
X66528880Y-59301809D01*
X66566976Y-59263714D01*
X66605071Y-59187523D01*
X66605071Y-58997047D01*
X66566976Y-58920857D01*
X66528880Y-58882761D01*
X66452690Y-58844666D01*
X66300309Y-58844666D01*
X66224119Y-58882761D01*
X66186023Y-58920857D01*
X66147928Y-58997047D01*
X65386023Y-61879904D02*
X65386023Y-61079904D01*
X65576500Y-61079904D01*
X65690785Y-61118000D01*
X65766976Y-61194190D01*
X65805071Y-61270380D01*
X65843166Y-61422761D01*
X65843166Y-61537047D01*
X65805071Y-61689428D01*
X65766976Y-61765619D01*
X65690785Y-61841809D01*
X65576500Y-61879904D01*
X65386023Y-61879904D01*
X66109833Y-61079904D02*
X66643166Y-61079904D01*
X66300309Y-61879904D01*
X65424119Y-64000857D02*
X65690785Y-64000857D01*
X65805071Y-64419904D02*
X65424119Y-64419904D01*
X65424119Y-63619904D01*
X65805071Y-63619904D01*
X66490785Y-63619904D02*
X66338404Y-63619904D01*
X66262214Y-63658000D01*
X66224119Y-63696095D01*
X66147928Y-63810380D01*
X66109833Y-63962761D01*
X66109833Y-64267523D01*
X66147928Y-64343714D01*
X66186023Y-64381809D01*
X66262214Y-64419904D01*
X66414595Y-64419904D01*
X66490785Y-64381809D01*
X66528880Y-64343714D01*
X66566976Y-64267523D01*
X66566976Y-64077047D01*
X66528880Y-64000857D01*
X66490785Y-63962761D01*
X66414595Y-63924666D01*
X66262214Y-63924666D01*
X66186023Y-63962761D01*
X66147928Y-64000857D01*
X66109833Y-64077047D01*
X65652690Y-66540857D02*
X65766976Y-66578952D01*
X65805071Y-66617047D01*
X65843166Y-66693238D01*
X65843166Y-66807523D01*
X65805071Y-66883714D01*
X65766976Y-66921809D01*
X65690785Y-66959904D01*
X65386023Y-66959904D01*
X65386023Y-66159904D01*
X65652690Y-66159904D01*
X65728880Y-66198000D01*
X65766976Y-66236095D01*
X65805071Y-66312285D01*
X65805071Y-66388476D01*
X65766976Y-66464666D01*
X65728880Y-66502761D01*
X65652690Y-66540857D01*
X65386023Y-66540857D01*
X66528880Y-66426571D02*
X66528880Y-66959904D01*
X66338404Y-66121809D02*
X66147928Y-66693238D01*
X66643166Y-66693238D01*
X65652690Y-69080857D02*
X65766976Y-69118952D01*
X65805071Y-69157047D01*
X65843166Y-69233238D01*
X65843166Y-69347523D01*
X65805071Y-69423714D01*
X65766976Y-69461809D01*
X65690785Y-69499904D01*
X65386023Y-69499904D01*
X65386023Y-68699904D01*
X65652690Y-68699904D01*
X65728880Y-68738000D01*
X65766976Y-68776095D01*
X65805071Y-68852285D01*
X65805071Y-68928476D01*
X65766976Y-69004666D01*
X65728880Y-69042761D01*
X65652690Y-69080857D01*
X65386023Y-69080857D01*
X66566976Y-68699904D02*
X66186023Y-68699904D01*
X66147928Y-69080857D01*
X66186023Y-69042761D01*
X66262214Y-69004666D01*
X66452690Y-69004666D01*
X66528880Y-69042761D01*
X66566976Y-69080857D01*
X66605071Y-69157047D01*
X66605071Y-69347523D01*
X66566976Y-69423714D01*
X66528880Y-69461809D01*
X66452690Y-69499904D01*
X66262214Y-69499904D01*
X66186023Y-69461809D01*
X66147928Y-69423714D01*
X76574690Y-69080857D02*
X76688976Y-69118952D01*
X76727071Y-69157047D01*
X76765166Y-69233238D01*
X76765166Y-69347523D01*
X76727071Y-69423714D01*
X76688976Y-69461809D01*
X76612785Y-69499904D01*
X76308023Y-69499904D01*
X76308023Y-68699904D01*
X76574690Y-68699904D01*
X76650880Y-68738000D01*
X76688976Y-68776095D01*
X76727071Y-68852285D01*
X76727071Y-68928476D01*
X76688976Y-69004666D01*
X76650880Y-69042761D01*
X76574690Y-69080857D01*
X76308023Y-69080857D01*
X77450880Y-68699904D02*
X77298500Y-68699904D01*
X77222309Y-68738000D01*
X77184214Y-68776095D01*
X77108023Y-68890380D01*
X77069928Y-69042761D01*
X77069928Y-69347523D01*
X77108023Y-69423714D01*
X77146119Y-69461809D01*
X77222309Y-69499904D01*
X77374690Y-69499904D01*
X77450880Y-69461809D01*
X77488976Y-69423714D01*
X77527071Y-69347523D01*
X77527071Y-69157047D01*
X77488976Y-69080857D01*
X77450880Y-69042761D01*
X77374690Y-69004666D01*
X77222309Y-69004666D01*
X77146119Y-69042761D01*
X77108023Y-69080857D01*
X77069928Y-69157047D01*
X76574690Y-64000857D02*
X76688976Y-64038952D01*
X76727071Y-64077047D01*
X76765166Y-64153238D01*
X76765166Y-64267523D01*
X76727071Y-64343714D01*
X76688976Y-64381809D01*
X76612785Y-64419904D01*
X76308023Y-64419904D01*
X76308023Y-63619904D01*
X76574690Y-63619904D01*
X76650880Y-63658000D01*
X76688976Y-63696095D01*
X76727071Y-63772285D01*
X76727071Y-63848476D01*
X76688976Y-63924666D01*
X76650880Y-63962761D01*
X76574690Y-64000857D01*
X76308023Y-64000857D01*
X77031833Y-63619904D02*
X77527071Y-63619904D01*
X77260404Y-63924666D01*
X77374690Y-63924666D01*
X77450880Y-63962761D01*
X77488976Y-64000857D01*
X77527071Y-64077047D01*
X77527071Y-64267523D01*
X77488976Y-64343714D01*
X77450880Y-64381809D01*
X77374690Y-64419904D01*
X77146119Y-64419904D01*
X77069928Y-64381809D01*
X77031833Y-64343714D01*
X76574690Y-61460857D02*
X76688976Y-61498952D01*
X76727071Y-61537047D01*
X76765166Y-61613238D01*
X76765166Y-61727523D01*
X76727071Y-61803714D01*
X76688976Y-61841809D01*
X76612785Y-61879904D01*
X76308023Y-61879904D01*
X76308023Y-61079904D01*
X76574690Y-61079904D01*
X76650880Y-61118000D01*
X76688976Y-61156095D01*
X76727071Y-61232285D01*
X76727071Y-61308476D01*
X76688976Y-61384666D01*
X76650880Y-61422761D01*
X76574690Y-61460857D01*
X76308023Y-61460857D01*
X77527071Y-61879904D02*
X77069928Y-61879904D01*
X77298500Y-61879904D02*
X77298500Y-61079904D01*
X77222309Y-61194190D01*
X77146119Y-61270380D01*
X77069928Y-61308476D01*
X76631833Y-51300857D02*
X76365166Y-51300857D01*
X76365166Y-51719904D02*
X76365166Y-50919904D01*
X76746119Y-50919904D01*
X77393738Y-51186571D02*
X77393738Y-51719904D01*
X77203261Y-50881809D02*
X77012785Y-51453238D01*
X77508023Y-51453238D01*
X75831833Y-48379904D02*
X76098500Y-49179904D01*
X76365166Y-48379904D01*
X77088976Y-49103714D02*
X77050880Y-49141809D01*
X76936595Y-49179904D01*
X76860404Y-49179904D01*
X76746119Y-49141809D01*
X76669928Y-49065619D01*
X76631833Y-48989428D01*
X76593738Y-48837047D01*
X76593738Y-48722761D01*
X76631833Y-48570380D01*
X76669928Y-48494190D01*
X76746119Y-48418000D01*
X76860404Y-48379904D01*
X76936595Y-48379904D01*
X77050880Y-48418000D01*
X77088976Y-48456095D01*
X77888976Y-49103714D02*
X77850880Y-49141809D01*
X77736595Y-49179904D01*
X77660404Y-49179904D01*
X77546119Y-49141809D01*
X77469928Y-49065619D01*
X77431833Y-48989428D01*
X77393738Y-48837047D01*
X77393738Y-48722761D01*
X77431833Y-48570380D01*
X77469928Y-48494190D01*
X77546119Y-48418000D01*
X77660404Y-48379904D01*
X77736595Y-48379904D01*
X77850880Y-48418000D01*
X77888976Y-48456095D01*
X76637286Y-46571809D02*
X76751572Y-46609904D01*
X76942048Y-46609904D01*
X77018239Y-46571809D01*
X77056334Y-46533714D01*
X77094429Y-46457523D01*
X77094429Y-46381333D01*
X77056334Y-46305142D01*
X77018239Y-46267047D01*
X76942048Y-46228952D01*
X76789667Y-46190857D01*
X76713477Y-46152761D01*
X76675381Y-46114666D01*
X76637286Y-46038476D01*
X76637286Y-45962285D01*
X76675381Y-45886095D01*
X76713477Y-45848000D01*
X76789667Y-45809904D01*
X76980143Y-45809904D01*
X77094429Y-45848000D01*
X77323000Y-45809904D02*
X77780143Y-45809904D01*
X77551572Y-46609904D02*
X77551572Y-45809904D01*
X76288976Y-43338000D02*
X76212785Y-43299904D01*
X76098500Y-43299904D01*
X75984214Y-43338000D01*
X75908023Y-43414190D01*
X75869928Y-43490380D01*
X75831833Y-43642761D01*
X75831833Y-43757047D01*
X75869928Y-43909428D01*
X75908023Y-43985619D01*
X75984214Y-44061809D01*
X76098500Y-44099904D01*
X76174690Y-44099904D01*
X76288976Y-44061809D01*
X76327071Y-44023714D01*
X76327071Y-43757047D01*
X76174690Y-43757047D01*
X76669928Y-44099904D02*
X76669928Y-43299904D01*
X77127071Y-44099904D01*
X77127071Y-43299904D01*
X77508023Y-44099904D02*
X77508023Y-43299904D01*
X77698500Y-43299904D01*
X77812785Y-43338000D01*
X77888976Y-43414190D01*
X77927071Y-43490380D01*
X77965166Y-43642761D01*
X77965166Y-43757047D01*
X77927071Y-43909428D01*
X77888976Y-43985619D01*
X77812785Y-44061809D01*
X77698500Y-44099904D01*
X77508023Y-44099904D01*
X76346119Y-41559904D02*
X76079452Y-41178952D01*
X75888976Y-41559904D02*
X75888976Y-40759904D01*
X76193738Y-40759904D01*
X76269928Y-40798000D01*
X76308023Y-40836095D01*
X76346119Y-40912285D01*
X76346119Y-41026571D01*
X76308023Y-41102761D01*
X76269928Y-41140857D01*
X76193738Y-41178952D01*
X75888976Y-41178952D01*
X76650880Y-41331333D02*
X77031833Y-41331333D01*
X76574690Y-41559904D02*
X76841357Y-40759904D01*
X77108023Y-41559904D01*
X77298500Y-40759904D02*
X77488976Y-41559904D01*
X77641357Y-40988476D01*
X77793738Y-41559904D01*
X77984214Y-40759904D01*
X76631833Y-53840857D02*
X76365166Y-53840857D01*
X76365166Y-54259904D02*
X76365166Y-53459904D01*
X76746119Y-53459904D01*
X77431833Y-53459904D02*
X77050880Y-53459904D01*
X77012785Y-53840857D01*
X77050880Y-53802761D01*
X77127071Y-53764666D01*
X77317547Y-53764666D01*
X77393738Y-53802761D01*
X77431833Y-53840857D01*
X77469928Y-53917047D01*
X77469928Y-54107523D01*
X77431833Y-54183714D01*
X77393738Y-54221809D01*
X77317547Y-54259904D01*
X77127071Y-54259904D01*
X77050880Y-54221809D01*
X77012785Y-54183714D01*
X76631833Y-56380857D02*
X76365166Y-56380857D01*
X76365166Y-56799904D02*
X76365166Y-55999904D01*
X76746119Y-55999904D01*
X77393738Y-55999904D02*
X77241357Y-55999904D01*
X77165166Y-56038000D01*
X77127071Y-56076095D01*
X77050880Y-56190380D01*
X77012785Y-56342761D01*
X77012785Y-56647523D01*
X77050880Y-56723714D01*
X77088976Y-56761809D01*
X77165166Y-56799904D01*
X77317547Y-56799904D01*
X77393738Y-56761809D01*
X77431833Y-56723714D01*
X77469928Y-56647523D01*
X77469928Y-56457047D01*
X77431833Y-56380857D01*
X77393738Y-56342761D01*
X77317547Y-56304666D01*
X77165166Y-56304666D01*
X77088976Y-56342761D01*
X77050880Y-56380857D01*
X77012785Y-56457047D01*
X76631833Y-58920857D02*
X76365166Y-58920857D01*
X76365166Y-59339904D02*
X76365166Y-58539904D01*
X76746119Y-58539904D01*
X76974690Y-58539904D02*
X77508023Y-58539904D01*
X77165166Y-59339904D01*
X76574690Y-66540857D02*
X76688976Y-66578952D01*
X76727071Y-66617047D01*
X76765166Y-66693238D01*
X76765166Y-66807523D01*
X76727071Y-66883714D01*
X76688976Y-66921809D01*
X76612785Y-66959904D01*
X76308023Y-66959904D01*
X76308023Y-66159904D01*
X76574690Y-66159904D01*
X76650880Y-66198000D01*
X76688976Y-66236095D01*
X76727071Y-66312285D01*
X76727071Y-66388476D01*
X76688976Y-66464666D01*
X76650880Y-66502761D01*
X76574690Y-66540857D01*
X76308023Y-66540857D01*
X77069928Y-66236095D02*
X77108023Y-66198000D01*
X77184214Y-66159904D01*
X77374690Y-66159904D01*
X77450880Y-66198000D01*
X77488976Y-66236095D01*
X77527071Y-66312285D01*
X77527071Y-66388476D01*
X77488976Y-66502761D01*
X77031833Y-66959904D01*
X77527071Y-66959904D01*
D11*
X65087500Y-39928000D02*
X62547500Y-39928000D01*
X62547500Y-37388000D02*
X62547500Y-39928000D01*
X80327500Y-37388000D02*
X62547500Y-37388000D01*
X80327500Y-39928000D02*
X80327500Y-37388000D01*
G36*
X76369068Y-46607360D02*
G01*
X76269068Y-46607360D01*
X76269068Y-46407360D01*
X76369068Y-46407360D01*
X76369068Y-46607360D01*
G37*
D10*
X76369068Y-46607360D02*
X76269068Y-46607360D01*
X76269068Y-46407360D01*
X76369068Y-46407360D01*
X76369068Y-46607360D01*
G36*
X75969068Y-46607360D02*
G01*
X75869068Y-46607360D01*
X75869068Y-45807360D01*
X75969068Y-45807360D01*
X75969068Y-46607360D01*
G37*
X75969068Y-46607360D02*
X75869068Y-46607360D01*
X75869068Y-45807360D01*
X75969068Y-45807360D01*
X75969068Y-46607360D01*
G36*
X76369068Y-45907360D02*
G01*
X75869068Y-45907360D01*
X75869068Y-45807360D01*
X76369068Y-45807360D01*
X76369068Y-45907360D01*
G37*
X76369068Y-45907360D02*
X75869068Y-45907360D01*
X75869068Y-45807360D01*
X76369068Y-45807360D01*
X76369068Y-45907360D01*
G36*
X76169068Y-46307360D02*
G01*
X76069068Y-46307360D01*
X76069068Y-46207360D01*
X76169068Y-46207360D01*
X76169068Y-46307360D01*
G37*
X76169068Y-46307360D02*
X76069068Y-46307360D01*
X76069068Y-46207360D01*
X76169068Y-46207360D01*
X76169068Y-46307360D01*
G36*
X76369068Y-46107360D02*
G01*
X76269068Y-46107360D01*
X76269068Y-45807360D01*
X76369068Y-45807360D01*
X76369068Y-46107360D01*
G37*
X76369068Y-46107360D02*
X76269068Y-46107360D01*
X76269068Y-45807360D01*
X76369068Y-45807360D01*
X76369068Y-46107360D01*
D11*
X65087500Y-42468000D02*
X62547500Y-42468000D01*
X65087500Y-39928000D02*
X65087500Y-42468000D01*
X80327500Y-70408000D02*
X80327500Y-39928000D01*
X62547500Y-70408000D02*
X80327500Y-70408000D01*
X62547500Y-39928000D02*
X62547500Y-70408000D01*
%TD*%
D12*
%TO.C,U1*%
X79057500Y-41198000D03*
X63817500Y-69138000D03*
X79057500Y-43738000D03*
X79057500Y-46278000D03*
X79057500Y-48818000D03*
X79057500Y-51358000D03*
X79057500Y-53898000D03*
X79057500Y-56438000D03*
X79057500Y-58978000D03*
X79057500Y-61518000D03*
X79057500Y-64058000D03*
X79057500Y-66598000D03*
X79057500Y-69138000D03*
X63817500Y-66598000D03*
X63817500Y-64058000D03*
X63817500Y-61518000D03*
X63817500Y-58978000D03*
X63817500Y-56438000D03*
X63817500Y-53898000D03*
X63817500Y-51358000D03*
X63817500Y-48818000D03*
X63817500Y-46278000D03*
X63817500Y-43738000D03*
D13*
X63817500Y-41198000D03*
%TD*%
M02*
