%TF.GenerationSoftware,KiCad,Pcbnew,(6.0.6)*%
%TF.CreationDate,2022-07-16T11:18:18+07:00*%
%TF.ProjectId,pocket,706f636b-6574-42e6-9b69-6361645f7063,rev?*%
%TF.SameCoordinates,Original*%
%TF.FileFunction,Soldermask,Top*%
%TF.FilePolarity,Negative*%
%FSLAX46Y46*%
G04 Gerber Fmt 4.6, Leading zero omitted, Abs format (unit mm)*
G04 Created by KiCad (PCBNEW (6.0.6)) date 2022-07-16 11:18:18*
%MOMM*%
%LPD*%
G01*
G04 APERTURE LIST*
%ADD10C,3.300000*%
%ADD11C,1.750000*%
%ADD12C,3.987800*%
%ADD13R,1.752600X1.752600*%
%ADD14C,1.752600*%
%ADD15C,3.048000*%
G04 APERTURE END LIST*
D10*
%TO.C,SW29*%
X95408750Y-98107500D03*
X89058750Y-100647500D03*
D11*
X97948750Y-103187500D03*
D12*
X92868750Y-103187500D03*
D11*
X87788750Y-103187500D03*
%TD*%
D10*
%TO.C,SW28*%
X114458750Y-98107500D03*
X108108750Y-100647500D03*
D11*
X116998750Y-103187500D03*
D12*
X111918750Y-103187500D03*
D11*
X106838750Y-103187500D03*
%TD*%
D10*
%TO.C,SW27*%
X133508750Y-98107500D03*
X127158750Y-100647500D03*
D11*
X136048750Y-103187500D03*
D12*
X130968750Y-103187500D03*
D11*
X125888750Y-103187500D03*
%TD*%
D10*
%TO.C,SW26*%
X152558750Y-98107500D03*
X146208750Y-100647500D03*
D11*
X155098750Y-103187500D03*
D12*
X150018750Y-103187500D03*
D11*
X144938750Y-103187500D03*
%TD*%
D10*
%TO.C,SW25*%
X181133750Y-98107500D03*
X174783750Y-100647500D03*
D11*
X183673750Y-103187500D03*
D12*
X178593750Y-103187500D03*
D11*
X173513750Y-103187500D03*
%TD*%
D10*
%TO.C,SW24*%
X209708750Y-98107500D03*
X203358750Y-100647500D03*
D11*
X212248750Y-103187500D03*
D12*
X207168750Y-103187500D03*
D11*
X202088750Y-103187500D03*
%TD*%
D10*
%TO.C,SW23*%
X228758750Y-98107500D03*
X222408750Y-100647500D03*
D11*
X231298750Y-103187500D03*
D12*
X226218750Y-103187500D03*
D11*
X221138750Y-103187500D03*
%TD*%
D10*
%TO.C,SW22*%
X247808750Y-98107500D03*
X241458750Y-100647500D03*
D11*
X250348750Y-103187500D03*
D12*
X245268750Y-103187500D03*
D11*
X240188750Y-103187500D03*
%TD*%
D10*
%TO.C,SW21*%
X266858750Y-98107500D03*
X260508750Y-100647500D03*
D11*
X269398750Y-103187500D03*
D12*
X264318750Y-103187500D03*
D11*
X259238750Y-103187500D03*
%TD*%
D10*
%TO.C,SW20*%
X95408750Y-79057500D03*
X89058750Y-81597500D03*
D11*
X97948750Y-84137500D03*
D12*
X92868750Y-84137500D03*
D11*
X87788750Y-84137500D03*
%TD*%
D10*
%TO.C,SW19*%
X114458750Y-79057500D03*
X108108750Y-81597500D03*
D11*
X116998750Y-84137500D03*
D12*
X111918750Y-84137500D03*
D11*
X106838750Y-84137500D03*
%TD*%
D10*
%TO.C,SW18*%
X133508750Y-79057500D03*
X127158750Y-81597500D03*
D11*
X136048750Y-84137500D03*
D12*
X130968750Y-84137500D03*
D11*
X125888750Y-84137500D03*
%TD*%
D10*
%TO.C,SW17*%
X152558750Y-79057500D03*
X146208750Y-81597500D03*
D11*
X155098750Y-84137500D03*
D12*
X150018750Y-84137500D03*
D11*
X144938750Y-84137500D03*
%TD*%
D10*
%TO.C,SW16*%
X171608750Y-79057500D03*
X165258750Y-81597500D03*
D11*
X174148750Y-84137500D03*
D12*
X169068750Y-84137500D03*
D11*
X163988750Y-84137500D03*
%TD*%
D10*
%TO.C,SW15*%
X190658750Y-79057500D03*
X184308750Y-81597500D03*
D11*
X193198750Y-84137500D03*
D12*
X188118750Y-84137500D03*
D11*
X183038750Y-84137500D03*
%TD*%
D10*
%TO.C,SW14*%
X209708750Y-79057500D03*
X203358750Y-81597500D03*
D11*
X212248750Y-84137500D03*
D12*
X207168750Y-84137500D03*
D11*
X202088750Y-84137500D03*
%TD*%
D10*
%TO.C,SW13*%
X228758750Y-79057500D03*
X222408750Y-81597500D03*
D11*
X231298750Y-84137500D03*
D12*
X226218750Y-84137500D03*
D11*
X221138750Y-84137500D03*
%TD*%
D10*
%TO.C,SW12*%
X247808750Y-79057500D03*
X241458750Y-81597500D03*
D11*
X250348750Y-84137500D03*
D12*
X245268750Y-84137500D03*
D11*
X240188750Y-84137500D03*
%TD*%
D10*
%TO.C,SW11*%
X266858750Y-79057500D03*
X260508750Y-81597500D03*
D11*
X269398750Y-84137500D03*
D12*
X264318750Y-84137500D03*
D11*
X259238750Y-84137500D03*
%TD*%
D13*
%TO.C,U1*%
X64611250Y-58660500D03*
D14*
X64611250Y-61200500D03*
X64611250Y-63740500D03*
X64611250Y-66280500D03*
X64611250Y-68820500D03*
X64611250Y-71360500D03*
X64611250Y-73900500D03*
X64611250Y-76440500D03*
X64611250Y-78980500D03*
X64611250Y-81520500D03*
X64611250Y-84060500D03*
X79851250Y-86600500D03*
X79851250Y-84060500D03*
X79851250Y-81520500D03*
X79851250Y-78980500D03*
X79851250Y-76440500D03*
X79851250Y-73900500D03*
X79851250Y-71360500D03*
X79851250Y-68820500D03*
X79851250Y-66280500D03*
X79851250Y-63740500D03*
X79851250Y-61200500D03*
X64611250Y-86600500D03*
X79851250Y-58660500D03*
%TD*%
D10*
%TO.C,SW10*%
X95408750Y-60007500D03*
X89058750Y-62547500D03*
D11*
X97948750Y-65087500D03*
D12*
X92868750Y-65087500D03*
D11*
X87788750Y-65087500D03*
%TD*%
D10*
%TO.C,SW9*%
X114458750Y-60007500D03*
X108108750Y-62547500D03*
D11*
X116998750Y-65087500D03*
D12*
X111918750Y-65087500D03*
D11*
X106838750Y-65087500D03*
%TD*%
D10*
%TO.C,SW8*%
X133508750Y-60007500D03*
X127158750Y-62547500D03*
D11*
X136048750Y-65087500D03*
D12*
X130968750Y-65087500D03*
D11*
X125888750Y-65087500D03*
%TD*%
D10*
%TO.C,SW7*%
X152558750Y-60007500D03*
X146208750Y-62547500D03*
D11*
X155098750Y-65087500D03*
D12*
X150018750Y-65087500D03*
D11*
X144938750Y-65087500D03*
%TD*%
D10*
%TO.C,SW6*%
X171608750Y-60007500D03*
X165258750Y-62547500D03*
D11*
X174148750Y-65087500D03*
D12*
X169068750Y-65087500D03*
D11*
X163988750Y-65087500D03*
%TD*%
D10*
%TO.C,SW5*%
X190658750Y-60007500D03*
X184308750Y-62547500D03*
D11*
X193198750Y-65087500D03*
D12*
X188118750Y-65087500D03*
D11*
X183038750Y-65087500D03*
%TD*%
D10*
%TO.C,SW4*%
X209708750Y-60007500D03*
X203358750Y-62547500D03*
D11*
X212248750Y-65087500D03*
D12*
X207168750Y-65087500D03*
D11*
X202088750Y-65087500D03*
%TD*%
D10*
%TO.C,SW3*%
X228758750Y-60007500D03*
X222408750Y-62547500D03*
D11*
X231298750Y-65087500D03*
D12*
X226218750Y-65087500D03*
D11*
X221138750Y-65087500D03*
%TD*%
D10*
%TO.C,SW2*%
X247808750Y-60007500D03*
X241458750Y-62547500D03*
D11*
X250348750Y-65087500D03*
D12*
X245268750Y-65087500D03*
D11*
X240188750Y-65087500D03*
%TD*%
D10*
%TO.C,SW1*%
X266858750Y-60007500D03*
X260508750Y-62547500D03*
D11*
X269398750Y-65087500D03*
D12*
X264318750Y-65087500D03*
D11*
X259238750Y-65087500D03*
%TD*%
D12*
%TO.C,S1*%
X166687500Y-94932500D03*
X190500000Y-94932500D03*
D15*
X166687500Y-110172500D03*
X190500000Y-110172500D03*
%TD*%
M02*
