%TF.GenerationSoftware,KiCad,Pcbnew,(6.0.6)*%
%TF.CreationDate,2022-07-16T11:18:18+07:00*%
%TF.ProjectId,pocket,706f636b-6574-42e6-9b69-6361645f7063,rev?*%
%TF.SameCoordinates,Original*%
%TF.FileFunction,Soldermask,Bot*%
%TF.FilePolarity,Negative*%
%FSLAX46Y46*%
G04 Gerber Fmt 4.6, Leading zero omitted, Abs format (unit mm)*
G04 Created by KiCad (PCBNEW (6.0.6)) date 2022-07-16 11:18:18*
%MOMM*%
%LPD*%
G01*
G04 APERTURE LIST*
G04 Aperture macros list*
%AMRoundRect*
0 Rectangle with rounded corners*
0 $1 Rounding radius*
0 $2 $3 $4 $5 $6 $7 $8 $9 X,Y pos of 4 corners*
0 Add a 4 corners polygon primitive as box body*
4,1,4,$2,$3,$4,$5,$6,$7,$8,$9,$2,$3,0*
0 Add four circle primitives for the rounded corners*
1,1,$1+$1,$2,$3*
1,1,$1+$1,$4,$5*
1,1,$1+$1,$6,$7*
1,1,$1+$1,$8,$9*
0 Add four rect primitives between the rounded corners*
20,1,$1+$1,$2,$3,$4,$5,0*
20,1,$1+$1,$4,$5,$6,$7,0*
20,1,$1+$1,$6,$7,$8,$9,0*
20,1,$1+$1,$8,$9,$2,$3,0*%
G04 Aperture macros list end*
%ADD10RoundRect,0.250000X1.025000X1.000000X-1.025000X1.000000X-1.025000X-1.000000X1.025000X-1.000000X0*%
%ADD11C,3.300000*%
%ADD12C,1.750000*%
%ADD13C,3.987800*%
%ADD14R,1.200000X0.900000*%
%ADD15R,1.752600X1.752600*%
%ADD16C,1.752600*%
%ADD17C,3.048000*%
G04 APERTURE END LIST*
D10*
%TO.C,SW29*%
X98958750Y-98107500D03*
D11*
X95408750Y-98107500D03*
X89058750Y-100647500D03*
D10*
X85508750Y-100647500D03*
D12*
X97948750Y-103187500D03*
D13*
X92868750Y-103187500D03*
D12*
X87788750Y-103187500D03*
%TD*%
D14*
%TO.C,D29*%
X101600000Y-104712500D03*
X101600000Y-108012500D03*
%TD*%
%TO.C,D28*%
X120650000Y-104712500D03*
X120650000Y-108012500D03*
%TD*%
%TO.C,D27*%
X139700000Y-104712500D03*
X139700000Y-108012500D03*
%TD*%
%TO.C,D26*%
X158750000Y-104712500D03*
X158750000Y-108012500D03*
%TD*%
%TO.C,D25*%
X195262500Y-98362500D03*
X195262500Y-101662500D03*
%TD*%
%TO.C,D24*%
X215900000Y-104712500D03*
X215900000Y-108012500D03*
%TD*%
%TO.C,D23*%
X234950000Y-104712500D03*
X234950000Y-108012500D03*
%TD*%
%TO.C,D22*%
X254000000Y-104712500D03*
X254000000Y-108012500D03*
%TD*%
%TO.C,D21*%
X273050000Y-104712500D03*
X273050000Y-108012500D03*
%TD*%
%TO.C,D20*%
X101600000Y-85662500D03*
X101600000Y-88962500D03*
%TD*%
%TO.C,D19*%
X120650000Y-85662500D03*
X120650000Y-88962500D03*
%TD*%
%TO.C,D18*%
X139700000Y-85662500D03*
X139700000Y-88962500D03*
%TD*%
%TO.C,D17*%
X158750000Y-85662500D03*
X158750000Y-88962500D03*
%TD*%
%TO.C,D16*%
X177800000Y-88962500D03*
X177800000Y-85662500D03*
%TD*%
%TO.C,D15*%
X196850000Y-85662500D03*
X196850000Y-88962500D03*
%TD*%
%TO.C,D14*%
X215900000Y-85662500D03*
X215900000Y-88962500D03*
%TD*%
%TO.C,D13*%
X234950000Y-85662500D03*
X234950000Y-88962500D03*
%TD*%
%TO.C,D12*%
X254000000Y-85662500D03*
X254000000Y-88962500D03*
%TD*%
%TO.C,D11*%
X273050000Y-85662500D03*
X273050000Y-88962500D03*
%TD*%
%TO.C,D10*%
X101600000Y-66612500D03*
X101600000Y-69912500D03*
%TD*%
%TO.C,D9*%
X120650000Y-66612500D03*
X120650000Y-69912500D03*
%TD*%
%TO.C,D8*%
X139700000Y-66612500D03*
X139700000Y-69912500D03*
%TD*%
%TO.C,D7*%
X158750000Y-66612500D03*
X158750000Y-69912500D03*
%TD*%
%TO.C,D6*%
X177800000Y-66612500D03*
X177800000Y-69912500D03*
%TD*%
%TO.C,D5*%
X196850000Y-66612500D03*
X196850000Y-69912500D03*
%TD*%
%TO.C,D4*%
X215900000Y-66612500D03*
X215900000Y-69912500D03*
%TD*%
%TO.C,D3*%
X234950000Y-66612500D03*
X234950000Y-69912500D03*
%TD*%
%TO.C,D2*%
X254000000Y-66612500D03*
X254000000Y-69912500D03*
%TD*%
%TO.C,D1*%
X273050000Y-66612500D03*
X273050000Y-69912500D03*
%TD*%
D10*
%TO.C,SW28*%
X118008750Y-98107500D03*
D11*
X114458750Y-98107500D03*
X108108750Y-100647500D03*
D10*
X104558750Y-100647500D03*
D12*
X116998750Y-103187500D03*
D13*
X111918750Y-103187500D03*
D12*
X106838750Y-103187500D03*
%TD*%
D10*
%TO.C,SW27*%
X137058750Y-98107500D03*
D11*
X133508750Y-98107500D03*
X127158750Y-100647500D03*
D10*
X123608750Y-100647500D03*
D12*
X136048750Y-103187500D03*
D13*
X130968750Y-103187500D03*
D12*
X125888750Y-103187500D03*
%TD*%
D10*
%TO.C,SW26*%
X156108750Y-98107500D03*
D11*
X152558750Y-98107500D03*
X146208750Y-100647500D03*
D10*
X142658750Y-100647500D03*
D12*
X155098750Y-103187500D03*
D13*
X150018750Y-103187500D03*
D12*
X144938750Y-103187500D03*
%TD*%
D10*
%TO.C,SW25*%
X184683750Y-98107500D03*
D11*
X181133750Y-98107500D03*
X174783750Y-100647500D03*
D10*
X171233750Y-100647500D03*
D12*
X183673750Y-103187500D03*
D13*
X178593750Y-103187500D03*
D12*
X173513750Y-103187500D03*
%TD*%
D10*
%TO.C,SW24*%
X213258750Y-98107500D03*
D11*
X209708750Y-98107500D03*
X203358750Y-100647500D03*
D10*
X199808750Y-100647500D03*
D12*
X212248750Y-103187500D03*
D13*
X207168750Y-103187500D03*
D12*
X202088750Y-103187500D03*
%TD*%
D10*
%TO.C,SW23*%
X232308750Y-98107500D03*
D11*
X228758750Y-98107500D03*
X222408750Y-100647500D03*
D10*
X218858750Y-100647500D03*
D12*
X231298750Y-103187500D03*
D13*
X226218750Y-103187500D03*
D12*
X221138750Y-103187500D03*
%TD*%
D10*
%TO.C,SW22*%
X251358750Y-98107500D03*
D11*
X247808750Y-98107500D03*
X241458750Y-100647500D03*
D10*
X237908750Y-100647500D03*
D12*
X250348750Y-103187500D03*
D13*
X245268750Y-103187500D03*
D12*
X240188750Y-103187500D03*
%TD*%
D10*
%TO.C,SW21*%
X270408750Y-98107500D03*
D11*
X266858750Y-98107500D03*
X260508750Y-100647500D03*
D10*
X256958750Y-100647500D03*
D12*
X269398750Y-103187500D03*
D13*
X264318750Y-103187500D03*
D12*
X259238750Y-103187500D03*
%TD*%
D10*
%TO.C,SW20*%
X98958750Y-79057500D03*
D11*
X95408750Y-79057500D03*
X89058750Y-81597500D03*
D10*
X85508750Y-81597500D03*
D12*
X97948750Y-84137500D03*
D13*
X92868750Y-84137500D03*
D12*
X87788750Y-84137500D03*
%TD*%
D10*
%TO.C,SW19*%
X118008750Y-79057500D03*
D11*
X114458750Y-79057500D03*
X108108750Y-81597500D03*
D10*
X104558750Y-81597500D03*
D12*
X116998750Y-84137500D03*
D13*
X111918750Y-84137500D03*
D12*
X106838750Y-84137500D03*
%TD*%
D10*
%TO.C,SW18*%
X137058750Y-79057500D03*
D11*
X133508750Y-79057500D03*
X127158750Y-81597500D03*
D10*
X123608750Y-81597500D03*
D12*
X136048750Y-84137500D03*
D13*
X130968750Y-84137500D03*
D12*
X125888750Y-84137500D03*
%TD*%
D10*
%TO.C,SW17*%
X156108750Y-79057500D03*
D11*
X152558750Y-79057500D03*
X146208750Y-81597500D03*
D10*
X142658750Y-81597500D03*
D12*
X155098750Y-84137500D03*
D13*
X150018750Y-84137500D03*
D12*
X144938750Y-84137500D03*
%TD*%
D10*
%TO.C,SW16*%
X175158750Y-79057500D03*
D11*
X171608750Y-79057500D03*
X165258750Y-81597500D03*
D10*
X161708750Y-81597500D03*
D12*
X174148750Y-84137500D03*
D13*
X169068750Y-84137500D03*
D12*
X163988750Y-84137500D03*
%TD*%
D10*
%TO.C,SW15*%
X194208750Y-79057500D03*
D11*
X190658750Y-79057500D03*
X184308750Y-81597500D03*
D10*
X180758750Y-81597500D03*
D12*
X193198750Y-84137500D03*
D13*
X188118750Y-84137500D03*
D12*
X183038750Y-84137500D03*
%TD*%
D10*
%TO.C,SW14*%
X213258750Y-79057500D03*
D11*
X209708750Y-79057500D03*
X203358750Y-81597500D03*
D10*
X199808750Y-81597500D03*
D12*
X212248750Y-84137500D03*
D13*
X207168750Y-84137500D03*
D12*
X202088750Y-84137500D03*
%TD*%
D10*
%TO.C,SW13*%
X232308750Y-79057500D03*
D11*
X228758750Y-79057500D03*
X222408750Y-81597500D03*
D10*
X218858750Y-81597500D03*
D12*
X231298750Y-84137500D03*
D13*
X226218750Y-84137500D03*
D12*
X221138750Y-84137500D03*
%TD*%
D10*
%TO.C,SW12*%
X251358750Y-79057500D03*
D11*
X247808750Y-79057500D03*
X241458750Y-81597500D03*
D10*
X237908750Y-81597500D03*
D12*
X250348750Y-84137500D03*
D13*
X245268750Y-84137500D03*
D12*
X240188750Y-84137500D03*
%TD*%
D10*
%TO.C,SW11*%
X270408750Y-79057500D03*
D11*
X266858750Y-79057500D03*
X260508750Y-81597500D03*
D10*
X256958750Y-81597500D03*
D12*
X269398750Y-84137500D03*
D13*
X264318750Y-84137500D03*
D12*
X259238750Y-84137500D03*
%TD*%
D15*
%TO.C,U1*%
X64611250Y-58660500D03*
D16*
X64611250Y-61200500D03*
X64611250Y-63740500D03*
X64611250Y-66280500D03*
X64611250Y-68820500D03*
X64611250Y-71360500D03*
X64611250Y-73900500D03*
X64611250Y-76440500D03*
X64611250Y-78980500D03*
X64611250Y-81520500D03*
X64611250Y-84060500D03*
X79851250Y-86600500D03*
X79851250Y-84060500D03*
X79851250Y-81520500D03*
X79851250Y-78980500D03*
X79851250Y-76440500D03*
X79851250Y-73900500D03*
X79851250Y-71360500D03*
X79851250Y-68820500D03*
X79851250Y-66280500D03*
X79851250Y-63740500D03*
X79851250Y-61200500D03*
X64611250Y-86600500D03*
X79851250Y-58660500D03*
%TD*%
D10*
%TO.C,SW10*%
X98958750Y-60007500D03*
D11*
X95408750Y-60007500D03*
X89058750Y-62547500D03*
D10*
X85508750Y-62547500D03*
D12*
X97948750Y-65087500D03*
D13*
X92868750Y-65087500D03*
D12*
X87788750Y-65087500D03*
%TD*%
D10*
%TO.C,SW9*%
X118008750Y-60007500D03*
D11*
X114458750Y-60007500D03*
X108108750Y-62547500D03*
D10*
X104558750Y-62547500D03*
D12*
X116998750Y-65087500D03*
D13*
X111918750Y-65087500D03*
D12*
X106838750Y-65087500D03*
%TD*%
D10*
%TO.C,SW8*%
X137058750Y-60007500D03*
D11*
X133508750Y-60007500D03*
X127158750Y-62547500D03*
D10*
X123608750Y-62547500D03*
D12*
X136048750Y-65087500D03*
D13*
X130968750Y-65087500D03*
D12*
X125888750Y-65087500D03*
%TD*%
D10*
%TO.C,SW7*%
X156108750Y-60007500D03*
D11*
X152558750Y-60007500D03*
X146208750Y-62547500D03*
D10*
X142658750Y-62547500D03*
D12*
X155098750Y-65087500D03*
D13*
X150018750Y-65087500D03*
D12*
X144938750Y-65087500D03*
%TD*%
D10*
%TO.C,SW6*%
X175158750Y-60007500D03*
D11*
X171608750Y-60007500D03*
X165258750Y-62547500D03*
D10*
X161708750Y-62547500D03*
D12*
X174148750Y-65087500D03*
D13*
X169068750Y-65087500D03*
D12*
X163988750Y-65087500D03*
%TD*%
D10*
%TO.C,SW5*%
X194208750Y-60007500D03*
D11*
X190658750Y-60007500D03*
X184308750Y-62547500D03*
D10*
X180758750Y-62547500D03*
D12*
X193198750Y-65087500D03*
D13*
X188118750Y-65087500D03*
D12*
X183038750Y-65087500D03*
%TD*%
D10*
%TO.C,SW4*%
X213258750Y-60007500D03*
D11*
X209708750Y-60007500D03*
X203358750Y-62547500D03*
D10*
X199808750Y-62547500D03*
D12*
X212248750Y-65087500D03*
D13*
X207168750Y-65087500D03*
D12*
X202088750Y-65087500D03*
%TD*%
D10*
%TO.C,SW3*%
X232308750Y-60007500D03*
D11*
X228758750Y-60007500D03*
X222408750Y-62547500D03*
D10*
X218858750Y-62547500D03*
D12*
X231298750Y-65087500D03*
D13*
X226218750Y-65087500D03*
D12*
X221138750Y-65087500D03*
%TD*%
D10*
%TO.C,SW2*%
X251358750Y-60007500D03*
D11*
X247808750Y-60007500D03*
X241458750Y-62547500D03*
D10*
X237908750Y-62547500D03*
D12*
X250348750Y-65087500D03*
D13*
X245268750Y-65087500D03*
D12*
X240188750Y-65087500D03*
%TD*%
D10*
%TO.C,SW1*%
X270408750Y-60007500D03*
D11*
X266858750Y-60007500D03*
X260508750Y-62547500D03*
D10*
X256958750Y-62547500D03*
D12*
X269398750Y-65087500D03*
D13*
X264318750Y-65087500D03*
D12*
X259238750Y-65087500D03*
%TD*%
D13*
%TO.C,S1*%
X166687500Y-94932500D03*
X190500000Y-94932500D03*
D17*
X166687500Y-110172500D03*
X190500000Y-110172500D03*
%TD*%
M02*
